<svg xmlns="http://www.w3.org/2000/svg" viewBox="0 0 46.59 46.58"><g id="Layer_2" data-name="Layer 2"><g id="Layer_1-2" data-name="Layer 1"><path d="M40.29,15.85l-.07-.15h-1A23.36,23.36,0,0,0,26,19.9a.52.52,0,0,1-.59,0,.51.51,0,0,1-.22-.51A23.18,23.18,0,0,1,31.32,7.74c.16-.18.33-.37.51-.55L32.07,7l-.3-.16a14.27,14.27,0,0,0-2-.88l-.15-.06L29.51,6c-.19.19-.37.4-.53.59a26,26,0,0,0-6.25,12.17.5.5,0,0,1-.41.4.54.54,0,0,1-.57-.24A20.85,20.85,0,0,1,18.21,6.55c0-.25,0-.51,0-.77l0-.36-.35.11a16.42,16.42,0,0,0-2.06.77l-.15.07v.15c0,.28,0,.56,0,.82a23.36,23.36,0,0,0,4.2,13.29.51.51,0,0,1,0,.58.49.49,0,0,1-.51.23A23.25,23.25,0,0,1,7.73,15.27l-.54-.51L7,14.52l-.16.3a15.9,15.9,0,0,0-.89,2L5.84,17l.13.11.59.52a26,26,0,0,0,12.17,6.25.49.49,0,0,1,.4.4.53.53,0,0,1-.24.57A20.75,20.75,0,0,1,6.51,28.38l-.73,0-.36,0,.11.35a18.39,18.39,0,0,0,.76,2.06l.07.15h1a23.36,23.36,0,0,0,13.29-4.2.51.51,0,0,1,.58,0,.5.5,0,0,1,.23.51,23.32,23.32,0,0,1-6.18,11.67l-.5.52-.23.24.3.16a17.68,17.68,0,0,0,2,.88l.16.06.12-.13.51-.59a26,26,0,0,0,6.25-12.16.5.5,0,0,1,.41-.4.53.53,0,0,1,.57.24A20.79,20.79,0,0,1,28.38,40v.09c0,.22,0,.45,0,.68l0,.36.35-.11a16.42,16.42,0,0,0,2.06-.77l.15-.07v-.15q0-.42,0-.81A23.43,23.43,0,0,0,26.69,26a.52.52,0,0,1,0-.59.49.49,0,0,1,.51-.22,23.16,23.16,0,0,1,11.64,6.16c.19.17.38.34.56.52l.24.23.15-.3a14.26,14.26,0,0,0,.88-2l.06-.15-.12-.12c-.2-.18-.4-.36-.6-.52a25.93,25.93,0,0,0-12.16-6.25.54.54,0,0,1-.43-.42.51.51,0,0,1,.24-.54A20.79,20.79,0,0,1,39.52,18.2h.56l.73,0,.36,0-.11-.34A16.62,16.62,0,0,0,40.29,15.85Zm-.24,1.85A21.29,21.29,0,0,0,27.4,21.35a1,1,0,0,0-.46,1,1,1,0,0,0,.83.82,25.36,25.36,0,0,1,11.92,6.14h0l.46.4a15.54,15.54,0,0,1-.65,1.48l-.32-.3A23.6,23.6,0,0,0,27.3,24.66a1,1,0,0,0-1,.44,1,1,0,0,0,0,1.13,22.94,22.94,0,0,1,4.12,13q0,.32,0,.63c-.47.21-1,.4-1.52.58,0-.11,0-.23,0-.34V40a21.3,21.3,0,0,0-3.62-12.61,1,1,0,0,0-.88-.48.65.65,0,0,0-.2,0,1,1,0,0,0-.81.8A25.53,25.53,0,0,1,17.23,39.7l-.39.45c-.51-.19-1-.41-1.49-.65l.3-.31A23.72,23.72,0,0,0,21.93,27.3a1,1,0,0,0-.44-1,1,1,0,0,0-1.14,0,23,23,0,0,1-13,4.11H6.69c-.21-.48-.4-1-.58-1.52h.43a21.29,21.29,0,0,0,12.62-3.63,1,1,0,0,0,.46-1.08,1,1,0,0,0-.8-.8A25.53,25.53,0,0,1,6.89,17.23l-.46-.4a14.09,14.09,0,0,1,.65-1.48l.32.29a23.66,23.66,0,0,0,11.89,6.29,1,1,0,0,0,1-.44,1,1,0,0,0,0-1.14,23,23,0,0,1-4.11-13c0-.21,0-.42,0-.64.48-.21,1-.4,1.53-.58,0,.15,0,.29,0,.43a21.34,21.34,0,0,0,3.62,12.62,1,1,0,0,0,1.08.46,1,1,0,0,0,.81-.8A25.48,25.48,0,0,1,29.36,6.89a5.72,5.72,0,0,1,.4-.46c.5.19,1,.41,1.48.65L31,7.4a23.62,23.62,0,0,0-6.29,11.89,1,1,0,0,0,.44,1,1,1,0,0,0,1.14,0,23,23,0,0,1,13-4.11h.63c.21.48.4,1,.58,1.51Zm3-.41A18.61,18.61,0,0,0,42.21,15l-.35-.76a1,1,0,0,0-.9-.6l-.84,0h-.89a25.1,25.1,0,0,0-9.67,1.95.53.53,0,0,1-.67-.73,24.84,24.84,0,0,1,4-5.68l.41-.45L34.6,7.41a1,1,0,0,0,.29-.88,1,1,0,0,0-.53-.75L32.82,5A17.56,17.56,0,0,0,30.43,3.9l-.76-.27a1,1,0,0,0-1.09.25L28,4.5c-.22.24-.45.49-.6.68a31.32,31.32,0,0,0-5.13,8,.54.54,0,0,1-.51.32.51.51,0,0,1-.48-.36,18.76,18.76,0,0,1-.94-6.58V6.47l0-.57L20.46,4a1,1,0,0,0-.4-.87A1,1,0,0,0,19.13,3l-1.83.56A18.19,18.19,0,0,0,15,4.38l-.76.35a1,1,0,0,0-.6.9l0,.84c0,.31,0,.63,0,.9A25.13,25.13,0,0,0,15.54,17a.51.51,0,0,1-.13.58.52.52,0,0,1-.6.09,24.76,24.76,0,0,1-5.71-4l-.41-.38L7.41,12a1,1,0,0,0-1.63.24l-.85,1.59a19.17,19.17,0,0,0-1,2.26l-.32.86a1,1,0,0,0,.28,1.12l.68.61.62.54a31.32,31.32,0,0,0,8,5.13.52.52,0,0,1,.33.52.51.51,0,0,1-.34.46,18.77,18.77,0,0,1-6.06.95H6.51l-.61,0L4,26.14a1,1,0,0,0-.87.39,1,1,0,0,0-.17.93l.56,1.83a19,19,0,0,0,.85,2.31l.35.77a1,1,0,0,0,.91.61l.84,0h.91A25,25,0,0,0,17,31.05a.52.52,0,0,1,.67.73,24.81,24.81,0,0,1-4,5.68l-.45.48L12,39.22a1.06,1.06,0,0,0-.27.88,1,1,0,0,0,.54.74l1.58.83a19.32,19.32,0,0,0,2.24,1L17,43a1,1,0,0,0,1.12-.28l.6-.68.54-.62a31,31,0,0,0,5.13-8,.51.51,0,0,1,.51-.32.53.53,0,0,1,.48.36A18.52,18.52,0,0,1,26.27,40c0,.24,0,.48,0,.72l-.1,1.91a1,1,0,0,0,.39.86,1,1,0,0,0,.93.17l1.83-.55a19.17,19.17,0,0,0,2.33-.88l.76-.34A1,1,0,0,0,33,41l0-.83c0-.32,0-.63,0-.9a25.14,25.14,0,0,0-1.95-9.67.51.51,0,0,1,.12-.58.52.52,0,0,1,.61-.08,24.9,24.9,0,0,1,5.67,4l.5.46,1.28,1.23a1,1,0,0,0,1.62-.26l.83-1.58a18.17,18.17,0,0,0,1-2.25l.3-.84a1,1,0,0,0-.27-1.1l-.65-.6-.65-.57a30.89,30.89,0,0,0-8-5.13.55.55,0,0,1-.33-.52.49.49,0,0,1,.35-.46,18.76,18.76,0,0,1,6.56-1l.7,0,1.91.11a1.06,1.06,0,0,0,.87-.4,1,1,0,0,0,.17-.93Zm0,2.46a.53.53,0,0,1-.44.2l-1.91-.11-.72,0a19.42,19.42,0,0,0-6.73,1,1,1,0,0,0-.69.92,1,1,0,0,0,.63,1,30.17,30.17,0,0,1,7.87,5.06c.17.13.4.34.63.55l.65.6a.51.51,0,0,1,.14.56l-.3.84a17.93,17.93,0,0,1-1,2.19l-.82,1.58a.5.5,0,0,1-.39.27.49.49,0,0,1-.44-.14L38.29,33l-.5-.47A25.39,25.39,0,0,0,32,28.44a1,1,0,0,0-1.41,1.31,24.49,24.49,0,0,1,1.91,9.48c0,.27,0,.57,0,.87l0,.84a.51.51,0,0,1-.31.46l-.76.35a18,18,0,0,1-2.26.85l-1.83.55a.52.52,0,0,1-.68-.53l.1-1.91h0c0-.24,0-.48,0-.73a18.79,18.79,0,0,0-1-6.69,1,1,0,0,0-.93-.7h0a1,1,0,0,0-.95.62,30.69,30.69,0,0,1-5.06,7.87c-.13.17-.32.39-.52.61l-.61.68a.51.51,0,0,1-.57.14l-.86-.31a20.12,20.12,0,0,1-2.18-1L12.5,40.4a.5.5,0,0,1-.27-.38.52.52,0,0,1,.13-.45l1.24-1.28.49-.53A25,25,0,0,0,18.15,32a1,1,0,0,0-1.31-1.41A24.53,24.53,0,0,1,7.36,32.5H6.47l-.84,0a.56.56,0,0,1-.47-.31l-.34-.77A20.72,20.72,0,0,1,4,29.14l-.56-1.83a.5.5,0,0,1,.09-.47.47.47,0,0,1,.44-.2l1.91.1.66,0H7.1a19.25,19.25,0,0,0,6.22-1,1,1,0,0,0,.68-.91,1,1,0,0,0-.63-1,31,31,0,0,1-7.86-5.05c-.2-.17-.41-.35-.61-.54l-.69-.6a.53.53,0,0,1-.14-.58l.32-.85a16.87,16.87,0,0,1,1-2.2l.85-1.59a.5.5,0,0,1,.39-.27.51.51,0,0,1,.45.15l1.27,1.27a5.49,5.49,0,0,0,.44.41,25.56,25.56,0,0,0,5.81,4.11A1,1,0,0,0,16,16.83a24.48,24.48,0,0,1-1.91-9.47c0-.27,0-.57,0-.88l0-.84a.51.51,0,0,1,.31-.46l.76-.35A18.65,18.65,0,0,1,17.44,4l1.84-.56A.53.53,0,0,1,20,4l-.11,1.91,0,.58v.08a19,19,0,0,0,1,6.76,1,1,0,0,0,.93.7h0a1,1,0,0,0,.95-.62A30.82,30.82,0,0,1,27.76,5.5c.16-.19.37-.42.59-.65l.59-.62a.54.54,0,0,1,.56-.13l.76.27a17.08,17.08,0,0,1,2.32,1l1.54.82a.5.5,0,0,1,.27.39.51.51,0,0,1-.15.45L33,8.33c-.16.16-.3.32-.44.47a25.33,25.33,0,0,0-4.09,5.79,1,1,0,0,0,.17,1.17,1,1,0,0,0,1.14.24,24.58,24.58,0,0,1,9.49-1.91h.87l.83,0a.55.55,0,0,1,.47.31l.34.76a16.6,16.6,0,0,1,.85,2.26l.56,1.83A.52.52,0,0,1,43.07,19.75Zm3.48,1.65L45.1,16.67a20.61,20.61,0,0,0-1-2.58l-.89-2a1.06,1.06,0,0,0-.91-.6l-2.15,0h-1a29.15,29.15,0,0,0-4.66.42.54.54,0,0,1-.57-.27A.5.5,0,0,1,34,11l.45-.5.33-.35,3.29-3.29a1,1,0,0,0-.25-1.63l-4-2.17a20.6,20.6,0,0,0-2.67-1.18l-2.05-.73A1,1,0,0,0,28,1.43L26.46,3c-.25.27-.53.57-.67.76A37.13,37.13,0,0,0,23.4,6.85a.55.55,0,0,1-.62.21.5.5,0,0,1-.34-.52c0-.17,0-.35,0-.52l.28-4.94a1,1,0,0,0-.39-.86A1.06,1.06,0,0,0,21.41,0L16.68,1.49a19.49,19.49,0,0,0-2.58,1l-2,.89a1,1,0,0,0-.6.91l0,2.15c0,.36,0,.72,0,1a28.15,28.15,0,0,0,.41,4.66.52.52,0,0,1-.27.56.5.5,0,0,1-.59-.06L10.46,12a2.37,2.37,0,0,1-.28-.27L6.89,8.48a1,1,0,0,0-1.63.25L3.07,12.82a19.26,19.26,0,0,0-1.13,2.53l-.82,2.21a1,1,0,0,0,.28,1.12l1.76,1.57.64.56a37.68,37.68,0,0,0,4.47,3.32q-.57,0-1.17,0H6.6l-.58,0-4.94-.27a1,1,0,0,0-1,1.32l1.45,4.73a21.34,21.34,0,0,0,1,2.55l.88,2a1.05,1.05,0,0,0,.91.61l2.17,0h1a29.25,29.25,0,0,0,4.66-.42.52.52,0,0,1,.57.27.48.48,0,0,1-.07.59l-.39.44-.08.09-.36.38L8.53,39.79a1,1,0,0,0,.26,1.62l4.08,2.13a22,22,0,0,0,2.49,1.11l2.21.81a1,1,0,0,0,1.12-.28l1.56-1.76c.23-.25.45-.51.55-.63a35.07,35.07,0,0,0,3.33-4.48c0,.51,0,1,0,1.6V40s0,.42,0,.59l-.27,4.93a1,1,0,0,0,1.33,1l4.72-1.44a22.48,22.48,0,0,0,2.59-1l2-.89a1,1,0,0,0,.6-.91l0-2.15c0-.36,0-.71,0-1a28.15,28.15,0,0,0-.41-4.66A.53.53,0,0,1,35,34a.5.5,0,0,1,.6.07c.16.14.33.28.49.44s.29.25.43.39l3.32,3.19a1,1,0,0,0,.87.27,1,1,0,0,0,.75-.54l2.13-4.07a20.57,20.57,0,0,0,1.11-2.52l.77-2.15a1,1,0,0,0-.27-1.1L43.49,26.4c-.29-.26-.57-.51-.7-.61a35.07,35.07,0,0,0-4.48-3.33c.53,0,1.1-.05,1.62,0l.64,0,4.94.27a1,1,0,0,0,.86-.39A1,1,0,0,0,46.55,21.4ZM46,22a.49.49,0,0,1-.44.2L40.6,22l-.66,0a21.92,21.92,0,0,0-2.44.1l-.75.08.65.39a34.8,34.8,0,0,1,5.07,3.68c.13.11.41.35.68.6l1.67,1.55a.51.51,0,0,1,.14.56L44.19,31a18.87,18.87,0,0,1-1.09,2.46L41,37.56a.51.51,0,0,1-.38.28.56.56,0,0,1-.45-.14l-3.31-3.19-.44-.41-.5-.44a1,1,0,0,0-1.17-.13,1,1,0,0,0-.51,1.09,28.4,28.4,0,0,1,.4,4.59c0,.26,0,.6,0,.95l0,2.15a.56.56,0,0,1-.31.47l-2,.89a20.8,20.8,0,0,1-2.53.95L25,46.06a.52.52,0,0,1-.48-.09.54.54,0,0,1-.2-.44l.27-4.93h0c0-.18,0-.61,0-.61v-.07a18.93,18.93,0,0,0-.09-2.42l-.08-.76-.38.66a36.82,36.82,0,0,1-3.69,5.07c-.1.13-.32.37-.54.62l-1.57,1.76a.51.51,0,0,1-.57.14l-2.21-.81A22.78,22.78,0,0,1,13.1,43.1L9,41a.56.56,0,0,1-.27-.39.49.49,0,0,1,.14-.44l3.19-3.32.39-.41,0-.07.41-.45a1,1,0,0,0,.13-1.17A1,1,0,0,0,12,34.21a29.56,29.56,0,0,1-4.59.41h-1l-2.18,0a.52.52,0,0,1-.46-.32l-.89-2A19.89,19.89,0,0,1,2,29.76L.52,25a.51.51,0,0,1,.09-.48.52.52,0,0,1,.44-.2L6,24.63l.6,0H7.1a18.22,18.22,0,0,0,2-.1l.75-.08-.65-.38a36.11,36.11,0,0,1-5-3.67l-.64-.56L1.73,18.31a.53.53,0,0,1-.14-.58l.82-2.21a18.21,18.21,0,0,1,1.1-2.46L5.7,9a.53.53,0,0,1,.84-.12l3.28,3.28.31.3.57.5a1,1,0,0,0,1.17.13A1,1,0,0,0,12.38,12,28.27,28.27,0,0,1,12,7.38c0-.26,0-.61,0-1l0-2.15a.56.56,0,0,1,.31-.47l2-.89A18.74,18.74,0,0,1,16.83,2L21.56.52A.52.52,0,0,1,22,.61a.55.55,0,0,1,.2.45L22,6c0,.18,0,.36,0,.56a1,1,0,0,0,.69,1,1,1,0,0,0,1.18-.39,34.31,34.31,0,0,1,2.36-3c.12-.15.37-.44.65-.74l1.55-1.6a.53.53,0,0,1,.56-.13L31,2.38a19.45,19.45,0,0,1,2.6,1.16L37.63,5.7a.5.5,0,0,1,.27.39.54.54,0,0,1-.15.45L34.47,9.82c-.13.13-.25.26-.35.38s-.31.33-.45.5a1,1,0,0,0,1,1.68A29.45,29.45,0,0,1,39.22,12c.18,0,.6,0,1,0l2.15,0a.53.53,0,0,1,.46.31l.9,2a19.66,19.66,0,0,1,.94,2.52l1.45,4.73A.5.5,0,0,1,46,22Zm-1.89-5a19.72,19.72,0,0,0-.92-2.45l-.62-1.36a1,1,0,0,0-.9-.6l-1.5,0h-.93a27,27,0,0,0-7.3,1.05.52.52,0,0,1-.59-.2.5.5,0,0,1,0-.6A27.49,27.49,0,0,1,33.7,9.83c.11-.13.24-.27.37-.4l2.28-2.28a1,1,0,0,0,.29-.88,1,1,0,0,0-.53-.75L33.31,4A19.59,19.59,0,0,0,30.79,2.9l-1.41-.5a1,1,0,0,0-1.08.25L27.23,3.77c-.24.25-.49.53-.65.72a34.29,34.29,0,0,0-4,5.68.52.52,0,0,1-.56.27.5.5,0,0,1-.42-.43,19.73,19.73,0,0,1-.2-3.43V6.47c0-.17,0-.34,0-.51l.2-3.42a1,1,0,0,0-.4-.87,1,1,0,0,0-.93-.17L17,2.5a19.67,19.67,0,0,0-2.46.92L13.17,4a1,1,0,0,0-.6.9l0,1.5c0,.34,0,.67,0,.94a27,27,0,0,0,1.05,7.29.53.53,0,0,1-.2.59.51.51,0,0,1-.6,0,28.28,28.28,0,0,1-3-2.41c-.12-.1-.23-.22-.35-.33L7.15,10.24A1,1,0,0,0,6.27,10a1,1,0,0,0-.75.53L4,13.32a19.39,19.39,0,0,0-1.07,2.4l-.57,1.53a1,1,0,0,0,.28,1.12l1.22,1.09.63.55a34.57,34.57,0,0,0,5.67,4,.52.52,0,0,1,.27.56A.5.5,0,0,1,10,25a18.23,18.23,0,0,1-2.9.22H6.57l-.61,0L2.53,25a1,1,0,0,0-.86.39,1,1,0,0,0-.17.93l1,3.28A21.08,21.08,0,0,0,3.4,32L4,33.41a1,1,0,0,0,.91.61l1.51,0h1A27.1,27.1,0,0,0,14.68,33a.54.54,0,0,1,.59.19.52.52,0,0,1,0,.61,26.88,26.88,0,0,1-2.34,2.91l-.1.11c-.11.13-.23.25-.35.38l-2.21,2.3a1,1,0,0,0-.28.87,1,1,0,0,0,.54.75l2.83,1.48a20.41,20.41,0,0,0,2.36,1l1.54.57a1,1,0,0,0,1.12-.28l1.08-1.22L20,42.1a35,35,0,0,0,4-5.69.51.51,0,0,1,.56-.27.5.5,0,0,1,.41.42,19.27,19.27,0,0,1,.2,3.38v.18c0,.17,0,.34,0,.51L25,44.05a1,1,0,0,0,.39.86,1.08,1.08,0,0,0,.64.22,1,1,0,0,0,.3-.05l3.27-1a21.37,21.37,0,0,0,2.46-.93l1.36-.62a1,1,0,0,0,.6-.9l0-1.5c0-.33,0-.66,0-.93A27,27,0,0,0,33,31.91a.53.53,0,0,1,.2-.59.51.51,0,0,1,.6,0,27.38,27.38,0,0,1,2.94,2.36l.46.43,2.3,2.21a1,1,0,0,0,1.62-.26l1.48-2.83a18.4,18.4,0,0,0,1.06-2.39l.53-1.49a1,1,0,0,0-.27-1.1l-1.16-1.07c-.26-.24-.52-.47-.68-.6a34.4,34.4,0,0,0-5.67-4,.52.52,0,0,1-.27-.56.51.51,0,0,1,.43-.42A18.84,18.84,0,0,1,40,21.37l.67,0,3.43.19a1,1,0,0,0,.86-.39,1,1,0,0,0,.17-.93Zm.44,3.91a.53.53,0,0,1-.45.2l-3.42-.19c-.23,0-.47,0-.69,0a20.68,20.68,0,0,0-3.46.22,1,1,0,0,0-.85.82A1,1,0,0,0,36.18,23a33.8,33.8,0,0,1,5.6,4c.15.12.4.34.65.57l1.16,1.08a.51.51,0,0,1,.14.56l-.53,1.49a18.85,18.85,0,0,1-1,2.33l-1.48,2.82a.54.54,0,0,1-.38.28.5.5,0,0,1-.45-.14l-2.3-2.21-.47-.44a28.39,28.39,0,0,0-3-2.4,1,1,0,0,0-1.56,1.14,26.48,26.48,0,0,1,1,7.17c0,.26,0,.58,0,.91l0,1.49a.53.53,0,0,1-.31.47l-1.36.62a20.35,20.35,0,0,1-2.4.9l-3.27,1a.55.55,0,0,1-.48-.09.51.51,0,0,1-.2-.44l.19-3.42h0c0-.18,0-.35,0-.52V40a20.14,20.14,0,0,0-.2-3.46,1,1,0,0,0-.82-.84l-.19,0a1,1,0,0,0-.9.53,33.12,33.12,0,0,1-4,5.61c-.12.15-.32.39-.53.62L18,43.61a.51.51,0,0,1-.57.14l-1.53-.56a20.61,20.61,0,0,1-2.31-1l-2.83-1.48a.47.47,0,0,1-.27-.38.51.51,0,0,1,.14-.45l2.21-2.3.36-.38.1-.11a29.34,29.34,0,0,0,2.39-3,1,1,0,0,0-1.15-1.56,26.48,26.48,0,0,1-7.17,1H6.44l-1.5,0a.53.53,0,0,1-.47-.31l-.61-1.38A19.15,19.15,0,0,1,3,29.45L2,26.17a.5.5,0,0,1,.08-.47.53.53,0,0,1,.45-.2l3.42.19.63,0H7.1a20.69,20.69,0,0,0,3-.22,1,1,0,0,0,.33-1.91,33.83,33.83,0,0,1-5.59-4l-.63-.55L3,18a.53.53,0,0,1-.14-.58l.57-1.53a18.28,18.28,0,0,1,1-2.33L6,10.71a.56.56,0,0,1,.39-.27.54.54,0,0,1,.45.15l2.28,2.28a4,4,0,0,0,.37.35,29.15,29.15,0,0,0,3,2.45,1,1,0,0,0,1.18,0,1,1,0,0,0,.39-1.13,26.4,26.4,0,0,1-1-7.16c0-.26,0-.59,0-.92l0-1.49a.51.51,0,0,1,.31-.47l1.36-.62A18.18,18.18,0,0,1,17.14,3l3.28-1a.59.59,0,0,1,.48.09.55.55,0,0,1,.2.45l-.2,3.42c0,.18,0,.35,0,.53v.11a19.83,19.83,0,0,0,.21,3.52,1,1,0,0,0,.82.84A1,1,0,0,0,23,10.42a33.28,33.28,0,0,1,4-5.61,7.1,7.1,0,0,1,.62-.69L28.66,3a.51.51,0,0,1,.55-.13l1.41.5a18.65,18.65,0,0,1,2.46,1.1L35.87,6A.52.52,0,0,1,36,6.8L33.72,9.08q-.21.21-.39.42a28.68,28.68,0,0,0-2.42,3,1,1,0,0,0,1.15,1.56,26.48,26.48,0,0,1,7.17-1h.91l1.49,0a.56.56,0,0,1,.47.31l.62,1.36a19.14,19.14,0,0,1,.89,2.39l1,3.28A.52.52,0,0,1,44.53,20.89ZM42.07,17.6a18.78,18.78,0,0,0-.82-2.19l-.34-.74-.81,0h-.86a23.9,23.9,0,0,0-11.67,3.05.52.52,0,0,1-.58-.06.53.53,0,0,1-.16-.59,23.75,23.75,0,0,1,5.28-8.61c.15-.16.3-.33.47-.49l.27-.27A1,1,0,0,0,32.6,6l-.28-.15a17.33,17.33,0,0,0-2.25-1l-.74-.26-.58.61c-.21.21-.41.44-.57.63A28.74,28.74,0,0,0,22.33,16a.53.53,0,0,1-.46.37.51.51,0,0,1-.52-.29,19.13,19.13,0,0,1-2.09-9.48V6.44c0-.19,0-.39,0-.6l0-.4a1,1,0,0,0-.38-.86A1,1,0,0,0,18,4.4l-.38.12a17.1,17.1,0,0,0-2.2.82l-.75.34,0,.81c0,.3,0,.6,0,.86A23.79,23.79,0,0,0,17.69,19a.5.5,0,0,1-.06.57.52.52,0,0,1-.59.17,23.66,23.66,0,0,1-8.62-5.3c-.17-.14-.32-.29-.48-.45l-.27-.26a1,1,0,0,0-.87-.29A1,1,0,0,0,6,14l-.18.33a18,18,0,0,0-1,2.13l-.31.83.67.6.6.53A28.74,28.74,0,0,0,16,24.26a.52.52,0,0,1,.37.46.5.5,0,0,1-.28.51,19.6,19.6,0,0,1-9,2.1H6.51l-.67,0-.4,0a1,1,0,0,0-1,1.32l.12.38a18.77,18.77,0,0,0,.81,2.19l.33.75.83,0h.86A23.87,23.87,0,0,0,19,28.9a.5.5,0,0,1,.57.06.51.51,0,0,1,.17.58,23.38,23.38,0,0,1-5.26,8.59l-.5.54-.26.27a1,1,0,0,0-.27.88,1,1,0,0,0,.54.74l.28.15a20.65,20.65,0,0,0,2.21,1l.79.29.6-.67.52-.6a28.61,28.61,0,0,0,5.85-10.1.52.52,0,0,1,.46-.38.53.53,0,0,1,.52.3A19.07,19.07,0,0,1,27.33,40v.1c0,.21,0,.42,0,.64l0,.4a1,1,0,0,0,.39.87,1,1,0,0,0,.63.22,1,1,0,0,0,.3,0l.38-.12a17.1,17.1,0,0,0,2.2-.82l.75-.34,0-.81v-.85A23.83,23.83,0,0,0,28.9,27.56.5.5,0,0,1,29,27a.55.55,0,0,1,.59-.17,23.75,23.75,0,0,1,8.61,5.28c.18.16.36.32.53.49l.27.26a1,1,0,0,0,.87.27,1,1,0,0,0,.75-.54l.17-.33a17,17,0,0,0,.94-2.12l.29-.82-.63-.58c-.23-.21-.44-.4-.63-.55a28.61,28.61,0,0,0-10.1-5.85.52.52,0,0,1-.38-.47.5.5,0,0,1,.29-.51,19.6,19.6,0,0,1,9-2.1H40l.73,0,.4,0a1,1,0,0,0,1-1.33Zm-.45,1a.5.5,0,0,1-.44.2l-.4,0-.75,0h-.54a20.06,20.06,0,0,0-9.2,2.16,1,1,0,0,0-.56,1,1,1,0,0,0,.73.91,28,28,0,0,1,9.93,5.75l.61.54.39.36-.18.5A16,16,0,0,1,40.3,32l-.18.33a.51.51,0,0,1-.38.28.57.57,0,0,1-.45-.14L39,32.23l-.53-.5a24.21,24.21,0,0,0-8.79-5.38,1,1,0,0,0-1.13.32,1,1,0,0,0-.11,1.14,23.3,23.3,0,0,1,3,11.44v.82l0,.51-.45.21a19.08,19.08,0,0,1-2.14.8l-.39.11a.5.5,0,0,1-.47-.09.49.49,0,0,1-.2-.44l0-.4c0-.22,0-.44,0-.66V40a19.59,19.59,0,0,0-2.15-9.71,1,1,0,0,0-1-.57,1,1,0,0,0-.9.73A27.89,27.89,0,0,1,18,40.39l-.52.59-.36.42-.47-.18a18.86,18.86,0,0,1-2.16-.95l-.28-.15a.54.54,0,0,1-.28-.38.56.56,0,0,1,.14-.45l.26-.27.51-.55a24.08,24.08,0,0,0,5.37-8.77,1.05,1.05,0,0,0-.33-1.13,1,1,0,0,0-1.13-.1,23.39,23.39,0,0,1-11.44,3H6.5l-.51,0L5.79,31A18.42,18.42,0,0,1,5,28.84l-.12-.39A.52.52,0,0,1,5,28a.57.57,0,0,1,.44-.2l.4,0,.69,0h.6a20,20,0,0,0,9.19-2.15,1,1,0,0,0-.16-1.9A28.22,28.22,0,0,1,6.2,18l-.6-.53-.41-.36.19-.52a17.59,17.59,0,0,1,.92-2.06l.18-.34a.53.53,0,0,1,.84-.12l.26.27.51.47a24.14,24.14,0,0,0,8.8,5.4A1.06,1.06,0,0,0,18,19.91a1,1,0,0,0,.1-1.13,23.42,23.42,0,0,1-3-11.44c0-.26,0-.55,0-.83l0-.51.45-.2A15.84,15.84,0,0,1,17.75,5l.39-.12a.52.52,0,0,1,.48.09.5.5,0,0,1,.19.44l0,.4c0,.21,0,.42,0,.62v.14a19.59,19.59,0,0,0,2.15,9.71,1,1,0,0,0,1.9-.15,28,28,0,0,1,5.75-9.94c.16-.19.35-.4.55-.61l.36-.37.43.15a15.73,15.73,0,0,1,2.18,1l.29.15a.53.53,0,0,1,.27.39.54.54,0,0,1-.15.45l-.27.26-.48.52a24.08,24.08,0,0,0-5.39,8.79A1,1,0,0,0,26.68,18a1,1,0,0,0,1.13.1,23.4,23.4,0,0,1,11.45-3h.82l.5,0,.21.45a16.36,16.36,0,0,1,.8,2.14l.12.38A.52.52,0,0,1,41.62,18.61Z"/></g></g></svg>