<svg xmlns="http://www.w3.org/2000/svg" viewBox="0 0 53.08 53.02"><g id="Layer_2" data-name="Layer 2"><g id="Layer_1-2" data-name="Layer 1"><path d="M38.44,43.51c-4.38-5.13,4.15-2.52,7.17-4.58-10,2.5-18.9-8.47-19.08-12.55h0v-.11l0,0C28.32,30,37.28,32.5,41.77,33.94c7.41,2.4-1.93,5.87-7.56-1.45,1.72,2.83,7.38,8.24,14.18,4,5.25-3.26,4.67-14,4.67-14-.32,9.63-3.63,12.84-7.17,11.77C39.44,32.37,48,30,49.45,26.59c-7,7.48-20.49,3.09-22.84-.25h0a.35.35,0,0,1-.05-.08h0c3.48,2.13,12.38-.58,16.93-1.78,7.53-2,1.55,6-7.14,2.86,3,1.45,10.66,3,14.1-4.29,2.64-5.58-3.63-14.27-3.63-14.27,4.95,8.27,3.9,12.76.34,13.78-6.47,1.85-.56-4.83-1.18-8.43C44.14,24.22,30.45,27.8,26.66,26.26h0l-.1,0,0,0c4.07-.08,10.1-7.18,13.28-10.65,5.26-5.75,4.53,4.19-4.47,6.27C38.71,21.43,46,18.53,45,10.59c-.79-6.13-10.76-10-10.76-10C42.83,4.83,44.37,9.17,41.93,12,37.48,17,38.84,8.19,36.38,5.5c3.89,9.51-5.71,19.93-9.72,20.67h0l-.1,0a.08.08,0,0,1,0,0C30,23.88,31.19,14.66,32,10c1.31-7.67,6.08,1.08-.37,7.69,2.56-2.11,7.11-8.48,2-14.6C29.6-1.63,19.09.46,19.09.46,28.67-.6,32.32,2.22,31.77,5.88c-1,6.66-4.63-1.49-8.16-2.43,8.41,5.9,6,19.84,3,22.64h0l-.09.07v0C28.15,22.39,24.2,14,22.36,9.62c-3.05-7.17,5.69-2.38,3.85,6.67,1-3.16,1.4-11-6.25-13.34C14.05,1.12,6.34,8.56,6.34,8.56c7.49-6.07,12.09-5.67,13.6-2.29,2.75,6.14-4.7,1.24-8.17,2.36C22,9.05,27.51,22.09,26.53,26.05h0l0,.1,0,0c-.66-4-8.54-9-12.43-11.63-6.44-4.39,3.5-5.08,6.84,3.53C20,14.83,16.13,8,8.41,10.18,2.46,11.84,0,22.27,0,22.27,3,13.11,7.1,11,10.19,13c5.64,3.69-3.27,3.6-5.59,6.42,8.86-5.21,20.53,2.8,21.84,6.67h0s0,.07,0,.1h0c-2.73-3-12-2.93-16.75-3.06-7.79-.21.2-6.17,7.67-.73C14.9,20.14,8,16.53,2.62,22.51c-4.12,4.61-.55,14.72-.55,14.72-2.41-9.34-.14-13.35,3.56-13.32,6.74.05-.82,4.79-1.24,8.41,4.64-9.16,18.79-8.73,22-6.19h0l.08.07h0c-3.93-1.07-11.71,4-15.74,6.48-6.67,4-3.17-5.3,6.05-4.76-3.27-.55-11.07.18-12.32,8.09-1,6.1,7.5,12.67,7.5,12.67C4.82,42.14,4.57,37.54,7.7,35.56,13.39,32,9.6,40,11.2,43.31c-1-10.21,11.08-17.5,15.15-17.1h.11l0,0c-3.89,1.23-7.67,9.74-9.74,14-3.43,7-5.53-2.75,2.51-7.28-3,1.31-9.21,6.14-6,13.47C15.7,52.07,26.37,53,26.37,53c-9.49-1.68-12.2-5.42-10.64-8.77,2.85-6.11,4,2.73,7.15,4.62-6.41-8-.14-20.72,3.5-22.57h0l.09,0a.08.08,0,0,1,0,0c-2.6,3.13-1.19,12.33-.64,17,.9,7.73-6.14.68-1.82-7.49C22.14,38.57,19.57,46,26.24,50.39c5.15,3.42,14.65-1.55,14.65-1.55-8.9,3.72-13.2,2-13.7-1.63-.9-6.67,4.86.13,8.51,0C26,44,24.38,29.89,26.44,26.36h0l.06-.09s0,0,0,0c-.49,4,5.67,11,8.66,14.66,4.94,6-4.8,3.88-5.58-5.32C29.52,39,31.35,46.58,39.35,46.7c6.19.09,11.48-9.23,11.48-9.23C45.36,45.41,40.84,46.32,38.44,43.51ZM26.57,26.24h0Zm0,0h0Zm0,0,0,0,0,0Zm0,0h0l0,0,0,0Zm-.07-.07,0,0h0Zm0,0h0Zm0,0,0,0h0Zm0,0,0,0h0Zm0-.1h0v0Zm0,.11v0h0A.06.06,0,0,0,26.51,26.29Zm0-.07Zm0,0h0l0,0Z"/></g></g></svg>