<svg xmlns="http://www.w3.org/2000/svg" viewBox="0 0 36.18 63.11"><g id="Layer_2" data-name="Layer 2"><g id="Layer_1-2" data-name="Layer 1"><path d="M26.6,23.06c0-1.84-.63-4.85-1.29-9.58-.64,4.73-1.26,7.74-1.28,9.58a46.53,46.53,0,0,0-5.36.66c.15-6,.24-10.87.25-11.57,1.85,0,4.85-.63,9.58-1.29-4.73-.65-7.73-1.26-9.58-1.28,0-1.85-.63-4.86-1.28-9.58C17,4.72,16.38,7.73,16.35,9.58c-1.84,0-4.85.63-9.57,1.28,4.72.66,7.73,1.27,9.57,1.29,0,.69.1,5.47.25,11.43a35,35,0,0,0-4.45-.52c0-1.84-.64-4.85-1.29-9.58-.65,4.73-1.26,7.74-1.29,9.58-1.84,0-4.85.63-9.57,1.29,4.72.65,7.73,1.26,9.57,1.28,0,1.85.64,32.76,1.29,37.48.65-4.72,1.26-35.63,1.29-37.48a36.07,36.07,0,0,0,4.49-.52c.24,9.7.61,21.72,1,24.52.39-2.82.76-14.94,1-24.66a44.7,44.7,0,0,0,5.39.66c0,1.85.64,32.76,1.28,37.48.66-4.72,1.27-35.63,1.29-37.48,1.84,0,4.85-.63,9.58-1.28C31.45,23.69,28.44,23.08,26.6,23.06Z"/></g></g></svg>