<svg xmlns="http://www.w3.org/2000/svg" viewBox="0 0 53.95 47.83"><g id="Layer_2" data-name="Layer 2"><g id="Layer_1-2" data-name="Layer 1"><path d="M45.15,40.51a10.08,10.08,0,0,0,.65-1.18c1.17-2.49,1-4.76-.14-7.59-1-2.48-2.5-6-2.84-6.8a11.33,11.33,0,0,1-1.94,11.28,12.25,12.25,0,0,0-1.34,0c-2.74.23-4.65,1.48-6.51,3.92L28.59,46A11.34,11.34,0,0,1,39.3,42.06a10.11,10.11,0,0,0,.7,1.15c1.57,2.26,3.6,3.29,6.65,3.68l7.3.94A11.35,11.35,0,0,1,45.15,40.51ZM14.41,36.25a12.25,12.25,0,0,0-1.34,0,11.32,11.32,0,0,1-1.93-11.28c-.35.83-1.81,4.32-2.84,6.8-1.19,2.83-1.31,5.1-.14,7.59a10.06,10.06,0,0,0,.64,1.18A11.34,11.34,0,0,1,0,47.83l7.31-.94c3-.39,5.07-1.42,6.64-3.68a10.11,10.11,0,0,0,.7-1.15A11.37,11.37,0,0,1,25.37,46l-4.45-5.83C19.06,37.73,17.16,36.48,14.41,36.25ZM42.72,19.69C28.63,18.55,27.89,17.63,27,0c-.92,17.63-1.65,18.55-15.74,19.69C25.33,20.84,26.06,21.76,27,39.39,27.89,21.76,28.63,20.84,42.72,19.69Z"/></g></g></svg>