<svg xmlns="http://www.w3.org/2000/svg" viewBox="0 0 65.17 33.22"><g id="Layer_2" data-name="Layer 2"><g id="Layer_1-2" data-name="Layer 1"><path d="M37.18,0,37.1.09,37.19,0ZM63,8.47A16.58,16.58,0,0,0,49,.14h-.34a16.53,16.53,0,0,0-8,2.08,16.43,16.43,0,0,0-7.21-2c-.16,0-.31-.05-.47-.06s-.44,0-.67,0L31.78.2a16.47,16.47,0,0,0-7.22,2,16.5,16.5,0,0,0-8-2.08h-.37a16.53,16.53,0,0,0,0,33.06h.37a16.5,16.5,0,0,0,8-2.08,16.53,16.53,0,0,0,7.66,2.07h.37a16.46,16.46,0,0,0,8-2.08,16.54,16.54,0,0,0,8,2.08H49A16.53,16.53,0,0,0,63,8.47ZM12.79,1.61a14,14,0,0,0-4,6.6H3.51A15.6,15.6,0,0,1,12.79,1.61ZM2.92,9.21H8.5a28.6,28.6,0,0,0-1,7H1A15.47,15.47,0,0,1,2.92,9.21Zm-1.9,8H7.54a28.6,28.6,0,0,0,1,7H2.92A15.47,15.47,0,0,1,1,17.18Zm2.49,8H8.78a14,14,0,0,0,4,6.6A15.6,15.6,0,0,1,3.51,25.15Zm12.53,7c-2.49-.31-4.82-3-6.2-7H16Zm0-8H9.52a27.47,27.47,0,0,1-1-7H16Zm0-8H8.54a27.47,27.47,0,0,1,1-7H16Zm0-8H9.84c1.38-4.08,3.71-6.73,6.2-7Zm8.77-5a15.4,15.4,0,0,1,4-1.62,14.06,14.06,0,0,0-4,6.61H19.56a15.6,15.6,0,0,1,2.88-3.3A14.94,14.94,0,0,1,24.81,3.22Zm-.74,7.92h0a29.69,29.69,0,0,0-.5,5H17.06a15.6,15.6,0,0,1,1.9-7h5.57C24.35,9.85,24.19,10.49,24.07,11.14Zm.46,13H19a15.6,15.6,0,0,1-1.9-7h6.51a29.69,29.69,0,0,0,.5,5C24.19,22.87,24.35,23.51,24.53,24.15Zm-1-21.33a15.28,15.28,0,0,0-1.36,1,9.94,9.94,0,0,0-2-2.21A15.75,15.75,0,0,1,23.58,2.82ZM17,1.17c1.6.17,3.14,1.35,4.42,3.29a16.35,16.35,0,0,0-3.08,3.75H17Zm0,8h.79A17.24,17.24,0,0,0,17,11Zm0,13.12a17.24,17.24,0,0,0,.79,1.82H17Zm0,9.85v-7h1.34a16.35,16.35,0,0,0,3.08,3.75C20.18,30.84,18.64,32,17,32.18Zm3.22-.41a10.23,10.23,0,0,0,2-2.22,15.28,15.28,0,0,0,1.36,1A16.57,16.57,0,0,1,20.26,31.77Zm4.55-1.63a15.5,15.5,0,0,1-2.38-1.69,15.84,15.84,0,0,1-2.87-3.3h5.26a14.23,14.23,0,0,0,4,6.58A15.2,15.2,0,0,1,24.81,30.14Zm7.28,2H31.9c-2.42-.41-4.67-3-6-7h6.22Zm0-8H25.56c-.2-.7-.37-1.41-.51-2.12a28.47,28.47,0,0,1-.49-4.85h7.53Zm0-8H24.56a28.47,28.47,0,0,1,.49-4.85l-.49-.09.49.09c.14-.71.31-1.42.51-2.12h6.53Zm0-8H25.87c1.39-4.08,3.72-6.73,6.22-7ZM44.91,1.59a10.23,10.23,0,0,0-2,2.22,14.27,14.27,0,0,0-1.36-1A16.35,16.35,0,0,1,44.91,1.59ZM40.36,3.22a15.12,15.12,0,0,1,2.37,1.69,15.35,15.35,0,0,1,2.88,3.3H40.34a14.13,14.13,0,0,0-4-6.61A15.54,15.54,0,0,1,40.36,3.22Zm1.24,13a29.69,29.69,0,0,0-.5-5c-.13-.64-.29-1.29-.46-1.93h5.57a15.6,15.6,0,0,1,1.9,7Zm6.51,1a15.6,15.6,0,0,1-1.9,7H40.64c.18-.64.33-1.29.46-1.93a29.69,29.69,0,0,0,.5-5Zm-15-16c2.49.31,4.82,3,6.2,7h-6.2Zm0,8H39.6c.2.7.38,1.41.51,2.12a28.47,28.47,0,0,1,.49,4.85H33.09Zm0,8H40.6A28.47,28.47,0,0,1,40.11,22c-.13.71-.31,1.42-.51,2.12H33.09Zm.19,15h-.19v-7h6.2a16.58,16.58,0,0,1-1.57,3.42C36.46,30.63,34.9,31.88,33.28,32.16Zm7.07-2a14.92,14.92,0,0,1-4,1.59,10.58,10.58,0,0,0,2.23-2.64,17.6,17.6,0,0,0,1.77-3.94h5.27a15.35,15.35,0,0,1-2.88,3.3A14.32,14.32,0,0,1,40.35,30.14Zm1.24.4a14.27,14.27,0,0,0,1.36-1,10.23,10.23,0,0,0,2,2.22A16.35,16.35,0,0,1,41.59,30.54Zm6.54,1.64a6.66,6.66,0,0,1-4.42-3.28,16.35,16.35,0,0,0,3.08-3.75h1.34Zm0-8h-.79a17.24,17.24,0,0,0,.79-1.82Zm0-13.12a17.24,17.24,0,0,0-.79-1.82h.79Zm0-2.82H46.79a16.62,16.62,0,0,0-3.08-3.75C45,2.52,46.53,1.38,48.13,1.18Zm16,8H57.63a28.46,28.46,0,0,0-1-7h5.58A15.6,15.6,0,0,1,64.15,16.18Zm-2.5-8H56.39a14.23,14.23,0,0,0-4-6.6A15.64,15.64,0,0,1,61.65,8.21Zm-12.52-7c2.49.32,4.82,3,6.2,7h-6.2Zm0,8h6.51a27.34,27.34,0,0,1,1,7h-7.5Zm0,8h7.5a27.34,27.34,0,0,1-1,7H49.13Zm0,8h6.2c-1.38,4.07-3.71,6.71-6.2,7Zm3.26,6.59a14.11,14.11,0,0,0,4-6.59h5.26A15.59,15.59,0,0,1,52.39,31.74Zm9.86-7.59H56.67a28.46,28.46,0,0,0,1-7h6.52A15.6,15.6,0,0,1,62.25,24.15Z"/></g></g></svg>