<svg xmlns="http://www.w3.org/2000/svg" viewBox="0 0 73.02 73.03"><g id="Layer_2" data-name="Layer 2"><g id="Layer_1-2" data-name="Layer 1"><path d="M33,38c-3.26-2.07-4.93-8.14-.65-12.42,4.45-4.45,8.93-3.89,12.34-2.53-2.28-1.3-1.07-2.52,3.23-5.65,2.52-1.82,6.33-5.73,8.45-12.71,0,0-2.58,8.26-12.67,14-9.57,5.21-3.38-4.18-3.38-4.18S19.46,30.91,33,38Zm2.1,2.06c-3.77.85-9.25-2.27-9.25-8.32,0-6.29,3.57-9.07,6.94-10.51-2.53.69-2.54-1-1.7-6.28.48-3.07.42-8.53-3-15,0,0,4,7.66.92,18.83-3.08,10.46-5.35-.56-5.35-.56S20.5,44.61,35.07,40.07ZM54.76,23.61S28.42,20.5,33,35.07c-.85-3.77,2.27-9.25,8.32-9.25,6.3,0,9.07,3.57,10.52,6.94-.7-2.53,1-2.54,6.27-1.7,3.07.48,8.53.42,15-3,0,0-7.65,4-18.83.92C43.74,25.88,54.76,23.61,54.76,23.61ZM18.67,29.35c5.21,9.57-4.18,3.38-4.18,3.38S30.91,53.56,38,40.05c-2.07,3.27-8.14,4.93-12.42.66-4.45-4.46-3.89-8.94-2.53-12.35-1.3,2.29-2.52,1.08-5.65-3.23-1.82-2.51-5.73-6.33-12.71-8.44C4.7,16.69,13,19.26,18.67,29.35ZM38,33c3.77-.85,9.24,2.27,9.24,8.32,0,6.3-3.56,9.07-6.94,10.52,2.54-.7,2.54,1,1.71,6.28-.49,3.06-.42,8.52,3,15,0,0-4-7.66-.93-18.84,3.09-10.45,5.35.57,5.35.57S52.53,28.42,38,33ZM54.35,43.67c-5.21-9.57,4.19-3.38,4.19-3.38S42.11,19.46,35,33c2.06-3.26,8.14-4.93,12.42-.65,4.45,4.45,3.89,8.93,2.52,12.34,1.31-2.28,2.53-1.07,5.65,3.23,1.83,2.52,5.73,6.33,12.71,8.45C68.32,56.34,60.07,53.76,54.35,43.67ZM18.27,49.41S44.61,52.53,40.07,38c.85,3.76-2.27,9.24-8.32,9.24-6.29,0-9.07-3.56-10.51-6.94.69,2.54-1,2.54-6.28,1.71-3.07-.49-8.53-.42-15,3,0,0,7.66-4,18.83-.93C29.29,47.15,18.27,49.41,18.27,49.41ZM40.05,35c3.27,2.06,4.94,8.14.66,12.42-4.45,4.45-8.94,3.89-12.35,2.52,2.29,1.31,1.08,2.53-3.23,5.65-2.51,1.83-6.33,5.73-8.44,12.71,0,0,2.57-8.25,12.66-14,9.57-5.21,3.38,4.19,3.38,4.19S53.56,42.11,40.05,35Z"/></g></g></svg>