<svg xmlns="http://www.w3.org/2000/svg" viewBox="0 0 63.52 53.96"><g id="Layer_2" data-name="Layer 2"><g id="Layer_1-2" data-name="Layer 1"><path d="M42.18,5.64A21,21,0,0,0,32.26,8.1c-.19-2.37-.34-5-.5-8.1-.16,3.05-.31,5.73-.5,8.1a21,21,0,0,0-9.92-2.46,21.34,21.34,0,0,0,0,42.68,21,21,0,0,0,9.92-2.46c.19,2.37.34,5,.5,8.1.16-3.05.31-5.73.5-8.1a21,21,0,0,0,9.92,2.46,21.34,21.34,0,1,0,0-42.68ZM21.34,47.32a20.34,20.34,0,0,1,0-40.68A20.09,20.09,0,0,1,30.76,9a21.27,21.27,0,0,0-9.87,16.68A81,81,0,0,1,10.2,27a82.72,82.72,0,0,1,10.69,1.33A21.27,21.27,0,0,0,30.76,45,20.09,20.09,0,0,1,21.34,47.32Zm.57-18.76C28.28,30.29,30.15,34,31.1,44A20.29,20.29,0,0,1,21.91,28.56Zm0-3.16A20.31,20.31,0,0,1,31.1,9.93C30.15,20,28.28,23.68,21.91,25.4Zm19.7,3.16A20.29,20.29,0,0,1,32.42,44C33.37,33.94,35.24,30.29,41.61,28.56ZM32.42,9.94A20.29,20.29,0,0,1,41.61,25.4C35.24,23.68,33.37,20,32.42,9.94Zm9.76,37.38A20.2,20.2,0,0,1,32.76,45a21.3,21.3,0,0,0,9.87-16.69A82.72,82.72,0,0,1,53.32,27a81,81,0,0,1-10.69-1.33A21.3,21.3,0,0,0,32.76,9a20.34,20.34,0,1,1,9.42,38.36Z"/></g></g></svg>