<svg xmlns="http://www.w3.org/2000/svg" viewBox="0 0 46.74 46.48"><g id="Layer_2" data-name="Layer 2"><g id="Layer_1-2" data-name="Layer 1"><path d="M38.85,34l.26-.22,2.5-2a.4.4,0,0,0,.14-.45l-.81-3c0-.14-.08-.29-.12-.42s-.07-.11-.16-.05l0,0-1.36,1.06-1.13.88a.54.54,0,0,0-.22.46,1.25,1.25,0,0,0,0,.15l.27,1.32.45,2.17C38.68,34,38.73,34,38.85,34Zm-4.58,2.16c0,.19.11.23.28.14l2.73-1.38.7-.36a.37.37,0,0,0,.2-.43l-.75-3.6c0-.16-.1-.2-.25-.13l-1,.46-1.34.66L34,31.9a.47.47,0,0,0-.27.39c0,.07,0,.11,0,.15,0,.4.11.79.16,1.19C34,34.46,34.16,35.29,34.27,36.12Zm.14,3.54c0,.16,0,.32,0,.48a.31.31,0,0,0,.32-.07c.7-.36,1.4-.74,2.1-1.11.45-.23.9-.46,1.34-.7a.42.42,0,0,0,.24-.4c0-.19,0-.39,0-.58l-.09-2c0-.12,0-.25,0-.4l-.52.27-3.13,1.6a.48.48,0,0,0-.29.48c0,.45,0,.9,0,1.34S34.41,39.3,34.41,39.66Zm-.5.26c0-.74,0-1.49,0-2.24,0-.18,0-.36,0-.56a1.08,1.08,0,0,0-.19,0l-.38.1L30.64,38l-1.05.29a.38.38,0,0,0-.32.42c0,.56,0,1.11,0,1.66v1.18c0,.16.09.22.24.19l.07,0,3.69-1.08.4-.13a.32.32,0,0,0,.24-.34C33.93,40.09,33.91,40,33.91,39.92ZM29.36,44.4l2.69-.8,1.23-.37a.37.37,0,0,0,.31-.35c0-.43.13-.86.2-1.28,0-.22.06-.44.1-.68l-.19,0-2.07.61-2.16.63a.28.28,0,0,0-.22.26c0,.41-.08.81-.12,1.22l-.06.72A.41.41,0,0,0,29.36,44.4Zm9.52-7c0,.12,0,.24,0,.39l.15-.11,1.45-1.22,1.35-1.14a.51.51,0,0,0,.2-.38c0-.11,0-.23,0-.35,0-.59-.07-1.18-.1-1.77,0-.24,0-.48,0-.75a.61.61,0,0,1-.12.09c-.92.76-1.84,1.52-2.77,2.27a.5.5,0,0,0-.21.45l0,.9Zm3.31-27.14c.12.33.26.65.36,1a2.42,2.42,0,0,0,.51.88c.36.41.7.84,1,1.26.1.11.2.23.29.35h0a.16.16,0,0,0,0-.1c-.2-.54-.41-1.07-.62-1.6a1.62,1.62,0,0,0-.25-.39l-1-1.16-.34-.36A.37.37,0,0,0,42.19,10.25Zm.64,2.16c0,.08,0,.14,0,.19L43,14.3a.68.68,0,0,0,.14.31l.15.18L44.92,17l.13.15a.63.63,0,0,0,0-.14c-.07-.68-.16-1.35-.23-2a.73.73,0,0,0-.17-.38l-1.71-2.06Zm-.49,18.53,1.88-2.45a.55.55,0,0,0,.09-.55l-1-2.93a1.72,1.72,0,0,0-.07-.21h0l-.05.07-1.77,2.19a.69.69,0,0,0-.14.67l.78,2.89c0,.15.09.31.14.49A1.58,1.58,0,0,0,42.34,30.94Zm2.08-10.06-.23-.34-1.76-2.67a.57.57,0,0,0-.11-.11l-.1.19c-.29.58-.57,1.17-.87,1.75a.54.54,0,0,0,0,.56l1.77,3.2.19.32a.58.58,0,0,1,.05-.09c.36-.79.72-1.57,1.07-2.36A.45.45,0,0,0,44.42,20.88ZM29.1,35.49c0,.7.09,1.4.14,2.11,0,.12.05.18.17.19a.4.4,0,0,0,.19,0L32.54,37l1-.28a.31.31,0,0,0,.25-.38c0-.2,0-.39-.07-.58-.15-1.07-.31-2.14-.46-3.21,0-.18-.11-.24-.29-.19l-3.61,1c-.19,0-.39.23-.34.43s0,.25,0,.36ZM26,3.92l.93-.48v0s-.08-.07-.12-.07-.19,0-.25,0c-.23.16-.44.35-.68.55C25.89,3.91,25.93,3.93,26,3.92Zm1.69-2.65a.32.32,0,0,0-.34.1,3,3,0,0,1-.25.25l-1,.93a.62.62,0,0,0,.73.05l1.54-.81.3-.17v0ZM42.3,9.72a4.09,4.09,0,0,0-.8-1A3.62,3.62,0,0,0,42.3,9.72ZM25.63,3.06a6.65,6.65,0,0,0-.42.58.19.19,0,0,0,.23,0L26,3.14s0-.06.06-.08A.28.28,0,0,0,25.63,3.06ZM29,1.92l-1.55.82L27.06,3a.63.63,0,0,0,.69.11c.67-.21,1.35-.4,2-.6l.46-.13v0c-.3-.14-.6-.29-.9-.42A.36.36,0,0,0,29,1.92Zm1.52.76c-.58.19-1.17.36-1.75.53l-.87.27a.53.53,0,0,0,.45.19l.84-.11,2-.26.43-.06v0c-.23-.16-.46-.33-.69-.48A.51.51,0,0,0,30.54,2.68ZM24,3.38q.11-.29.18-.54c.05-.13,0-.18-.11-.22s-.29,0-.29.14,0,.41,0,.62Zm0,39h.14l.63-.07,1.5-.14L28,42l.52-.06c.23,0,.28-.11.28-.33,0-1,0-1.91,0-2.87v0c0-.16,0-.2-.18-.2h-.34l-.94.1-1,.08-1.49.14-.71.07a.26.26,0,0,0-.26.29v1.46h0v1.48C23.8,42.27,23.84,42.32,24,42.34Zm5-9.63a.31.31,0,0,0,.28,0l3.46-.94a.34.34,0,0,0,.27-.46c0-.25-.11-.49-.17-.74-.27-1.2-.54-2.41-.82-3.62,0-.24-.17-.3-.41-.24l-1.5.38-1.44.37a.37.37,0,0,0-.29.4c.06.54.12,1.11.19,1.68.11,1,.22,2,.32,3A.23.23,0,0,0,29,32.71ZM24.7,2.86c-.06.19-.12.39-.19.59a.16.16,0,0,0,.24-.05L25,3.08l.17-.26L25,2.74A.27.27,0,0,0,24.7,2.86Zm.37-2A3.54,3.54,0,0,0,23.69.77c0,.47,0,.94,0,1.42l.48,0a.23.23,0,0,0,.26-.15c.17-.37.35-.73.53-1.09Zm-.28,7.41-.18,0a.41.41,0,0,0,0,.09c.07.29.16.57.23.85a.3.3,0,0,0,.34.24c.16,0,.22-.1.14-.24s-.28-.5-.43-.75ZM37.43,5.33l1.39.76.27.14a.08.08,0,0,0,0-.06l-1-.93a1.05,1.05,0,0,0-.27-.2L37,4.62l-.55-.26,0,0,.81.81A1,1,0,0,0,37.43,5.33ZM22.5,3.46c-.07-.19-.13-.37-.2-.55s-.27-.25-.46-.06l.44.57C22.33,3.49,22.4,3.49,22.5,3.46Zm-13.25,11c.11.19.22.38.34.57s.14.14.25.06l0,0,1.75-1.66c.56-.53,1.13-1.07,1.68-1.61a.72.72,0,0,0,.16-.25.2.2,0,0,0,0-.13L13,10.71a.15.15,0,0,0-.2-.07.61.61,0,0,0-.18.09L10,12.66l-1,.72a.49.49,0,0,0-.2.31l.07.16C9,14,9.13,14.24,9.25,14.44Zm3.22-4.19a.35.35,0,0,0,.16-.33c-.06-.23-.14-.45-.22-.67a.14.14,0,0,0-.18-.1l-.13.06L10,10.4l-1.56.89c-.26.15-.33.29-.24.56s.1.38.15.56l.19.7L8.75,13l3.42-2.53A3.3,3.3,0,0,0,12.47,10.25Zm.93,21.93a.56.56,0,0,0-.32-.32l-3-1.47-.13-.05a.14.14,0,0,0-.19.09.74.74,0,0,0,0,.14c-.26,1.17-.53,2.35-.8,3.52a.35.35,0,0,0,.2.42l3.46,1.75c.19.09.26.05.29-.16.18-1.1.35-2.21.52-3.32,0-.17.05-.33.07-.51A.29.29,0,0,0,13.4,32.18ZM21.86,9.43a.31.31,0,0,0,.4-.15c.09-.33.18-.66.27-1l-.19,0-.54,1A.13.13,0,0,0,21.86,9.43Zm-3.19-1.8a.35.35,0,0,0,.37,0l1.07-.57L20.19,7c-.05,0-.08,0-.1,0l-1.28.46A.18.18,0,0,0,18.67,7.63Zm-1,34.62a.44.44,0,0,0-.16-.06l-4-1.17-.39-.11a.56.56,0,0,0,0,.13l.06.52c.05.44.11.88.15,1.33a.35.35,0,0,0,.27.33l.14,0,1,.31,2.81.84a.41.41,0,0,0,.29,0q0-.22,0-.42l-.09-1.57A.18.18,0,0,0,17.66,42.25Zm-1-28.93a1,1,0,0,0,.16.06.4.4,0,0,0,.34-.2l2.07-2.91c.18-.26.36-.51.53-.77a.2.2,0,0,0-.08-.33.42.42,0,0,0-.49.12L16,12.48l-.1.1a.21.21,0,0,0,.06.31Zm-3-1.18L12,13.72l-.9.85-.84.8a.36.36,0,0,0-.13.31.8.8,0,0,0,.08.12c.36.38.72.75,1.09,1.12a.2.2,0,0,0,.32,0,.58.58,0,0,0,.1-.12l1.88-2.35,1.1-1.38c.14-.17.12-.29,0-.44l-.51-.48A.3.3,0,0,0,13.65,12.14Zm4.9-5.36a.31.31,0,0,0-.26.22.56.56,0,0,0,.34,0l1.06-.37.19-.08a.69.69,0,0,0-.25,0Zm-3.09,5.45.07-.08L18,9.73c.13-.14.28-.27.41-.41l.43-.42a.19.19,0,0,0,.06-.22.2.2,0,0,0-.2-.14h-.06a.39.39,0,0,0-.27.1l-3.41,2.47-.39.28a.23.23,0,0,0-.05.35l.53.49A.32.32,0,0,0,15.46,12.23ZM29.86,1.71l.07,0c.25.12.49.25.75.36a.64.64,0,0,0,.28.07l1.28,0h.51v0l-.85-.41-.49-.22a.44.44,0,0,0-.22-.05l-1.3.18S29.87,1.69,29.86,1.71Zm1.61.86v0l.74.53a.45.45,0,0,0,.18.07l1,.11,1,.13.45.05c-.37-.3-.76-.57-1.15-.83a.66.66,0,0,0-.37-.09H31.47ZM20.59,7.44v0s-.09,0-.12,0L19.34,8a.2.2,0,0,0-.12.21.42.42,0,0,0,.44-.05l.88-.67Zm-3,30.87-.15-.05L13.5,37.15l-.14,0c-.07,0-.11,0-.11.1s0,.44,0,.66l-.06,1.22-.06,1.11a.26.26,0,0,0,.12.23.82.82,0,0,0,.19.09l3.49,1,.59.17c.18.05.26,0,.27-.18s0-.42,0-.64l.06-2.14h0v-.11A.32.32,0,0,0,17.6,38.31ZM31.87,3.64l-1.08.14L29,4l-.43.07a.52.52,0,0,0,.46.24h3.75l0-.05c-.16-.14-.33-.28-.48-.44A.54.54,0,0,0,31.87,3.64Zm5.9,2.27,0,0c.2.29.4.59.59.89a1.21,1.21,0,0,0,.45.45l2.12,1.33.13.06c-.33-.5-.64-1-1-1.41A1,1,0,0,0,39.76,7c-.43-.25-.87-.48-1.31-.72Zm1,1.81,0,0,.06.18c.12.34.24.68.35,1a.66.66,0,0,0,.24.33L41.79,11l.37.26a.39.39,0,0,1,0-.09l-.6-1.58a.64.64,0,0,0-.28-.33L39.42,8.11ZM25.53,1c-.14.31-.29.63-.44.94l-.16.36.37.08a.35.35,0,0,0,.35-.1l.83-.76c.14-.13.27-.27.42-.42l-.14-.05L26,.92l-.31,0C25.62.87,25.57.92,25.53,1ZM23,15.57l-1.13-.08a.38.38,0,0,0-.44.35l-.72,4c-.05.25-.09.49-.14.74a.28.28,0,0,0,.23.35l.49,0,.58,0,1.14.1a.31.31,0,0,0,.24-.1.33.33,0,0,0,.09-.27v-2.4h0c0-.8,0-1.6,0-2.4A.38.38,0,0,0,23,15.57ZM28,1l1,.35a.59.59,0,0,0,.23,0l.64-.08.57-.08-.11-.05L29,.73a.83.83,0,0,0-.22,0,1.42,1.42,0,0,0-.22.07L28,1ZM27.36.79l.73-.25v0L26.47.21a.46.46,0,0,0-.26,0,3,3,0,0,0-.32.31L27.2.79A.29.29,0,0,0,27.36.79Zm7.73,2.45a4.21,4.21,0,0,0,1.13.65A3.09,3.09,0,0,0,35.09,3.24ZM26.94,7s0,0,0,0l1.12.58a.3.3,0,0,0,.33,0c-.05-.15-.06-.17-.21-.22l-1-.36L27,7Zm.73,13.73,2-.47a.3.3,0,0,0,.24-.31,1,1,0,0,0,0-.11c-.57-1.5-1.14-3-1.7-4.51a.39.39,0,0,0-.49-.26c-.35.08-.69.17-1,.24a.32.32,0,0,0-.27.27.82.82,0,0,0,0,.22c.29,1.56.59,3.11.88,4.67A.32.32,0,0,0,27.67,20.73Zm1.68-10.1L28,9.27a.43.43,0,0,0-.32-.14.29.29,0,0,0-.26.15c-.06.1,0,.18.05.26L29.21,12l.88,1.22a.35.35,0,0,0,.49.1l.67-.42a.21.21,0,0,0,.06-.33.94.94,0,0,1-.1-.1ZM32.41,13a.75.75,0,0,0,.09.15l2.77,3.47a3.92,3.92,0,0,1,.25.32.21.21,0,0,0,.35,0l.66-.68.38-.39.1-.16a.42.42,0,0,0-.12-.31l-1.63-1.54L34,12.59l-.51-.47a.27.27,0,0,0-.38,0c-.21.2-.41.4-.63.59A.23.23,0,0,0,32.41,13Zm.11-1.63L30.44,9.83,28.78,8.64a.39.39,0,0,0-.26-.1.25.25,0,0,0-.27.14.21.21,0,0,0,.09.24l.74.72L30.43,11l1.22,1.2a.27.27,0,0,0,.08.07.28.28,0,0,0,.4,0l.5-.47a.15.15,0,0,0,.06-.15A.29.29,0,0,0,32.52,11.34Zm-4-4.56-1-.21-.32-.06s0,0,0,0L28.52,7a.31.31,0,0,0,.28,0A.31.31,0,0,0,28.54,6.78Zm-1.93.62a.37.37,0,0,0-.11,0c.33.24.64.47.94.71a.52.52,0,0,0,.45.09c0-.13,0-.19-.13-.24l-1-.55Zm7.75,13.45c.36.81.73,1.62,1.1,2.42.11.24.21.47.33.7a.19.19,0,0,0,.31.09l2-1.48a.35.35,0,0,0,.15-.29,2.14,2.14,0,0,0-.1-.22l-2.06-3.32c-.12-.2-.24-.4-.37-.6a.26.26,0,0,0-.38-.08l-1.53,1a.35.35,0,0,0-.12.19.33.33,0,0,0,0,.3C34,20,34.16,20.43,34.36,20.85ZM33.22,18.5a.25.25,0,0,0,.37.08l1.46-1a.64.64,0,0,0,.14-.2,2.6,2.6,0,0,0-.13-.24L32.6,14.08l-.51-.65a.35.35,0,0,0-.44-.12l-.83.53a.24.24,0,0,0-.11.32l.06.1c.77,1.33,1.53,2.66,2.3,4ZM26.46,9.66a.22.22,0,0,0-.11.31l.31.69c.29.62.57,1.24.86,1.85L28.21,14a.34.34,0,0,0,.44.18l.89-.34c.1,0,.13-.11.13-.24a.56.56,0,0,0-.08-.15l-2.26-3.17L27,9.78A.4.4,0,0,0,26.46,9.66Zm4.39,10.2,1.73-.73c.14-.05.16-.16.19-.29l-.08-.16L31,15.75l-.72-1.24a.36.36,0,0,0-.48-.17l-.95.38a.29.29,0,0,0-.18.37,1,1,0,0,1,0,.1c.08.21.16.43.25.65l1.44,3.82A.29.29,0,0,0,30.85,19.86ZM27,22.61c0-.26-.07-.51-.11-.77a.4.4,0,0,0-.33-.34h0l-1,.08-1.2.09a.5.5,0,0,0-.26.08.35.35,0,0,0-.15.35c0,1.07,0,2.15,0,3.22V27a.31.31,0,0,0,.35.33l1.43-.13,1.12-.08a5.7,5.7,0,0,0,.58-.06.29.29,0,0,0,.23-.34c-.05-.39-.11-.78-.17-1.18Zm16.06-7.45L42.94,15c-.06.34-.11.64-.17.94s-.13.71-.19,1.06a.54.54,0,0,0,.1.46c.48.72,1,1.44,1.42,2.17.19.28.38.56.56.85h0l0-.17c.11-.71.22-1.42.34-2.13a.67.67,0,0,0-.13-.53ZM39,13.25a.47.47,0,0,0,.13.42l.44.46,1,1.06L42,16.68l.11.1c0-.07,0-.12,0-.17.1-.57.2-1.14.32-1.7a.52.52,0,0,0-.19-.55L39.5,11.94l-.15-.09s-.05.05-.05.07C39.19,12.36,39.08,12.81,39,13.25Zm6.5,4.37a1.46,1.46,0,0,0,.07.3l.7,1.74a1.42,1.42,0,0,0,.08.18h0a.86.86,0,0,0,0-.16c-.05-.43-.1-.87-.17-1.31a3.62,3.62,0,0,0-.16-.86c-.22-.51-.44-1-.65-1.54l0-.07a3.08,3.08,0,0,0,0,.53C45.39,16.83,45.43,17.22,45.48,17.62Zm-.35,3.76c.31.81.6,1.63.91,2.45a1.18,1.18,0,0,0,.06.13c0-.12,0-.19,0-.27.1-.74.2-1.48.31-2.23a1.13,1.13,0,0,0-.07-.57l-.63-1.56c-.1-.26-.21-.51-.31-.76h0a.5.5,0,0,0,0,.12c-.11.69-.2,1.37-.32,2A1.16,1.16,0,0,0,45.13,21.38Zm-5.39-9.8h0l2.46,2.13.35.29a1.87,1.87,0,0,1,0-.21c0-.52-.11-1-.15-1.57a.61.61,0,0,0-.27-.5L39.61,9.9l-.28-.19a.51.51,0,0,0,0,.1c0,.37,0,.73,0,1.09A.73.73,0,0,0,39.74,11.58Zm-.8,10.27c.5-.56,1-1.13,1.49-1.7a1.86,1.86,0,0,0,.1-.2,1.57,1.57,0,0,0-.12-.26l-2.28-2.88c-.15-.2-.31-.39-.46-.58a.22.22,0,0,0-.36,0l-1.09,1.15a.33.33,0,0,0-.09.34.48.48,0,0,0,.09.19c.32.53.65,1.06,1,1.59.48.78,1,1.56,1.45,2.35C38.75,22,38.82,22,38.94,21.85Zm-15,9.71c0,.47,0,.95,0,1.43a.27.27,0,0,0,.31.29l.72-.05,1.47-.13L28,33a.31.31,0,0,0,.27-.37c0-.23,0-.46-.07-.7L28,29.81,27.79,28a.29.29,0,0,0-.35-.28h-.19l-1.72.14-1.21.1a.38.38,0,0,0-.41.43v2.28h0Zm0-11.47c0,.22,0,.44,0,.65s.12.37.35.35.46,0,.68-.06l1.44-.1a.29.29,0,0,0,.28-.36c0-.27-.1-.53-.15-.8-.12-.67-.24-1.34-.37-2s-.24-1.31-.37-2a.35.35,0,0,0-.4-.32l-1.09.08a.36.36,0,0,0-.39.41v2.37h0Zm10.15-9.34-.34.54a.28.28,0,0,0,0,.43l.61.59L36.18,14l1.06,1a1.08,1.08,0,0,0,.18.11l.06-.06.72-1.27a.3.3,0,0,0-.08-.38l-.1-.08-3.46-2.57-.16-.11A.22.22,0,0,0,34.07,10.75Zm2,.57L38.29,13l.19.11s0,0,0,0c.11-.45.22-.9.32-1.35a.28.28,0,0,0,0-.21.74.74,0,0,0-.21-.18c-1-.58-2-1.15-3-1.72L35,9.2c-.18-.1-.25-.07-.31.13s-.1.34-.16.51a.31.31,0,0,0,.05.31.8.8,0,0,0,.17.15Zm2.61,2.73c-.25.45-.51.9-.75,1.35a.45.45,0,0,0,0,.26.47.47,0,0,0,.11.21c.92,1.17,1.84,2.33,2.75,3.5l.12.12.1-.15.89-1.78a.39.39,0,0,0-.08-.48l-.57-.6c-.55-.55-1.1-1.11-1.64-1.67-.22-.23-.45-.45-.66-.69A.24.24,0,0,0,38.68,14.05Zm-10-7.92-.63,0-.7,0,0,0,1.35.28a.26.26,0,0,0,.24,0A.33.33,0,0,0,28.67,6.13Zm4,19.62c.37-.18.76-.35,1.15-.52l1.29-.6a.34.34,0,0,0,.21-.33,1.31,1.31,0,0,0,0-.15c-.06-.12-.12-.24-.17-.37l-1.82-4a.3.3,0,0,0-.43-.17L31,20.43a.35.35,0,0,0-.21.46q.71,2.33,1.4,4.66A.3.3,0,0,0,32.67,25.75Zm.87,5.44c.05.22.16.28.35.18l3-1.47a.35.35,0,0,0,.2-.5l-1.39-4.08c-.07-.22-.18-.27-.38-.17l-1.67.76-.91.42a.4.4,0,0,0-.23.37,1.11,1.11,0,0,0,0,.17C32.89,28.31,33.21,29.75,33.54,31.19Zm-9.47,7.2a.55.55,0,0,0,.18,0l1-.09,1-.08,1.38-.13.86-.08a.3.3,0,0,0,.26-.33c0-.38-.05-.76-.08-1.14s-.05-.88-.08-1.32-.08-1-.11-1.42c0-.21-.11-.31-.32-.29l-.83.07-1.55.14-1.54.13a.32.32,0,0,0-.29.33c0,.65,0,1.31,0,2h0v2A.24.24,0,0,0,24.07,38.39Zm13.84-9.1.33-.25,2.12-1.64a.37.37,0,0,0,.11-.5c-.13-.29-.26-.59-.4-.88l-1.3-2.89c-.08-.17-.18-.2-.33-.09l-2.06,1.51a.47.47,0,0,0-.19.39s0,.11,0,.18c.12.34.23.68.35,1,.34,1,.69,2,1,3.05C37.67,29.38,37.75,29.41,37.91,29.29Zm-6.51-3.1c.27-.07.35-.21.27-.48-.33-1.11-.66-2.21-1-3.32-.13-.44-.26-.88-.4-1.33a.34.34,0,0,0-.43-.24L29,21l-1.2.29a.35.35,0,0,0-.28.35.41.41,0,0,0,0,.11c.08.51.16,1,.23,1.54.17,1.11.33,2.22.5,3.32a.28.28,0,0,0,.38.26ZM24.05,8.36h-.19c0,.06,0,.1,0,.15,0,.27,0,.55,0,.82s.1.27.29.26.22-.08.18-.24-.11-.38-.17-.57S24.09,8.5,24.05,8.36ZM33.46,6l-1.3-.17-1-.11-1.53-.2a.17.17,0,0,0-.19.08.38.38,0,0,0,.33.26l.83.2L34,6.9h.16c-.07-.22-.13-.41-.18-.61a.41.41,0,0,0-.36-.3Zm3.77-.16a.7.7,0,0,0-.49-.33L34.43,5l-.67-.14c.17.27.32.51.48.74a.45.45,0,0,0,.22.16l2.69.89.75.25a1.46,1.46,0,0,0-.09-.15C37.62,6.43,37.42,6.14,37.23,5.83ZM38,7.34s-.11,0-.16,0l-3.15-1-.24,0c.1.3.17.55.27.8A.41.41,0,0,0,35,7.2l2.91,1.31.81.36c-.15-.46-.29-.88-.44-1.28A.75.75,0,0,0,38,7.34Zm.84,2.3a.41.41,0,0,0-.27-.36l-.47-.21L35,7.7c-.07,0-.14-.07-.22,0,0,.26,0,.52,0,.78,0,.08.09.15.15.21a.46.46,0,0,0,.16.11l3.54,2.06.25.13v-.1ZM34.23,7.49A.41.41,0,0,0,34,7.34l-1.82-.45-2.37-.58a.25.25,0,0,0-.3.1.53.53,0,0,0,.3.25l2.13.81,2.12.8.25.07V7.61A.26.26,0,0,0,34.23,7.49Zm6.68,19.19c.05.09.1.09.18,0l0,0,1.75-2.16a.41.41,0,0,0,0-.51l-.72-1.3c-.39-.69-.77-1.38-1.16-2.06a.32.32,0,0,0-.19-.19.67.67,0,0,1-.09.14l-1.43,1.65a.55.55,0,0,0-.1.67c.49,1.09,1,2.18,1.46,3.26C40.76,26.33,40.83,26.51,40.91,26.68Zm-8-21.92H29.32l-.21,0a.42.42,0,0,0,.3.25l.53.07,1,.12,1.32.16,1,.13.49.05L33.34,5A.42.42,0,0,0,32.94,4.76Zm-4.46.72-.26,0-.86,0a5,5,0,0,0,1.53.1s0-.07-.06-.08A.43.43,0,0,0,28.48,5.48ZM28.87,8c.06.06.11.13.18.19a3.15,3.15,0,0,0,.29.22L32.84,11l.15.1a.21.21,0,0,0,.25-.05c.13-.19.25-.39.37-.58a.15.15,0,0,0,0-.18.69.69,0,0,0-.17-.17l-.9-.48L30.39,8.45l-1.07-.56C29.13,7.79,29,7.83,28.87,8Zm.48-.73a.59.59,0,0,0,.17.15L33.7,9.67a1.23,1.23,0,0,0,.25.08c.07-.25.14-.46.2-.66A.28.28,0,0,0,34,8.76l-.13,0L31.13,7.66,29.7,7.12a.37.37,0,0,0-.29,0C29.31,7.15,29.29,7.22,29.35,7.3ZM27.43,5l-.27.06c.48,0,1,0,1.44-.05l0,0a.42.42,0,0,0-.38-.11Zm-2.28,5.35c.18.69.33,1.39.49,2.09s.31,1.34.46,2a.36.36,0,0,0,.45.29l1-.22a.19.19,0,0,0,.17-.15.42.42,0,0,0,0-.22c-.22-.49-.45-1-.67-1.46-.39-.84-.78-1.68-1.16-2.52a.39.39,0,0,0-.3-.23A.34.34,0,0,0,25.15,10.36Zm.27-2.31-.1,0c.18.3.35.59.51.88a.36.36,0,0,0,.37.19.19.19,0,0,0,.12-.07.12.12,0,0,0,0-.16l-.82-.89Zm-.83,2.36a.39.39,0,0,0-.1-.19.4.4,0,0,0-.43-.07.35.35,0,0,0-.19.35c0,.69,0,1.38,0,2.08h0v.58c0,.52,0,1,0,1.55a.27.27,0,0,0,.31.29l1-.07c.27,0,.34-.12.28-.38-.24-1.07-.48-2.14-.73-3.21C24.73,11,24.67,10.72,24.59,10.41ZM26,7.82l.74.82a.38.38,0,0,0,.46.08.18.18,0,0,0-.08-.21l-.21-.16-.72-.54C26.11,7.76,26.05,7.73,26,7.82ZM27.8,4.29l-.65.22-.29.11v0c.22,0,.45-.06.67-.11a4.18,4.18,0,0,0,.68-.16A.39.39,0,0,0,27.8,4.29Zm-.58-.51-.76.41-.07,0,0,.06,1.2-.41A.32.32,0,0,0,27.22,3.78Zm6-.1-.47-.05c.22.23.4.44.6.63a.92.92,0,0,0,.28.14l2.14.48.82.19c0-.05,0-.07-.06-.08-.3-.3-.6-.6-.92-.9a1,1,0,0,0-.3-.16,1,1,0,0,0-.25,0L34,3.77ZM2.31,27.58c.33-.95.64-1.91,1-2.85a.93.93,0,0,0,0-.8c-.36-.72-.69-1.46-1-2.18l-.08-.13c-.11.3-.22.56-.33.83-.26.68-.52,1.36-.79,2a.57.57,0,0,0,0,.46l1.15,2.61a1.18,1.18,0,0,0,.08.16Zm2.16,7.84a.63.63,0,0,0-.15-.32l-.16-.2L2.47,32.64l-.14-.16c0,.08,0,.12,0,.16.12.52.25,1,.36,1.54a1.22,1.22,0,0,0,.2.45l1.83,2.46.11.12,0-.11C4.71,36.54,4.58,36,4.47,35.42Zm0-.75c0-.33.06-.61.08-.89,0-.57.06-1.14.13-1.7a.92.92,0,0,0-.23-.74c-.6-.74-1.18-1.51-1.76-2.26l-.22-.27c0,.26-.05.48-.07.7L2.2,31.38a.74.74,0,0,0,.13.5l2,2.68ZM2,28c-.29-.68-.59-1.36-.88-2l-.22-.48h0l0,.15C.73,26.34.67,27,.59,27.7a1.06,1.06,0,0,0,.08.53c.37.88.74,1.76,1.12,2.64,0,0,0,0,.06.09,0-.38.07-.73.1-1.08s.08-.94.13-1.42A.59.59,0,0,0,2,28.14C2,28.09,2,28.05,2,28Zm-.2,3.6c-.19-.49-.41-1-.61-1.45L1,29.82H1c.09.34.15.68.27,1,.21.56.46,1.11.69,1.66a1.67,1.67,0,0,0,.08.2H2c0-.1,0-.21-.07-.32S1.84,31.84,1.75,31.6Zm3.91-4.55c-.6-.71-1.19-1.44-1.79-2.17l-.11-.1-.07.13C3.34,25.93,3,27,2.63,28a.48.48,0,0,0,.08.48c.65.84,1.31,1.67,2,2.51l.13.14a1.3,1.3,0,0,0,.06-.19c.31-1.07.61-2.14.92-3.21A.67.67,0,0,0,5.66,27.05ZM8.24,40.73c-.62-.5-1.22-1-1.83-1.55l-.34-.28a.08.08,0,0,0,0,.07l.44.64a1.75,1.75,0,0,0,.23.24L8,41l1,.86,0,0-.19-.31A3.08,3.08,0,0,0,8.24,40.73Zm4.61,2.17c0-.06,0-.08,0-.11-.07-.61-.16-1.22-.22-1.83a.45.45,0,0,0-.26-.36c-.37-.18-.72-.37-1.08-.56L8.7,38.68l-.11,0a.78.78,0,0,0,0,.16c.1.6.2,1.19.29,1.79a.51.51,0,0,0,.28.38l3.49,1.86A1.71,1.71,0,0,0,12.85,42.9ZM.8,24a.93.93,0,0,0,0-.1c.35-.88.69-1.77,1-2.66a.69.69,0,0,0,0-.32c-.1-.59-.21-1.18-.31-1.77,0-.19-.07-.38-.11-.57a.35.35,0,0,0-.08.1L.42,21a.91.91,0,0,0,0,.49c.06.36.12.73.17,1.09s.15.93.22,1.4ZM6.47,36.48l1.44,1.19a1.71,1.71,0,0,0,.17.11c0-.3,0-.57.05-.84,0-.69.09-1.38.14-2.07a.45.45,0,0,0-.16-.39A.86.86,0,0,0,8,34.35L5.82,32.61l-.7-.56s0,0,0,0c-.07.9-.14,1.8-.22,2.7a.58.58,0,0,0,.25.57Zm2,4c0-.1,0-.18,0-.25-.1-.57-.21-1.14-.3-1.72a.47.47,0,0,0-.2-.31.39.39,0,0,1-.1-.08L5.54,36.21l-.6-.51c0,.09,0,.14,0,.19.12.55.24,1.1.34,1.66a.88.88,0,0,0,.31.53c.91.76,1.81,1.53,2.71,2.3Zm4.17,2.74c-.91-.46-1.8-1-2.7-1.44l-.62-.32,0,0c.17.28.35.55.51.83a1,1,0,0,0,.41.38l3.08,1.66.19.09c-.12-.25-.24-.45-.33-.67A1,1,0,0,0,12.62,43.2ZM7.8,6.21c.53-.28,1-.57,1.59-.84a1.69,1.69,0,0,0,.38-.28l.61-.63.1-.11a.12.12,0,0,0-.1,0c-.44.2-.87.41-1.31.6a1.73,1.73,0,0,0-.52.36c-.24.24-.48.49-.72.72a1.9,1.9,0,0,1-.21.19l0,0ZM10.36,4a4.83,4.83,0,0,0,1.53-.87A4.54,4.54,0,0,0,10.36,4ZM8.28,7.19A.6.6,0,0,0,8.49,7c.2-.3.39-.61.58-.92l.1-.18-.09,0L7,7a.86.86,0,0,0-.29.28,3.71,3.71,0,0,0-.28.41c-.2.32-.41.63-.64,1l.12-.06C6.71,8.16,7.5,7.68,8.28,7.19Zm3.94-3.71,1-.13,1.31-.15a.57.57,0,0,0,.25-.11c.2-.13.38-.27.57-.41l.14-.11h-.21c-.57,0-1.13,0-1.69,0a.81.81,0,0,0-.51.15l-.75.53-.3.2v0Zm2-1.27.75,0h1a.69.69,0,0,0,.35-.08l.52-.27.27-.13-.13,0-1.06-.14a1,1,0,0,0-.64.08c-.36.19-.74.36-1.11.54l-.06,0v0ZM.28,23.08c0-.21-.06-.42-.1-.62h0s0,0,0,.07c0,.44-.1.88-.13,1.33a2.91,2.91,0,0,0,0,.66c.07.59.16,1.16.25,1.74,0,.13,0,.25.06.41l0-.07c0-.5.1-1,.14-1.49a2.26,2.26,0,0,0,0-.52C.45,24.08.36,23.58.28,23.08Zm5-13.44c-.17.49-.34,1-.52,1.47,0,.05,0,.1,0,.18l.55-.39L7.57,9.26A.57.57,0,0,0,7.79,9l.36-1.14a1,1,0,0,0,0-.12L8,7.78,5.61,9.25A.77.77,0,0,0,5.29,9.64ZM2,17l1.89-2.46A.53.53,0,0,0,4,14.25c0-.47.07-.95.1-1.42,0-.13,0-.27,0-.42L4,12.48,2.2,14.56A.89.89,0,0,0,2,15c-.06.67-.13,1.34-.19,2a.36.36,0,0,0,0,.14Zm-.62.91a2.71,2.71,0,0,0,.09-.41c0-.08,0-.16,0-.24l.15-1.56h0l-.1.19c-.22.51-.45,1-.68,1.52A1.94,1.94,0,0,0,.63,18c-.06.59-.13,1.17-.19,1.75a1.61,1.61,0,0,0,0,.22,4.25,4.25,0,0,0,.21-.43C.87,19,1.11,18.48,1.33,17.94Zm1.16-4.25c.48-.57,1-1.14,1.45-1.7a1.72,1.72,0,0,0,.36-.63c.12-.4.27-.78.41-1.16l0-.17-.13.12c-.43.47-.85.94-1.29,1.4a1.77,1.77,0,0,0-.37.6c-.15.42-.31.83-.46,1.24l-.14.38,0,0Zm1.73-3.61A6.54,6.54,0,0,0,5.58,8.36,6.79,6.79,0,0,0,4.22,10.08ZM23,38.89l-.36,0-.93-.08L20,38.62l-1.12-.11h-.34c-.13,0-.16,0-.17.17s0,.26,0,.39c0,.45,0,.9-.05,1.35s0,.82,0,1.24a.24.24,0,0,0,.23.27.63.63,0,0,0,.19,0l1.49.14,1.73.15.49.06.59.05c.18,0,.25-.07.25-.25V40.62h0V39.18C23.28,39,23.21,38.91,23,38.89Zm17.37-1.83-1.32,1.11a.61.61,0,0,0-.23.36c-.09.44-.19.89-.28,1.33,0,.19-.08.37-.12.59l.09-.07L41.28,38a.79.79,0,0,0,.24-.4c.13-.58.27-1.16.41-1.73a.57.57,0,0,0,0-.14l-.1.08Zm-.16,2.3-1.81,1.55a1.62,1.62,0,0,0-.18.19c-.11.15-.22.31-.32.47s0,.06-.07.12l.08,0L39.79,40a4.17,4.17,0,0,0,.78-.9l0,0Zm-9.86,5.13-1.24.36c-.07,0-.15,0-.18.13-.1.3-.21.61-.32,1l.29-.07,3-.91c.19-.06.39-.11.57-.18a.52.52,0,0,0,.28-.16c.19-.32.36-.65.55-1l-.16,0Zm3.9-1.27a1.08,1.08,0,0,0-.51.48c-.11.23-.24.44-.36.66l0,0,0,0,3.15-1.72a.89.89,0,0,0,.34-.3c.16-.24.32-.48.49-.71l.08-.13a2.57,2.57,0,0,0-.45.2ZM38,40.59c.07-.37.15-.73.22-1.1s.11-.55.18-.86L37,39.37c-.77.41-1.55.83-2.33,1.23a.44.44,0,0,0-.27.36c-.07.47-.15.95-.23,1.42,0,.16,0,.32-.08.52a1,1,0,0,0,.2-.08L35.72,42l2-1.07A.51.51,0,0,0,38,40.59Zm5.82-7.12c-.36.49-.71,1-1.08,1.47a1.64,1.64,0,0,0-.33.69c-.09.44-.21.86-.32,1.3l0,.14,0,0,.07-.09,1.59-2.18a2.1,2.1,0,0,0,.35-.66c.07-.33.17-.65.25-1l.16-.63s-.07.06-.08.09C44.21,32.92,44,33.2,43.8,33.47Zm.71-4.37c0-.07,0-.15,0-.25l-.11.14-.73,1-1.2,1.57a.58.58,0,0,0-.1.27,1.61,1.61,0,0,0,0,.31c0,.57.06,1.13.1,1.69,0,.27,0,.54,0,.81h0l.09-.09,1.95-2.64a.6.6,0,0,0,.12-.43c0-.12,0-.24,0-.35C44.6,30.43,44.56,29.76,44.51,29.1Zm1.54-3.54h0l0,.09c-.35.83-.71,1.66-1,2.5a.83.83,0,0,0-.06.32c0,.75.09,1.5.14,2.25,0,.05,0,.1,0,.19a.61.61,0,0,0,.07-.15c.34-.82.67-1.65,1-2.47a1.43,1.43,0,0,0,.1-.71c-.05-.64-.09-1.28-.14-1.93A.29.29,0,0,0,46.05,25.56ZM18,45.25c0-.12,0-.27-.12-.34s-.22-.09-.34-.12l-3-.89-1.06-.32c.15.31.3.58.41.86a.58.58,0,0,0,.41.35c.3.08.6.18.9.27l2.76.82.19,0v-.08C18.14,45.64,18.09,45.45,18,45.25ZM45.55,30.54A12.87,12.87,0,0,0,45,32,5.6,5.6,0,0,0,45.55,30.54Zm.29-6.13c-.31-.81-.6-1.63-.91-2.44,0-.1-.08-.2-.13-.33a.58.58,0,0,1,0,.09l-1.08,2.41a.5.5,0,0,0,0,.38.5.5,0,0,1,.05.13l.93,2.9.06.14.08-.17c.35-.84.7-1.67,1.06-2.5A.76.76,0,0,0,45.84,24.41ZM20.41,8.65c.24-.27.48-.55.74-.83-.08-.1-.15-.05-.21,0l-.9.69a.17.17,0,0,0-.08.21A.37.37,0,0,0,20.41,8.65Zm2.7,34.16L22,42.7l-.82-.07-1.37-.14-1-.09-.5,0c0,.2,0,.38,0,.56,0,.44.05.88.07,1.32s.06.37.36.39h.14l.86.08,1.34.13.86.08,1,.1h.18c.11,0,.14-.05.14-.16s0-.21,0-.32l0-1.58C23.25,42.84,23.22,42.82,23.11,42.81Zm-.35,2.58-1.29-.11-1.8-.18-.49-.05c-.23,0-.47,0-.7-.06,0,0,0,0,0,0,.07.3.14.61.22.91a.14.14,0,0,0,.08.09.48.48,0,0,0,.17,0l.84.08.86.08,1.38.13.87.1c.09,0,.2,0,.28-.06a8,8,0,0,0,0-1Zm-4.9-12.11-3.12-.84-.49-.13c-.18-.05-.27,0-.3.19l0,.19c-.11.71-.23,1.42-.34,2.14-.07.48-.15,1-.23,1.46a.32.32,0,0,0,.24.38l.2.06,3.72,1a.86.86,0,0,0,.17,0,.18.18,0,0,0,.2-.19c0-.19,0-.39.06-.58l.15-2c0-.46.07-.93.11-1.44a.24.24,0,0,0-.1-.23A.7.7,0,0,0,17.86,33.28Zm.48-1c.07-.54.13-1.07.2-1.61l.24-2,.09-.81a1,1,0,0,0,0-.11.44.44,0,0,0-.34-.25l-2.86-.72c-.26-.06-.38,0-.45.27-.17.76-.35,1.51-.53,2.27s-.33,1.38-.49,2.07a.33.33,0,0,0,.27.45l1.78.48c.58.15,1.17.3,1.75.47a.28.28,0,0,0,.35-.24A1.94,1.94,0,0,0,18.34,32.27ZM18,1.31l.17-.05L18.86,1V1c-.23-.08-.46-.15-.68-.24a.67.67,0,0,0-.5,0l-1.25.4-.14.06,1.27.16A.71.71,0,0,0,18,1.31ZM23,33.85c-.41-.05-.81-.08-1.22-.11l-.95-.08-1.43-.13-.34,0a.27.27,0,0,0-.32.26l-.06.69c0,.52-.09,1-.13,1.56s-.09,1.07-.14,1.61a.32.32,0,0,0,.32.39l1,.09,1.79.16.47,0,.93.09c.21,0,.3-.08.3-.29,0-.66,0-1.31,0-2h0v-2C23.3,34,23.21,33.86,23,33.85Zm4.4,11.23-2,.2-1.31.11-.43,0-.05,1,.29,0,.62-.07.83-.07,1.22-.13.92-.08.42-.06a.21.21,0,0,0,.21-.19c.06-.21.13-.4.19-.61s.05-.16.08-.26h-.19ZM25.11.45a.32.32,0,0,0,.32-.09c.08-.08.19-.13.24-.24A13.35,13.35,0,0,0,23.62,0l0,.32h.08ZM23.32,30.21V28.32A.34.34,0,0,0,23,28l-.26,0-1.32-.1-1.56-.12a.32.32,0,0,0-.39.32c-.05.31-.08.64-.12,1l-.24,2c-.06.55-.13,1.09-.19,1.64a.3.3,0,0,0,.29.35l1.1.1,1.47.11.51.06.79.06a.25.25,0,0,0,.11,0,.31.31,0,0,0,.16-.31c0-.76,0-1.53,0-2.29h0Zm0-8.11a.45.45,0,0,0,0-.2.39.39,0,0,0-.37-.23l-.74,0-.52,0-1-.09a.29.29,0,0,0-.1,0,.42.42,0,0,0-.25.36c-.13.89-.26,1.77-.4,2.66l-.33,2.19a.3.3,0,0,0,.14.32.66.66,0,0,0,.25.07l1.75.14,1.24.1a.25.25,0,0,0,.12,0,.34.34,0,0,0,.22-.34c0-.83,0-1.65,0-2.47h0Zm5.4,20.27h-.12L27,42.52l-1.48.14L24,42.81c-.17,0-.19,0-.2.19s0,.52,0,.78,0,.78,0,1.21A1.11,1.11,0,0,0,24,45l.39,0,.94-.08,1.61-.17,1.31-.12a.65.65,0,0,0,.2,0,.21.21,0,0,0,.16-.21c0-.5.09-1,.13-1.5C28.72,42.71,28.72,42.54,28.74,42.37ZM46.67,23l0-.24h0c-.09.61-.18,1.22-.26,1.83a.93.93,0,0,0,0,.29c0,.39,0,.78.08,1.16l0,.33q.15-.84.24-1.68a3,3,0,0,0,0-.59C46.73,23.71,46.7,23.34,46.67,23ZM16,2.73c-.24.15-.46.32-.69.48v0l.61.07,1.22.16,1,.14.53,0a.45.45,0,0,0,.41-.18s0,0,0,0l-2.69-.79A.43.43,0,0,0,16,2.73ZM6.62,26.91a.34.34,0,0,0,.11.49l2.5,1.9c.13.11.23.08.29-.09,0,0,0,0,0,0,.47-1.36,1-2.71,1.42-4.07,0-.06,0-.13,0-.17a.48.48,0,0,0-.2-.41l-1.34-1L8.68,23a.19.19,0,0,0-.3.07l0,.08c-.27.57-.53,1.15-.8,1.72ZM20.73,14.76h.12c.17,0,.23-.15.26-.31l.81-3.69c0-.17.07-.35.12-.54a1.33,1.33,0,0,0-.06-.12.36.36,0,0,0-.39-.13.45.45,0,0,0-.29.28l-1.14,2.53c-.21.47-.42,1-.64,1.42a.22.22,0,0,0,.16.34Zm-9.31,9.17.43-.94c.53-1.14,1.05-2.28,1.58-3.43a.63.63,0,0,0,0-.14.33.33,0,0,0-.15-.34l-1.54-1a.25.25,0,0,0-.22,0,.3.3,0,0,0-.18.15l-.48.76-2,3.17a.33.33,0,0,0,.09.48L11,24C11.21,24.16,11.33,24.13,11.42,23.93Zm2.48-5.36a.44.44,0,0,0,.12-.15l1.34-2.31,1.08-1.88a.28.28,0,0,0-.1-.42c-.26-.16-.53-.31-.78-.48a.3.3,0,0,0-.35,0,.53.53,0,0,0-.14.12l-1.8,2.26L12.1,17.17c0,.06-.07.14-.11.21a.29.29,0,0,0,.12.22l1.5,1A.22.22,0,0,0,13.9,18.57Zm.75.57,1.7.72.14.05c.18,0,.28-.09.36-.29l1.45-3.9c.08-.2.16-.4.23-.6a.3.3,0,0,0-.19-.41l-1-.38a.38.38,0,0,0-.43.12l-.09.15-2.08,3.61c-.09.17-.19.33-.28.49A.28.28,0,0,0,14.65,19.14ZM19.59,1.37a.32.32,0,0,0-.34-.09c-.33.09-.65.2-1,.32l.17.09c.59.3,1.2.59,1.78.91a.74.74,0,0,0,.76-.05l-.14-.11Zm-2.16.56L17,2.17l-.3.14.1,0c.84.24,1.67.47,2.5.72A.66.66,0,0,0,19.92,3l-.19-.11-1.8-.93A.52.52,0,0,0,17.43,1.93Zm4.14,6.2-.69.78a.23.23,0,0,0-.07.1.11.11,0,0,0,.08.15.37.37,0,0,0,.4-.14l.51-.92C21.67,8,21.64,8.05,21.57,8.13ZM19.74.78l.64-.12L21,.54A2.13,2.13,0,0,1,20.7.33a.44.44,0,0,0-.45-.11L18.72.5v0l.73.23A.57.57,0,0,0,19.74.78ZM21,3.06a0,0,0,0,1,0,0l.64.53a1,1,0,0,0,.18,0l0,0c-.15-.19-.28-.39-.44-.57A.27.27,0,0,0,21,3.06ZM19,14c.39-.88.79-1.75,1.18-2.62.21-.46.42-.92.62-1.38a.24.24,0,0,0-.13-.34.4.4,0,0,0-.5.18c-.41.56-.8,1.13-1.2,1.69l-1.4,2a.21.21,0,0,0,.11.36l.85.34.13,0A.38.38,0,0,0,19,14Zm-.72-7.63,1.45-.28a.09.09,0,0,0-.08,0l-1.23.1a.39.39,0,0,0-.31.19A.43.43,0,0,0,18.28,6.35ZM18.38,5a5.19,5.19,0,0,0,.77.06c.24,0,.48,0,.74,0l0,0-1.12-.2A.38.38,0,0,0,18.38,5ZM6.67,19.71a.31.31,0,0,0,0,.46l.31.35,1.22,1.36a.14.14,0,0,0,.24,0c0-.05.07-.12.11-.18.79-1.26,1.59-2.53,2.38-3.81a1.58,1.58,0,0,0,.12-.29.9.9,0,0,0-.11-.22c-.37-.4-.75-.79-1.14-1.18a.22.22,0,0,0-.32,0l-.09.11L7.34,18.87ZM19.4,3.87l1.21.4,0,0c-.29-.15-.58-.32-.88-.46A.29.29,0,0,0,19.4,3.87Zm-.61.53,1.39.26v0c-.34-.11-.68-.24-1-.34A.36.36,0,0,0,18.79,4.4Zm.94,1.14-.8,0-.37,0a.51.51,0,0,0-.41.16A5.89,5.89,0,0,0,19.73,5.54ZM13,6.23c-.08.22-.13.44-.2.69l.17,0,1.18-.29L17,5.91l.39-.1c.1,0,.2-.1.2-.23a.23.23,0,0,0-.23-.07L17,5.57l-1,.12-1.29.16L13.36,6A.36.36,0,0,0,13,6.23Zm4.78,1.64-.4.22L14.05,9.87l-.43.23a.24.24,0,0,0-.09.38l.33.5a.22.22,0,0,0,.17.12,1.12,1.12,0,0,0,.24-.13c.46-.32.91-.66,1.37-1l2.41-1.74a.77.77,0,0,0,.13-.12.16.16,0,0,0-.08-.26A.37.37,0,0,0,17.81,7.87Zm-5,.47L13,8.27l2.81-1.06,1.44-.55a.39.39,0,0,0,.3-.28.34.34,0,0,0-.37-.06l-2,.49L13,7.34c-.13,0-.27.11-.28.26S12.77,8.08,12.78,8.34Zm3.36-.12,1.43-.76a.54.54,0,0,0,.16-.14.13.13,0,0,0-.09-.23.8.8,0,0,0-.27,0L13.58,8.55l-.47.19c-.15.06-.23.18-.2.29s.13.41.2.62c0,0,.07.06.1.09l.17-.05.3-.16ZM14.08,4.76a.44.44,0,0,0-.46.26,1.64,1.64,0,0,1-.14.22l-.18.33h.22l1-.13,1-.12,1.31-.16L17.61,5a.41.41,0,0,0,.3-.21c-.06-.09-.14-.07-.22-.07Zm6-1.35,0,0L21,3.9a.3.3,0,0,0,.13,0l0,0L21,3.75c-.16-.12-.31-.25-.46-.38A.31.31,0,0,0,20.13,3.41ZM15.77,26.18l2.88.73a.29.29,0,0,0,.38-.26c.1-.62.19-1.24.28-1.86s.24-1.55.35-2.33l.12-.77a.37.37,0,0,0-.27-.37l-2.12-.5a.34.34,0,0,0-.43.25q-.72,2.34-1.42,4.68A.31.31,0,0,0,15.77,26.18ZM20,20.43l.87-4.73a.33.33,0,0,0-.26-.39l-.77-.17-.4-.09a.38.38,0,0,0-.36.26c-.19.48-.37,1-.55,1.45l-1.14,3.08c-.09.23,0,.36.21.42l1.95.46A.32.32,0,0,0,20,20.43ZM13.64,31.17c.32-1.34.63-2.68.94-4,0-.16.07-.31.1-.44a.44.44,0,0,0-.26-.4l-1.34-.61-1.25-.56c-.14-.06-.23-.05-.31,0a.53.53,0,0,0-.08.17L10,29.45a.34.34,0,0,0,0,.3c0,.1.14.13.22.17l3,1.44C13.48,31.47,13.58,31.42,13.64,31.17Zm9.42-21a.39.39,0,0,0-.49.3c-.16.78-.33,1.55-.5,2.33-.13.62-.27,1.24-.4,1.86a.23.23,0,0,0,.2.3l.83.07H23a.47.47,0,0,0,.16,0,.27.27,0,0,0,.13-.27v-2.1h0c0-.71,0-1.41,0-2.12A.36.36,0,0,0,23.06,10.13ZM8.8,38.26l1.68.89,1.86,1a.25.25,0,0,0,.24,0c0-.38.05-.76.06-1.14,0-.6,0-1.19.08-1.79a.42.42,0,0,0-.24-.44l-.69-.36-2.5-1.26-.52-.26c0,.1,0,.17,0,.24,0,.23,0,.47,0,.7,0,.69-.09,1.38-.14,2.07a.24.24,0,0,0,.06.21A.66.66,0,0,0,8.8,38.26ZM15,25.62c0-.05,0-.09,0-.14l1.24-4.09c.06-.17.11-.35.16-.52a.34.34,0,0,0-.22-.44l-1.81-.77-.14-.05a.33.33,0,0,0-.31.18l-.08.16c-.16.34-.32.69-.47,1-.5,1.07-1,2.14-1.48,3.2a.31.31,0,0,0,.16.45l.8.36,1.75.79A.25.25,0,0,0,15,25.62ZM20,1.09s0,.06.05.07l1.32,1.16a.3.3,0,0,0,.26.07L22,2.3l-.11-.22c-.18-.34-.36-.68-.55-1C21.29.88,21.23.85,21,.88L20.45,1ZM21.64.45l.42,0,1,0h.07V0c-.69,0-1.36.07-2.07.11l.34.27A.27.27,0,0,0,21.64.45Zm1.15,2.29c.07.21.16.42.24.63h.19V2.7C23,2.57,22.93,2.58,22.79,2.74ZM22,.77a1.23,1.23,0,0,0-.21,0l.73,1.33a.13.13,0,0,0,.14.07h.39c.15,0,.16,0,.15-.17,0-.4,0-.8,0-1.2a.84.84,0,0,0,0-.1A6.51,6.51,0,0,0,22,.77Zm.81,8.6a.22.22,0,0,0,0,.16.29.29,0,0,0,.3.05c.11,0,.14-.09.14-.23s0-.56,0-.85c0,0,0-.09,0-.14h-.18C23,8.71,22.9,9,22.82,9.37ZM9.68,5.82c-.18.3-.38.6-.56.9,0,0,0,.09-.09.16l.09,0,1.71-.56,1.63-.53a.63.63,0,0,0,.38-.3l.3-.51a.66.66,0,0,0,0-.11L12.42,5l-2.3.5A.64.64,0,0,0,9.68,5.82ZM5.35,17l-.15.17a.35.35,0,0,0,0,.39l1,1.83s.06.07.1.13.12-.13.16-.19c.75-.93,1.5-1.87,2.24-2.81l.52-.65a.39.39,0,0,0,.06-.45l-.78-1.34a.25.25,0,0,0-.26.08c-.21.23-.43.45-.65.67ZM8.66,7.64l-.21.64-.17.58.1,0,3.69-1.64a.45.45,0,0,0,.27-.3c.07-.22.13-.44.2-.7l-.2,0-.45.15L9,7.33A.48.48,0,0,0,8.66,7.64ZM8.13,9.71c0,.41,0,.83,0,1.27l.18-.1L11,9.33l1-.59a.41.41,0,0,0,.25-.33V7.76a.09.09,0,0,0-.13-.1.33.33,0,0,0-.13,0l-.95.42L8.46,9.26A.47.47,0,0,0,8.13,9.71Zm4.66-5.93c-.36,0-.73.1-1.09.13a.78.78,0,0,0-.5.23L10.36,5l-.07.08,3.08-.68a.46.46,0,0,0,.28-.17l.28-.3.27-.3-.34,0Zm1.83,0c-.13.15-.27.29-.41.44l-.08.11H18a.56.56,0,0,0,.38-.22l-.13-.05-1.42-.18-.92-.13-.87-.12A.5.5,0,0,0,14.62,3.79ZM5.09,25.63l.84,1c0,.06.09.15.21.11l.06-.13,1-2.08.77-1.68a.49.49,0,0,0-.08-.57l-1.24-1.4c-.12-.14-.25-.27-.36-.41-.16,0-.2.15-.26.25L4.61,23.13,4.12,24a.39.39,0,0,0,0,.51ZM7.75,12a.69.69,0,0,0-.06-.13c-.07.05-.14.08-.2.13L4.67,14.35a.51.51,0,0,0-.2.57c.11.49.21,1,.31,1.48,0,.13.06.25.1.4L5,16.66c.46-.46.91-.93,1.37-1.4L7.9,13.73,8,13.64a.45.45,0,0,0,.09-.43C8,12.8,7.86,12.38,7.75,12ZM3.61,23.66l.08.12a1.23,1.23,0,0,0,.08-.12l.7-1.23,1.22-2.14a.6.6,0,0,0,0-.63c-.31-.58-.61-1.17-.91-1.75a1.19,1.19,0,0,0-.1-.17l-.14.18L3.39,19.64l-.83,1.23a.43.43,0,0,0-.05.46C2.88,22.11,3.25,22.88,3.61,23.66Zm1.83,8.08,2.72,2.18.12.08c.06,0,.1,0,.12-.06s0-.06,0-.09l.78-3.5a.78.78,0,0,0,0-.14A.54.54,0,0,0,9,29.75L7,28.26l-.58-.45c-.11-.07-.16-.06-.2.06a.14.14,0,0,0,0,.07c-.32,1.09-.63,2.18-1,3.27A.47.47,0,0,0,5.44,31.74Zm-.64-20a.64.64,0,0,0-.29.52c0,.51-.06,1-.1,1.54,0,.07,0,.13,0,.23l.08,0,.8-.69,2.15-1.82A.51.51,0,0,0,7.63,11c0-.11,0-.22,0-.34,0-.32,0-.64,0-1l-.16.11ZM4,15l-.11.11-2,2.57a.57.57,0,0,0-.11.46c.1.51.18,1,.27,1.54l.16.85.14-.19,1.93-2.88a.6.6,0,0,0,.11-.5c-.11-.49-.21-1-.31-1.48C4.1,15.34,4.06,15.19,4,15Z"/></g></g></svg>