<svg xmlns="http://www.w3.org/2000/svg" viewBox="0 0 35.47 59.62"><g id="Layer_2" data-name="Layer 2"><g id="Layer_1-2" data-name="Layer 1"><path d="M35,22.39c-4-.6-7.26-1.14-9.88-1.5a.51.51,0,0,1-.33-.82c2.07-2.69,4.63-6.29,8-10.82a.51.51,0,0,0-.72-.72c-4.84,3.6-8.63,6.28-11.37,8.43a.52.52,0,0,1-.84-.34c-.35-2.8-1-11.58-1.64-16.18a.52.52,0,0,0-1,0c-.68,4.6-1.29,13.38-1.65,16.18a.51.51,0,0,1-.83.34C12,14.81,8.21,12.13,3.37,8.53a.51.51,0,0,0-.72.72c3.36,4.53,5.92,8.13,8,10.82a.51.51,0,0,1-.34.82c-2.62.37-5.87.9-9.87,1.5a.52.52,0,0,0,0,1C5,24.08,8.54,24.68,11.32,25a.51.51,0,0,1,.34.83c-2.25,2.79-5.08,6.81-9,12.1a.52.52,0,0,0,.72.73c4.77-3.55,8.52-6.2,11.25-8.34a.52.52,0,0,1,.83.39c.32,7.37,1,20.16,1.76,28.4a.52.52,0,0,0,1,0c.77-8.24,1.45-21,1.77-28.41a.51.51,0,0,1,.83-.38c2.73,2.13,6.48,4.78,11.25,8.34a.52.52,0,0,0,.73-.73c-3.94-5.29-6.77-9.31-9-12.09a.52.52,0,0,1,.34-.84c2.78-.36,6.35-1,10.89-1.63A.52.52,0,0,0,35,22.39Z"/></g></g></svg>