<svg xmlns="http://www.w3.org/2000/svg" viewBox="0 0 45.12 45.07"><defs><style>.cls-1{fill:#1d1d1b;}</style></defs><g id="Layer_2" data-name="Layer 2"><g id="Layer_1-2" data-name="Layer 1"><path class="cls-1" d="M10.53,3.45A22.84,22.84,0,0,0,5.1,8.25h6.33A36.39,36.39,0,0,1,10.53,3.45Zm6.33,15.08A20.31,20.31,0,0,1,11.93,10H5.13A21,21,0,0,0,16.86,18.53ZM10.51,41.6A37.57,37.57,0,0,1,11.38,37H5.25A22.94,22.94,0,0,0,10.51,41.6ZM26.14,27a6.57,6.57,0,0,0-2.54-1.13l-.18.52v8.88h8C30.17,31.49,28.31,28.57,26.14,27ZM34.58,3.45a34.83,34.83,0,0,1-.89,4.8H40A22.69,22.69,0,0,0,34.58,3.45ZM40,10h-6.8a20.31,20.31,0,0,1-4.93,8.55A21,21,0,0,0,40,10ZM33,2.53A22.34,22.34,0,0,0,23.42,0V8.25h8.49A33.47,33.47,0,0,0,33,2.53ZM26.14,18.06c2.14-1.53,4-4.39,5.24-8.08h-8v8.69c.06.19.12.36.18.52A6.57,6.57,0,0,0,26.14,18.06Zm-8.3,6.46a23,23,0,0,1,2.49-.37c-1.28-1.06-3.38-1.33-7-1.62,3.58-.29,5.68-.55,7-1.61a20.78,20.78,0,0,1-2.49-.38,22.66,22.66,0,0,1-14.4-10,22.55,22.55,0,0,0,0,24A22.68,22.68,0,0,1,17.84,24.52Zm10.41,2a20.54,20.54,0,0,1,5,8.73h6.86A20.94,20.94,0,0,0,28.25,26.54ZM34.61,41.6A22.94,22.94,0,0,0,39.87,37H33.74A37.57,37.57,0,0,1,34.61,41.6ZM23.42,37v8.08A22.35,22.35,0,0,0,33,42.53,36.18,36.18,0,0,0,32,37ZM41.67,10.55a22.63,22.63,0,0,1-14.39,10,20.78,20.78,0,0,1-2.49.38c1.28,1.06,3.38,1.32,7,1.61-3.58.29-5.68.56-7,1.62a23,23,0,0,1,2.49.37,22.65,22.65,0,0,1,14.39,10,22.54,22.54,0,0,0,0-24ZM19,18.06a6.51,6.51,0,0,0,2.54,1.13c.06-.16.12-.34.18-.52V10h-8C15,13.67,16.84,16.53,19,18.06ZM13.14,37a36.4,36.4,0,0,0-1,5.54,22.35,22.35,0,0,0,9.56,2.54V37ZM19,27c-2.18,1.57-4,4.49-5.3,8.27h8V26.4c-.06-.19-.12-.36-.18-.53A6.51,6.51,0,0,0,19,27ZM13.21,8.25H21.7V0a22.34,22.34,0,0,0-9.56,2.53A33.47,33.47,0,0,0,13.21,8.25ZM5,35.27h6.85a20.33,20.33,0,0,1,5-8.73A20.93,20.93,0,0,0,5,35.27Z"/></g></g></svg>