<svg xmlns="http://www.w3.org/2000/svg" viewBox="0 0 45.58 43.81"><g id="Layer_2" data-name="Layer 2"><g id="Layer_1-2" data-name="Layer 1"><path d="M.12,6.77c4,1.25,5.1,2.39,6.34,6.35a.16.16,0,0,0,.31,0C8,9.16,9.16,8,13.12,6.77a.16.16,0,0,0,0-.31C9.16,5.22,8,4.07,6.77.12a.16.16,0,0,0-.31,0c-1.24,4-2.39,5.1-6.34,6.34A.16.16,0,0,0,.12,6.77Zm32.34,0c4,1.25,5.1,2.39,6.34,6.35a.17.17,0,0,0,.32,0c1.24-4,2.39-5.1,6.34-6.35a.16.16,0,0,0,0-.31c-4-1.24-5.1-2.39-6.34-6.34a.17.17,0,0,0-.32,0c-1.24,4-2.38,5.1-6.34,6.34A.16.16,0,0,0,32.46,6.77ZM45.46,37c-4-1.24-5.1-2.39-6.34-6.34a.17.17,0,0,0-.32,0c-1.24,3.95-2.38,5.1-6.34,6.34a.16.16,0,0,0,0,.31c4,1.25,5.1,2.39,6.34,6.35a.17.17,0,0,0,.32,0c1.24-4,2.39-5.1,6.34-6.35A.16.16,0,0,0,45.46,37Zm-2.32-15.5c-13-4.09-16.78-7.85-20.86-20.87a.55.55,0,0,0-1,0c-4.08,13-7.85,16.78-20.86,20.87a.54.54,0,0,0,0,1c13,4.09,16.78,7.85,20.86,20.86a.54.54,0,0,0,1,0c4.08-13,7.85-16.77,20.86-20.86A.54.54,0,0,0,43.14,21.54ZM13.12,37c-4-1.24-5.1-2.39-6.35-6.34a.16.16,0,0,0-.31,0C5.22,34.65,4.07,35.8.12,37a.16.16,0,0,0,0,.31c4,1.25,5.1,2.39,6.34,6.35a.16.16,0,0,0,.31,0c1.25-4,2.39-5.1,6.35-6.35A.16.16,0,0,0,13.12,37Z"/></g></g></svg>