<svg xmlns="http://www.w3.org/2000/svg" viewBox="0 0 47.69 47.68"><defs><style>.cls-1{fill:#1d1d1b;}</style></defs><g id="Layer_2" data-name="Layer 2"><g id="Layer_1-2" data-name="Layer 1"><path class="cls-1" d="M9.1,7.27c2.43,2.86,5.7,6.22,8.68,5.35C19.93,12,15,4.71,21.86,11.54c2.57,2.58,4.8,5.35,5.3,9.59a12.85,12.85,0,0,0-1.85-7.27A21.45,21.45,0,0,0,20.83,8.7c-3.37-3.34-2.43-3.51-1.26-4.92-3.48,2.88-2,4.51-2.31,6.06-.61,3-3.5-.77-5-3C11.55,5.64,11.1,3.5,9.23,4.71S5.5,15,5.5,15,7.66,5.57,9.1,7.27ZM20.49,2.09c.49,3.72,1.43,8.31,4.41,9.19,2.14.64,2-8.14,4,1.3.77,3.56,1.15,7.1-.72,10.94a13,13,0,0,0,2.38-7.13,21.57,21.57,0,0,0-1-6.76c-1-4.63-.14-4.27,1.6-4.82C26.7,5.35,27.07,7.53,26,8.66c-2.12,2.17-2.54-2.54-2.54-5.22C23.43,2,24.21,0,22,0s-8.7,6.64-8.7,6.64S20.19-.12,20.49,2.09Zm21.82,10c-3.18,2-7,4.76-6.53,7.83.31,2.21,8.22-1.6.49,4.18-2.92,2.19-6,4-10.25,3.89a12.92,12.92,0,0,0,7.47-.79,21.82,21.82,0,0,0,5.74-3.71c3.78-2.86,3.82-1.9,5.05-.54-2.36-3.86-4.18-2.62-5.67-3.15-2.86-1,1.26-3.36,3.69-4.47,1.28-.59,3.46-.73,2.53-2.75s-9.65-5.16-9.65-5.16S44.2,10.9,42.31,12.09ZM32.87,3.88c-1.6,3.4-3.29,7.77-1.26,10.12,1.45,1.69,6-5.78,2.67,3.26-1.27,3.41-2.87,6.6-6.52,8.81a12.9,12.9,0,0,0,5.85-4.7,21.84,21.84,0,0,0,2.83-6.22c1.64-4.45,2.19-3.67,4-3.19-4.06-2-4.93.06-6.47.41-3,.68-.76-3.5.69-5.76.76-1.18,2.51-2.47.64-3.68s-10.9.89-10.9.89S33.81,1.86,32.87,3.88ZM2.33,17.79c3.58,1.09,8.16,2.15,10.19-.19,1.47-1.69-6.59-5.17,2.85-3.12,3.56.78,6.93,1.91,9.65,5.2a13,13,0,0,0-5.5-5.12A21.68,21.68,0,0,0,13,12.65c-4.64-1-4-1.65-3.72-3.46-1.37,4.3.76,4.87,1.33,6.35,1.09,2.82-3.36,1.25-5.8.14C3.5,15.09,2,13.54,1.05,15.56S3.47,26.23,3.47,26.23.19,17.14,2.33,17.79Zm6.73,23c2.49-2.81,5.35-6.53,4.06-9.35-.92-2-7.43,3.84-1.65-3.88,2.19-2.92,4.62-5.52,8.74-6.62a12.89,12.89,0,0,0-6.94,2.87A21.46,21.46,0,0,0,8.81,29C6,32.83,5.67,31.92,4.12,31c3.34,3,4.74,1.33,6.32,1.43,3,.18-.26,3.58-2.28,5.33-1.06.92-3.11,1.67-1.65,3.35s10.71,2.22,10.71,2.22S7.59,42.5,9.06,40.83ZM42.35,16.32s5.7,7.8,3.47,7.77c-3.75,0-8.43.24-9.73,3.06-.93,2,7.78,3.1-1.85,3.79-3.63.26-7.19.13-10.72-2.27A12.93,12.93,0,0,0,30.23,32a21.69,21.69,0,0,0,6.83,0c4.73-.36,4.25.47,4.55,2.27.1-4.51-2.11-4.46-3.07-5.71-1.85-2.41,2.87-2.15,5.52-1.77,1.4.2,3.3,1.26,3.62-.94S42.35,16.32,42.35,16.32Zm-.06,19.77c-3.14-2.06-7.23-4.36-9.84-2.69-1.88,1.21,4.86,6.82-3.61,2.19-3.2-1.75-6.12-3.78-7.79-7.71a13,13,0,0,0,3.82,6.46A21.75,21.75,0,0,0,30.63,38c4.17,2.25,3.32,2.69,2.59,4.36,2.53-3.74.64-4.89.51-6.46-.25-3,3.58-.25,5.6,1.5,1.07.92,2.1,2.84,3.56,1.16s.67-10.92.67-10.92S44.15,37.32,42.29,36.09Zm-9.47,8.18C31.3,40.84,29.1,36.7,26,36.69c-2.24,0,.41,8.37-4.22-.11-1.74-3.2-3.1-6.49-2.39-10.7a13,13,0,0,0-.27,7.51A21.63,21.63,0,0,0,22,39.6c2.29,4.15,1.34,4-.18,5.07,4.15-1.78,3.18-3.76,3.92-5.16,1.42-2.68,3.15,1.72,3.91,4.29.39,1.35.22,3.52,2.36,2.9s6.47-8.82,6.47-8.82S33.73,46.31,32.82,44.27ZM2.31,30.3c3.61-1,8-2.61,8.48-5.68.32-2.21-8.34-.78.7-4.15,3.42-1.27,6.87-2.15,10.93-.84A12.83,12.83,0,0,0,15,18.29a21.88,21.88,0,0,0-6.56,1.93c-4.43,1.68-4.2.75-5-.9C4.66,23.68,6.76,23,8,23.94c2.45,1.79-2.16,2.87-4.81,3.25-1.39.2-3.52-.28-3.2,1.93s7.81,7.66,7.81,7.66S.17,30.9,2.31,30.3ZM20.44,46c.57-3.71,1-8.38-1.65-10.07-1.87-1.21-4.17,7.26-3.48-2.37.26-3.63.9-7.14,3.77-10.29a13,13,0,0,0-4.29,6.16,22.08,22.08,0,0,0-1,6.77c-.31,4.73-1.06,4.14-2.89,4.17,4.45.75,4.71-1.45,6.09-2.22,2.65-1.49,1.72,3.15,1,5.72-.39,1.35-1.71,3.09.42,3.71S28.63,43.7,28.63,43.7,20.1,48.24,20.44,46Z"/></g></g></svg>