<svg xmlns="http://www.w3.org/2000/svg" viewBox="0 0 44.43 44.7"><g id="Layer_2" data-name="Layer 2"><g id="Layer_1-2" data-name="Layer 1"><path d="M29.53,14.9a7.45,7.45,0,0,0-14.9,0h14.9ZM22.08,29.8a7.45,7.45,0,1,0-7.45-7.45A7.45,7.45,0,0,0,22.08,29.8Zm-7.45,0a7.45,7.45,0,0,0,14.9,0H14.63Zm14.9-14.9V29.8a7.45,7.45,0,0,0,0-14.9Zm0,22.35A7.45,7.45,0,0,0,37,29.8H29.53ZM37,14.9a7.44,7.44,0,0,0-7.45-7.45V14.9ZM7.45,29.8H7.18a7.46,7.46,0,0,0,7.45,7.45V29.8ZM37,14.9V29.8a7.45,7.45,0,1,0,0-14.9ZM14.63,37.25a7.45,7.45,0,0,0,14.9,0H14.63Zm14.9-29.8a7.45,7.45,0,0,0-14.9,0h14.9ZM14.63,29.8V14.9a7.44,7.44,0,0,0-7.18,5.5V14.9a7.45,7.45,0,0,0,0,14.9V24.3A7.44,7.44,0,0,0,14.63,29.8Zm0-22.35A7.45,7.45,0,0,0,7.18,14.9h7.45Z"/></g></g></svg>