<svg xmlns="http://www.w3.org/2000/svg" viewBox="0 0 61.88 35.41"><defs><style>.cls-1{fill:#1d1d1b;}</style></defs><g id="Layer_2" data-name="Layer 2"><g id="Layer_1-2" data-name="Layer 1"><path class="cls-1" d="M15.12,24.77l4.48-4.48c1.59-1.59,3.13-3.32,4.85-4.79a13.4,13.4,0,0,1,7.45-3.1h3c3.5-.05,6.74-.68,9.55-2.92a33.58,33.58,0,0,0,2.73-2.61l4-4L53.87.13A16.46,16.46,0,0,1,51.66.07c-1.78,0-3.56,0-5.35,0s-3.56,0-5.34,0c-.4,0-2-.19-2.21.06L32.53,6.35c-.71.71-1.41,1.43-2.13,2.13a13.49,13.49,0,0,1-8.12,3.8q-1.83,0-3.66,0A14.22,14.22,0,0,0,9.33,15.5C7,17.5,4.9,19.87,2.72,22.05L0,24.77a18.6,18.6,0,0,1,2.21.05l5.35,0,5.34,0C13.3,24.82,14.87,25,15.12,24.77ZM59.67,10.58c-1.79,0-3.57,0-5.35,0s-3.56,0-5.34,0c-.4,0-2-.19-2.22.06l-6.23,6.22c-.7.71-1.41,1.43-2.12,2.13a13.51,13.51,0,0,1-8.12,3.8q-1.83,0-3.66,0A14.22,14.22,0,0,0,17.34,26c-2.35,2-4.43,4.37-6.61,6.55L8,35.28a18.6,18.6,0,0,1,2.21,0c1.78,0,3.56,0,5.35,0s3.56,0,5.34,0c.4,0,2,.2,2.21,0L27.6,30.8c1.6-1.59,3.13-3.32,4.85-4.79a13.43,13.43,0,0,1,7.45-3.1h3c3.5,0,6.74-.68,9.54-2.92a32,32,0,0,0,2.73-2.61q2-2,4-4l2.74-2.73A16.4,16.4,0,0,1,59.67,10.58Z"/></g></g></svg>