<svg xmlns="http://www.w3.org/2000/svg" viewBox="0 0 62.26 36.8"><defs><style>.cls-1{fill:#1d1d1b;}</style></defs><g id="Layer_2" data-name="Layer 2"><g id="Layer_1-2" data-name="Layer 1"><path class="cls-1" d="M51.61,0h0ZM23.1,18.38c7.44.55,7.89,1,8.43,8.44.55-7.45,1-7.89,8.44-8.44-7.45-.55-7.89-1-8.44-8.44C31,17.39,30.54,17.83,23.1,18.38ZM51.61,0H28.77c-9.43,0-16,2.11-21.7,7.79A32.51,32.51,0,0,0,0,18.42H21C30.05,1,48.63,0,51.61,0ZM10.66,36.8h0ZM41.28,18.38C32.21,35.83,13.63,36.76,10.66,36.8H33.49c9.43,0,16-2.11,21.7-7.79a32.51,32.51,0,0,0,7.07-10.63Z"/></g></g></svg>