<svg xmlns="http://www.w3.org/2000/svg" viewBox="0 0 64.7 24.74"><defs><style>.cls-1{fill:#1d1d1b;}</style></defs><g id="Layer_2" data-name="Layer 2"><g id="Layer_1-2" data-name="Layer 1"><path class="cls-1" d="M32.59,20.15c1.49-4.73,2.86-6.11,7.6-7.59a.2.2,0,0,0,0-.38c-4.74-1.48-6.11-2.86-7.6-7.59a.19.19,0,0,0-.37,0c-1.49,4.73-2.86,6.11-7.6,7.59a.2.2,0,0,0,0,.38c4.74,1.48,6.11,2.86,7.6,7.59A.19.19,0,0,0,32.59,20.15Zm32.1-7.78C64.69,5.54,50.23,0,32.4,0,43.25,0,52.06,5.54,52.06,12.37s-8.8,12.37-19.65,12.37c17.83,0,32.29-5.54,32.29-12.37Zm-52,0C12.64,5.54,21.45,0,32.3,0,14.47,0,0,5.54,0,12.37H0C0,19.2,14.46,24.74,32.29,24.74,21.44,24.74,12.64,19.2,12.64,12.37Z"/></g></g></svg>