<svg xmlns="http://www.w3.org/2000/svg" viewBox="0 0 60.72 32.7"><defs><style>.cls-1{fill:#1d1d1b;}</style></defs><g id="Layer_2" data-name="Layer 2"><g id="Layer_1-2" data-name="Layer 1"><path class="cls-1" d="M51,4.35l-.12-.06C45.3,1.52,38,0,30.36,0S15.42,1.52,9.83,4.29l-.12.06C3.45,7.46,0,11.72,0,16.35s3.7,9.14,10.14,12.22a47.9,47.9,0,0,0,20.15,4.12h.13a47.79,47.79,0,0,0,20.16-4.12C57,25.49,60.72,21,60.72,16.35S57.27,7.46,51,4.35ZM10.74,15.84a13.42,13.42,0,0,1,4.13-8.9h6.85a22.73,22.73,0,0,0-1.93,8.9Zm11,9.91H14.87a13.36,13.36,0,0,1-4.13-8.91h9A22.53,22.53,0,0,0,21.71,25.75ZM16,5.94A21.47,21.47,0,0,1,26.14,1.37,12.65,12.65,0,0,0,22.2,5.94Zm-5.91-.65.12,0a39.89,39.89,0,0,1,10.72-3.4,20.69,20.69,0,0,0-6.44,4.1H8.84C9.23,5.72,9.64,5.5,10.05,5.29ZM7.22,6.94H13.5a14.2,14.2,0,0,0-3.76,8.9H1C1.23,12.62,3.43,9.49,7.22,6.94ZM1,16.84H9.74a14.13,14.13,0,0,0,3.76,8.91H7.21C3.42,23.21,1.23,20.08,1,16.84Zm9.55,10.82c-.61-.29-1.19-.59-1.74-.91h5.61a20.6,20.6,0,0,0,6.42,4.1A40.16,40.16,0,0,1,10.58,27.66ZM16,26.75H22.2a12.6,12.6,0,0,0,3.94,4.58A21.39,21.39,0,0,1,16,26.75Zm13.9,4.91c-2.57-.22-4.88-2.06-6.53-4.91h6.53Zm0-5.91H22.8a21.49,21.49,0,0,1-2-8.91h9.07Zm0-9.91H20.79a21.68,21.68,0,0,1,2-8.9h7.06Zm0-9.9H23.34C25,3.1,27.29,1.26,29.86,1Zm29.83,9.9H51a14.2,14.2,0,0,0-3.76-8.9H53.5C57.29,9.49,59.49,12.62,59.69,15.84Zm-18.76,1h9a13.39,13.39,0,0,1-4.12,8.91H39A22.53,22.53,0,0,0,40.93,16.84Zm0-1A22.73,22.73,0,0,0,39,6.94h6.85A13.42,13.42,0,0,1,50,15.84Zm9.62-10.6.12,0c.41.21.81.43,1.21.65H46.27a20.58,20.58,0,0,0-6.44-4.1A39.89,39.89,0,0,1,50.55,5.24Zm-5.79.7H38.52a12.65,12.65,0,0,0-3.94-4.57A21.47,21.47,0,0,1,44.76,5.94ZM30.86,1c2.58.22,4.88,2.06,6.53,4.9H30.86Zm0,5.9h7.06a21.68,21.68,0,0,1,2,8.9H30.86Zm0,9.9h9.07a21.49,21.49,0,0,1-2,8.91H30.86Zm0,9.91h6.53c-1.65,2.85-4,4.69-6.53,4.91Zm7.66,0h6.24a21.39,21.39,0,0,1-10.18,4.58A12.6,12.6,0,0,0,38.52,26.75Zm11.62.91a40.28,40.28,0,0,1-10.29,3.19,20.76,20.76,0,0,0,6.43-4.1h5.6C51.33,27.07,50.75,27.37,50.14,27.66Zm3.37-1.91H47.22A14.13,14.13,0,0,0,51,16.84h8.71C59.49,20.08,57.3,23.21,53.51,25.75Z"/></g></g></svg>