<svg xmlns="http://www.w3.org/2000/svg" viewBox="0 0 41.35 41.35"><g id="Layer_2" data-name="Layer 2"><g id="Layer_1-2" data-name="Layer 1"><path d="M40.82,20.06c-5.29-.78-9.45-1.48-12.69-1.9a.61.61,0,0,1-.41-1c2-2.59,4.45-6,7.63-10.32A.61.61,0,0,0,34.49,6c-4.3,3.18-7.73,5.63-10.32,7.63a.61.61,0,0,1-1-.41C22.77,10,22.07,5.82,21.29.53a.62.62,0,0,0-1.23,0c-.78,5.29-1.48,9.45-1.9,12.69a.61.61,0,0,1-1,.41c-2.59-2-6-4.45-10.32-7.63A.61.61,0,0,0,6,6.86c3.18,4.29,5.63,7.73,7.63,10.32a.61.61,0,0,1-.41,1c-3.24.42-7.4,1.12-12.69,1.9a.62.62,0,0,0,0,1.23c5.29.78,9.45,1.48,12.69,1.9a.61.61,0,0,1,.41,1c-2,2.59-4.45,6-7.63,10.32a.61.61,0,0,0,.86.86c4.29-3.18,7.73-5.63,10.32-7.63a.61.61,0,0,1,1,.41c.42,3.24,1.12,7.4,1.9,12.69a.62.62,0,0,0,1.23,0c.78-5.29,1.48-9.45,1.9-12.69a.61.61,0,0,1,1-.41c2.59,2,6,4.45,10.32,7.63a.61.61,0,0,0,.86-.86c-3.18-4.3-5.63-7.73-7.63-10.32a.61.61,0,0,1,.41-1c3.24-.42,7.4-1.12,12.69-1.9A.62.62,0,0,0,40.82,20.06Z"/></g></g></svg>