<svg xmlns="http://www.w3.org/2000/svg" viewBox="0 0 44.81 48.69"><defs><style>.cls-1{isolation:isolate;}.cls-2{fill:#1d1d1b;}.cls-3{fill:none;}.cls-4,.cls-5{fill:#fff;}.cls-4{stroke:#000;stroke-miterlimit:10;stroke-width:0.02px;}</style></defs><g id="Layer_2" data-name="Layer 2"><g id="Layer_1-2" data-name="Layer 1"><g class="cls-1"><g class="cls-1"><path class="cls-2" d="M26,6.57,26,29c0-2.21-1.45-4.42-4.36-6.1L21.68.47c2.91,1.68,4.37,3.89,4.36,6.1"/></g><path class="cls-2" d="M26,6.57,26,29c0-2.21-1.45-4.42-4.36-6.1L21.68.47C24.59,2.15,26.05,4.36,26,6.57Z"/></g><path class="cls-3" d="M27.15,6.56,27.08,29c0,2.34-1.54,4.68-4.61,6.46C16.29,39,6.22,39,0,35.43L.06,13c6.22,3.59,16.3,3.59,22.48,0C25.6,11.25,27.14,8.91,27.15,6.56Z"/><g class="cls-1"><polyline class="cls-3" points="27.15 6.71 27.15 6.7 27.15 6.56"/><path class="cls-2" d="M27.15,6.72l-.07,22.39A4.71,4.71,0,0,1,27,30a4.82,4.82,0,0,1-.25.9,5.68,5.68,0,0,1-.43.9,6.88,6.88,0,0,1-.64,1,8.8,8.8,0,0,1-1,1.07,13.08,13.08,0,0,1-2,1.48,1.6,1.6,0,0,1-.19.11A17.88,17.88,0,0,1,19,37a22.83,22.83,0,0,1-3,.75c-.67.12-1.34.22-2,.28s-1.17.1-1.77.12-1.08,0-1.62,0S9.51,38.08,9,38s-1-.1-1.55-.18-1.06-.16-1.58-.27-1.12-.26-1.66-.41-1.3-.41-1.92-.65A16.69,16.69,0,0,1,0,35.43L.06,13a17.09,17.09,0,0,0,2.28,1.09,18.4,18.4,0,0,0,1.94.65c.54.16,1.09.29,1.66.41s1,.2,1.57.28,1,.13,1.55.17,1,.07,1.56.08,1.09,0,1.64,0,1.18-.07,1.76-.12,1.36-.17,2-.29a22.59,22.59,0,0,0,3-.75A18.4,18.4,0,0,0,22.54,13a.86.86,0,0,1,.19-.11,12,12,0,0,0,2-1.49,10.67,10.67,0,0,0,1-1,7.52,7.52,0,0,0,.63-1,5.68,5.68,0,0,0,.43-.9,6.1,6.1,0,0,0,.26-.9A5.53,5.53,0,0,0,27.15,6.72Z"/></g><path class="cls-4" d="M22.46,0c6.22,3.59,6.25,9.43.08,13S6.28,16.62.06,13l.78-.45c5.78,3.34,15.16,3.34,20.92,0S27.46,3.8,21.68.47Z"/><path class="cls-3" d="M21,20.58s0,0,0,0a7.29,7.29,0,0,0,.37.74C21.28,21.1,21.14,20.84,21,20.58Z"/><path class="cls-3" d="M23.86,14a10.54,10.54,0,0,0-.8.87l0,0A10,10,0,0,1,23.86,14Z"/><path class="cls-3" d="M22.08,16.46c.06-.14.13-.28.2-.42C22.21,16.18,22.14,16.32,22.08,16.46Z"/><path class="cls-3" d="M22.49,15.65c.1-.17.22-.34.35-.52C22.71,15.31,22.59,15.48,22.49,15.65Z"/><path class="cls-3" d="M21.7,18.12c0-.14,0-.29.05-.43C21.73,17.83,21.71,18,21.7,18.12Z"/><path class="cls-3" d="M21.82,17.28l.12-.41Z"/><path class="cls-3" d="M25.21,12.89c.18-.12.35-.24.54-.35C25.56,12.65,25.39,12.77,25.21,12.89Z"/><path class="cls-3" d="M24.28,13.6c.16-.14.32-.28.49-.41C24.6,13.32,24.44,13.46,24.28,13.6Z"/><path class="cls-3" d="M21.68,21.74c-.05-.07-.11-.14-.16-.22l0,.06.07.12.05.07Z"/><path class="cls-3" d="M21,20.47a5.67,5.67,0,0,1-.22-.66A5.67,5.67,0,0,0,21,20.47Z"/><path class="cls-3" d="M20.61,18.88c0,.19.05.39.08.58a.13.13,0,0,1,0,.06s0,.08,0,.13A5.39,5.39,0,0,1,20.61,18.88Z"/><path class="cls-3" d="M27.22,11.76c-.43.2-.84.41-1.23.64C26.38,12.17,26.79,12,27.22,11.76Z"/><path d="M25.78,25.24h0l.09.05.19.1.64.3Z"/><path d="M27,25.81l.49.21.08,0,.62.24C27.75,26.14,27.36,26,27,25.81Z"/><path d="M24.54,24.51l.11.07c.29.18.59.37.9.54C25.2,24.92,24.86,24.72,24.54,24.51Z"/><path d="M23.9,24.05c.17.13.34.26.52.38-.18-.12-.35-.26-.52-.38Z"/><path d="M25.62,25.16l.16.08h0Z"/><path d="M23,23.27v0l.31.27.15.13,0,0C23.31,23.58,23.14,23.43,23,23.27Z"/><path d="M23.58,23.81l.32.24h0Z"/><path d="M22.39,22.66v0l0,0,.23.25A4,4,0,0,1,22.39,22.66Z"/><path d="M22.82,23.13l.16.16v0Z"/><path d="M22.39,22.66c-.11-.12-.24-.25-.34-.38a3.74,3.74,0,0,0,.27.31.61.61,0,0,0,.07.1Z"/><path d="M21.77,21.9l.19.26c-.07-.09-.12-.19-.19-.28Z"/><path d="M21.68,21.75v0l.09.13v0Z"/><path d="M44.2,11.17c-.4-.15-.82-.28-1.24-.4h0q-.72-.21-1.47-.36h0l-.51-.09c-.29-.05-.58-.11-.87-.15H40l-.63-.08L38.61,10h-.08l-.61,0-.75,0h-1.6l-.4,0-1,.07-.22,0-.29,0c-.45,0-.89.12-1.32.19l-.3,0-.17,0-.82.17-.56.13c-.29.07-.57.16-.86.24L29.2,11h-.05q-.81.27-1.56.6l-.37.16c-.43.2-.84.41-1.23.64l-.18.1-.06,0c-.19.11-.36.23-.54.35l-.44.3c-.17.13-.33.27-.49.41l-.35.29-.07.06a10,10,0,0,0-.78.85l0,0,0,.08-.17.23c-.13.18-.25.35-.35.52l-.08.15-.13.24c-.07.14-.14.28-.2.42l-.06.19c0,.07-.05.15-.08.22l-.12.41a2,2,0,0,1,0,.24l0,.17c0,.14,0,.29-.05.43a5,5,0,0,0,.08,1.16,5.71,5.71,0,0,0,.23.88,5.45,5.45,0,0,0,.39.86,7,7,0,0,0,.59.91,8.33,8.33,0,0,0,.91,1,11.71,11.71,0,0,0,1.88,1.42,17,17,0,0,0,3,1.4l0,7.79.37-.13h.05c.13,0,.27-.08.41-.12l.86-.25L31,32.9c.28-.07.55-.13.83-.18l.17,0,.29,0c.44-.07.88-.13,1.33-.18l.28,0,.22,0,1-.07.4,0h1.6c.25,0,.5,0,.75,0s.4,0,.6,0h.08l.72.08.63.07H40c.3,0,.58.1.87.15l.52.09h0c.5.11,1,.23,1.47.36h0c.42.12.83.25,1.24.4l.57-.54.07-22.41Z"/><polygon points="21.68 21.75 21.68 21.74 21.68 21.77 21.68 21.77 21.68 21.75"/><path d="M28.17,26.28,28.1,48.69l-.62-.24-.08,0a15.12,15.12,0,0,1-1.4-.63l-.19-.1A13,13,0,0,1,24.59,47a1.13,1.13,0,0,1-.18-.12,9.2,9.2,0,0,1-1-.77L23.22,46c-.31-.27-.59-.55-.86-.83L22.25,45a9.64,9.64,0,0,1-.69-.89L21.5,44A7.34,7.34,0,0,1,21,43l0-.1a5.38,5.38,0,0,1-.32-1,.15.15,0,0,0,0-.06,4.7,4.7,0,0,1-.1-1.06l0-22.41a1.66,1.66,0,0,0,0,.32.86.86,0,0,0,0,.16,5.6,5.6,0,0,0,.07.59s0,0,0,.06a.84.84,0,0,1,0,.12,1,1,0,0,0,0,.17,5.67,5.67,0,0,0,.22.66l0,.11,0,0a7.21,7.21,0,0,0,.36.74.76.76,0,0,0,.11.16l0,.06.07.12a.16.16,0,0,1,0,.07,0,0,0,0,0,0,0s.06.07.09.12l.19.26s.05.08.09.11a2.69,2.69,0,0,0,.27.32l.07.1,0,0,.23.25.16.16.16.15.31.28.14.13.06,0,.08.09c.11.08.22.17.33.24l.52.38.12.08a.67.67,0,0,0,.11.07c.29.19.58.36.9.54l.08,0,.15.08.09,0a1.24,1.24,0,0,0,.2.1c.2.11.41.21.63.31l.27.12.5.21.07,0C27.74,26.13,28,26.21,28.17,26.28Z"/><polygon class="cls-5" points="28.16 26.29 28.1 48.69 28.68 48.14 28.72 33.53 28.74 25.74 28.16 26.29"/><path class="cls-4" d="M20.63,18.88a5.34,5.34,0,0,0,.12.77,1.42,1.42,0,0,0,.05.16,5.6,5.6,0,0,0,.21.66.76.76,0,0,1,0,.11,7.09,7.09,0,0,0,.39.78l.1.16.15.22h0a1.13,1.13,0,0,1,.1.13c.06.09.12.19.19.28l.08.12c.11.13.23.26.35.38a4,4,0,0,0,.27.31l.16.16.16.14c.16.16.32.31.5.46l.1.08.32.24c.17.12.34.26.52.38l.12.08c.32.21.65.41,1,.61l.07,0,.16.08.92.45.27.12c.38.17.78.33,1.19.48l.58-.55a16.28,16.28,0,0,1-3-1.4,11.28,11.28,0,0,1-1.88-1.42,9.39,9.39,0,0,1-.92-1,7,7,0,0,1-.59-.91,6.45,6.45,0,0,1-.38-.86,4.76,4.76,0,0,1-.23-.88,5,5,0,0,1-.08-1.16c0-.14,0-.29.05-.43l0-.17a2,2,0,0,1,0-.24c0-.13.08-.27.12-.41a2,2,0,0,1,.08-.22l.06-.19c.06-.14.13-.28.2-.42s.08-.16.13-.24a1.09,1.09,0,0,1,.08-.15c.1-.17.22-.34.34-.52S23,15,23,14.9l.06-.08a10.54,10.54,0,0,1,.8-.87l.07-.06.35-.29c.16-.14.32-.28.49-.41l.44-.3c.18-.12.35-.24.54-.35l.06,0a1,1,0,0,0,.17-.1c.4-.23.81-.44,1.24-.64l.37-.16q.75-.33,1.56-.6h0l.41-.13c.28-.08.57-.17.86-.24l.56-.13.82-.17.17,0,.3,0c.43-.07.87-.14,1.31-.19l.3,0,.22,0,1-.07.41,0h1.6l.74,0,.61,0h.09l.71.08.63.08h.08c.29,0,.58.1.87.15l.51.09h0q.75.15,1.47.36h0c.42.12.83.25,1.24.4l.57-.55C37.33,8,27.52,9.3,22.94,13.62a6.48,6.48,0,0,0-2.32,5.09A1,1,0,0,0,20.63,18.88Z"/><path class="cls-3" d="M28.74,25.74s-9.71-3.37-6.33-10c3-5.6,14.65-7.4,21.79-4.6l.58-.55L44.71,33l-.57.54a22.29,22.29,0,0,0-8.28-1.27,21.76,21.76,0,0,0-7.12,1.22Z"/></g></g></svg>