<svg xmlns="http://www.w3.org/2000/svg" viewBox="0 0 37.14 58.02"><g id="Layer_2" data-name="Layer 2"><g id="Layer_1-2" data-name="Layer 1"><path d="M18.52,3.8s.08,0,.09,0A2.24,2.24,0,0,1,20.45,2a0,0,0,0,0,0-.09A2.24,2.24,0,0,1,18.61,0s-.07,0-.09,0a2.23,2.23,0,0,1-1.83,1.84,0,0,0,0,0,0,.09A2.23,2.23,0,0,1,18.52,3.8Zm18.62,32a3.36,3.36,0,0,0-1.9-2.65,3.34,3.34,0,0,0,1.9-2.65c0-2.62-4.65-4.4-10.51-5.24-1.67-2.28-3-4.1-4.1-5.45a.23.23,0,0,1,.15-.37c2.07-.25,4.8-.72,8.38-1.24a.23.23,0,0,0,0-.46c-3.19-.47-5.71-.89-7.69-1.16a.22.22,0,0,1-.14-.36c1.52-2,3.43-4.67,6-8.13a.23.23,0,0,0-.33-.32c-3.69,2.76-6.52,4.75-8.51,6.32a.22.22,0,0,1-.36-.15c-.25-2.08-.73-4.83-1.26-8.45a.23.23,0,0,0-.46,0c-.52,3.61-1,6.37-1.25,8.45a.23.23,0,0,1-.37.15c-2-1.58-4.81-3.56-8.5-6.32a.23.23,0,0,0-.33.32c2.59,3.46,4.5,6.17,6,8.13a.22.22,0,0,1-.15.36c-2,.27-4.49.69-7.68,1.16a.23.23,0,0,0,0,.46c3.57.51,6.3,1,8.37,1.24a.23.23,0,0,1,.15.37c-1.11,1.35-2.43,3.18-4.1,5.45C4.64,26.12,0,27.9,0,30.52a3.35,3.35,0,0,0,1.89,2.65A3.37,3.37,0,0,0,0,35.82a3.34,3.34,0,0,0,1.89,2.65A3.37,3.37,0,0,0,0,41.12a3.37,3.37,0,0,0,1.89,2.66A3.34,3.34,0,0,0,0,46.43c0,3.69,9.18,5.71,18,5.79.1,2.17.21,4.09.31,5.58a.24.24,0,0,0,.47,0c.1-1.49.21-3.41.31-5.58,8.84-.08,18-2.1,18-5.79a3.33,3.33,0,0,0-1.9-2.65,3.36,3.36,0,0,0,1.9-2.66,3.36,3.36,0,0,0-1.9-2.65A3.33,3.33,0,0,0,37.14,35.82ZM17.76,45.91A40.49,40.49,0,0,1,4.18,43.78a39.89,39.89,0,0,1,13.43-2.14C17.66,43.08,17.71,44.51,17.76,45.91Zm-.18-5.3a40.25,40.25,0,0,1-13.4-2.14,40.1,40.1,0,0,1,13.26-2.13C17.48,37.74,17.53,39.17,17.58,40.61ZM17.4,35.3A39.62,39.62,0,0,1,4.18,33.17,39.72,39.72,0,0,1,17.27,31C17.31,32.39,17.36,33.82,17.4,35.3Zm-.76-12.41a.23.23,0,0,1,.37.17c0,.47,0,1,.06,1.69-1,0-2.07.08-3.09.15C15,24.16,15.88,23.49,16.64,22.89ZM1,30.52c0-1.53,3.31-3.19,8.66-4.1-.56.76-1.14,1.56-1.78,2.41a.23.23,0,0,0,.33.32c1.56-1.16,2.95-2.19,4.2-3.1,1.47-.16,3-.26,4.69-.3,0,1.24.09,2.69.14,4.29-5.52.13-11,1-14.31,2.56C1.69,31.94,1,31.22,1,30.52Zm0,5.3c0-.69.69-1.41,1.93-2.08a27.76,27.76,0,0,0,8,2.08,28.16,28.16,0,0,0-8,2.09C1.69,37.24,1,36.52,1,35.82Zm0,5.3c0-.69.69-1.41,1.93-2.08a27.78,27.78,0,0,0,8,2.08,28.08,28.08,0,0,0-8,2.09C1.69,42.54,1,41.82,1,41.12Zm0,5.31c0-.7.69-1.42,1.93-2.09C6.3,46,12.1,46.84,17.8,46.91c.06,1.5.12,2.94.18,4.31C8,51.12,1,48.65,1,46.43ZM20.12,23.06a.23.23,0,0,1,.37-.17q1.14.9,2.67,2c-1-.07-2.06-.13-3.1-.15C20.08,24.1,20.1,23.53,20.12,23.06ZM20,25.75c1.67,0,3.23.14,4.7.3,1.25.91,2.64,1.93,4.2,3.1a.23.23,0,0,0,.33-.32c-.64-.85-1.22-1.65-1.78-2.41,5.35.91,8.67,2.57,8.67,4.1,0,.7-.69,1.42-1.93,2.08C31,31,25.42,30.16,19.89,30,19.94,28.44,20,27,20,25.75ZM19.86,31A39.74,39.74,0,0,1,33,33.17,39.69,39.69,0,0,1,19.73,35.3C19.77,33.82,19.82,32.39,19.86,31Zm-.17,5.3A40.12,40.12,0,0,1,33,38.47a39.8,39.8,0,0,1-13.41,2.14C19.6,39.17,19.65,37.74,19.69,36.34Zm-.17,5.3A40,40,0,0,1,33,43.78a40.3,40.3,0,0,1-13.59,2.13C19.42,44.51,19.47,43.08,19.52,41.64Zm16.62,4.79c0,2.22-6.95,4.69-17,4.79.06-1.37.12-2.81.18-4.31C25,46.84,30.84,46,34.21,44.34,35.45,45,36.14,45.73,36.14,46.43Zm0-5.31c0,.7-.69,1.42-1.93,2.09a28.17,28.17,0,0,0-8-2.09,27.87,27.87,0,0,0,8-2.08C35.45,39.71,36.14,40.43,36.14,41.12Zm-1.93-3.21a28.16,28.16,0,0,0-8-2.09,27.85,27.85,0,0,0,8-2.08c1.24.67,1.93,1.39,1.93,2.08S35.45,37.24,34.21,37.91Z"/></g></g></svg>