<svg xmlns="http://www.w3.org/2000/svg" viewBox="0 0 59.68 59.91"><g id="Layer_2" data-name="Layer 2"><g id="Layer_1-2" data-name="Layer 1"><path d="M11.76,27.59c.72-.61,2.06-1.15,4.74-.56,0,0-3.57-2.44-.15-3.64,3.06-1.07,8.21-.38,12.44.64,0,0-13.76-4-16-.09-5.05,8.94-7-.07-4.22-16.17,0,0-5,16.34,1.26,27.46C9.84,35.23,9,29.93,11.76,27.59Zm4-9.2c.94-.12,2.36.15,4.29,2.09,0,0-1.69-4,1.85-3.14C25,18.09,29,21.46,32,24.61c0,0-9.4-10.84-13.4-8.73C9.5,20.67,12.77,12.05,23.78,0c0,0-13,11.05-13.79,23.78C10,23.78,12.12,18.84,15.74,18.39ZM47,26.89c-.52.78-1.65,1.68-4.38,1.86,0,0,4.11,1.34,1.16,3.46C41.12,34.1,36,34.88,31.63,35.09c0,0,14.35,0,15.37-4.42,2.33-10,6.71-1.89,8.6,14.33,0,0,.18-17.08-8.94-26C46.66,19,49,23.84,47,26.89ZM26.79,9.61s5.38-.12,7.3,3c.49.8.84,2.2-.12,4.77,0,0,2.92-3.19,3.62.37.63,3.18-.8,8.18-2.41,12.22,0,0,6-13,2.37-15.81-8.13-6.28,1.06-6.89,16.6-1.87C54.15,12.28,38.69,5,26.79,9.61ZM59.68,28.43S50.6,14,38.1,11.39c0,0,4.59,2.81,4.53,6.46,0,.94-.48,2.31-2.68,3.95,0,0,4.18-1.11,2.84,2.27-1.19,3-5.09,6.45-8.63,9,0,0,12.06-7.76,10.54-12C41.25,11.35,49.32,15.81,59.68,28.43ZM16.31,14.23s4.46-3,7.76-1.43c.85.41,1.9,1.4,2.47,4.08,0,0,.74-4.26,3.25-1.65,2.25,2.34,3.75,7.32,4.58,11.59,0,0-2-14.2-6.56-14.59-10.23-.88-2.82-6.37,13-10.55C40.77,1.68,23.84,3.93,16.31,14.23ZM15.91,45s-3.62-4-2.52-7.47c.28-.9,1.11-2.08,3.68-3,0,0-4.32-.12-2.09-3,2-2.55,6.7-4.75,10.81-6.18,0,0-13.76,4-13.5,8.57C12.87,44.1,6.39,37.55,0,22.53,0,22.53,4.64,39,15.91,45Zm29.83-8.12c-.86.38-2.3.52-4.7-.8,0,0,2.74,3.35-.88,3.54-3.24.16-8-2-11.76-4.13,0,0,12.07,7.75,15.32,4.6,7.37-7.16,6.66,2-.51,16.7,0,0,9.38-14.27,6.53-26.7C49.74,30,49.1,35.37,45.74,36.83Zm-6.41,7.71c-.93-.15-2.22-.81-3.52-3.22,0,0,.49,4.3-2.66,2.5-2.81-1.61-5.66-6-7.66-9.83,0,0,6,13,10.41,12.15,10.06-2,4.5,5.31-9.46,13.77,0,0,15.6-6.93,19.93-18.93C46.37,41,42.94,45.12,39.33,44.54Zm-13.07,5.3s-5.19-1.39-6.16-4.92c-.25-.91-.19-2.35,1.46-4.54,0,0-3.7,2.24-3.37-1.38.29-3.23,3.07-7.62,5.75-11,0,0-9.38,10.85-6.72,14.51,6,8.31-3,6.31-16.46-2.88C.76,39.58,13.55,50.9,26.26,49.84Zm3.51-2.29c-.7-.63-1.43-1.87-1.23-4.61,0,0-1.9,3.88-3.58.67-1.49-2.88-1.54-8.08-1.13-12.41,0,0-2,14.2,2.19,15.84,9.56,3.73.91,6.91-15.41,6.48,0,0,16.88,2.6,27-5.16C37.61,48.36,32.49,50,29.77,47.55Z"/></g></g></svg>