<svg xmlns="http://www.w3.org/2000/svg" viewBox="0 0 49.11 49.1"><defs><style>.cls-1{fill:#1d1d1b;}</style></defs><g id="Layer_2" data-name="Layer 2"><g id="Layer_1-2" data-name="Layer 1"><path class="cls-1" d="M24.56,0A24.55,24.55,0,1,0,49.11,24.55,24.56,24.56,0,0,0,24.56,0Zm16,27.48h-9L38,33.81A2.92,2.92,0,0,1,38,38a2.92,2.92,0,0,1-4.14,0l-6.33-6.33v9a2.93,2.93,0,0,1-5.86,0v-9L15.29,38a2.92,2.92,0,0,1-4.14,0,2.92,2.92,0,0,1,0-4.14l6.33-6.33h-9a2.93,2.93,0,1,1,0-5.86h9l-6.33-6.34a2.93,2.93,0,0,1,4.14-4.14l6.34,6.33V8.52a2.93,2.93,0,0,1,5.86,0v9l6.33-6.33A2.93,2.93,0,0,1,38,15.28l-6.33,6.34h9a2.93,2.93,0,1,1,0,5.86Z"/></g></g></svg>