<svg xmlns="http://www.w3.org/2000/svg" viewBox="0 0 53.09 53.08"><g id="Layer_2" data-name="Layer 2"><g id="Layer_1-2" data-name="Layer 1"><path d="M49.85,34.72A14.65,14.65,0,0,0,35.73,20.6V17.36H32.47A14.64,14.64,0,0,0,18.36,3.24V0h-1V3.24A14.65,14.65,0,0,0,3.24,17.36H0v1H3.24A14.64,14.64,0,0,0,17.36,32.47v3.25h3.26A14.63,14.63,0,0,0,34.73,49.83v3.25h1V49.83A14.65,14.65,0,0,0,49.85,35.72h3.24v-1ZM17.36,27.31h-1v1h1v3.18A13.64,13.64,0,0,1,4.24,18.36h2.7v1h1v-1h3.71a6.25,6.25,0,0,0,5.73,5.72Zm0-20.37h-1v1h1v3.71a6.27,6.27,0,0,0-5.73,5.73H7.92v-1h-1v1H4.24A13.65,13.65,0,0,1,17.36,4.24Zm1,1h1v-1h-1V4.24A13.64,13.64,0,0,1,31.47,17.36H28.92v-1h-1v1H24.08a6.25,6.25,0,0,0-5.72-5.73Zm0,20.37h1v-1h-1V24.08a6.23,6.23,0,0,0,5.72-5.72h3.86v1h1v-1h2.55a12.91,12.91,0,0,1-.42,2.86,14.63,14.63,0,0,0-9.82,9.83,13,13,0,0,1-2.87.42Zm12.35-5.92a13.67,13.67,0,0,1-8.33,8.33A13.67,13.67,0,0,1,30.71,22.37ZM18.36,34.72V32.47a14.68,14.68,0,0,0,2.58-.32,14.45,14.45,0,0,0-.32,2.57Zm16.37,10h-1v1h1v3.18A13.63,13.63,0,0,1,21.62,35.72h2.69v1h1v-1H29a6.23,6.23,0,0,0,5.72,5.72Zm0-20.37h-1v1h1V29A6.25,6.25,0,0,0,29,34.72H25.29v-1h-1v1H21.62A12.82,12.82,0,0,1,22,31.86,14.64,14.64,0,0,0,31.86,22a14.29,14.29,0,0,1,2.87-.42Zm-2.58-3.37a14.45,14.45,0,0,0,.32-2.57h2.26V20.6A14.68,14.68,0,0,0,32.15,20.93Zm3.58,27.9V45.65h1v-1h-1V41.44a6.23,6.23,0,0,0,5.72-5.72h3.86v1h1v-1h2.56A13.64,13.64,0,0,1,35.73,48.83ZM46.29,34.72v-1h-1v1H41.45A6.25,6.25,0,0,0,35.73,29V25.28h1v-1h-1V21.6A13.65,13.65,0,0,1,48.85,34.72Z"/></g></g></svg>