<svg xmlns="http://www.w3.org/2000/svg" viewBox="0 0 31.64 56.99"><g id="Layer_2" data-name="Layer 2"><g id="Layer_1-2" data-name="Layer 1"><path d="M31.61,53c-.16-1-.26-1.92-.4-2.88s-.25-1.86-.44-2.78c-.12-.6-.35-1.18-.51-1.77a3.17,3.17,0,0,0-1-1.63c-.34-.3-.65-.64-1-1a.72.72,0,0,1-.06-1,6.41,6.41,0,0,0,.46-.95c.23-.43.5-.82.69-1.26a12.28,12.28,0,0,0,.55-1.54,10.08,10.08,0,0,0,.22-1.12,10.82,10.82,0,0,0,.2-1.39c.09-2.67,0-5.36.26-8,.35-3.88.08-7.76.16-11.65a15.25,15.25,0,0,0-.36-2.49c0-.18,0-.35-.05-.52,0-1.55,0-3.09,0-4.63a3.91,3.91,0,0,0-1-2.56,16.75,16.75,0,0,0-2-1.62c-.43-.35-.82-.74-1.27-1.06s-.93-.59-1.41-.87A12,12,0,0,0,20.58.85C20,.76,19.52.53,19,.44,18.23.33,17.46.3,16.7.21A4.85,4.85,0,0,1,15.93,0h-1.7c-.49.14-1,.31-1.46.42s-1,.15-1.43.23A9.56,9.56,0,0,0,6.61,2.47c-.21.18-.49.25-.71.41A26.34,26.34,0,0,0,3,5.1,3.52,3.52,0,0,0,2.16,7c-.24,1.31-.33,2.66-.45,4-.1,1.18-.17,2.37-.21,3.55s0,2.35,0,3.52.05,2.58.09,3.87.08,2.51.12,3.76a.86.86,0,0,0,0,.16c.74,1.92.58,3.94.65,5.94a24.21,24.21,0,0,0,.41,2.78,21.06,21.06,0,0,0,.54,2.85,19.23,19.23,0,0,0,1.15,2.54c.31.64.69,1.25.94,1.91a2.68,2.68,0,0,1,.1,1.29,1,1,0,0,1-.52.64,4.87,4.87,0,0,0-2.21,2.36C2.39,47,2,47.79,1.71,48.65,1.25,49.93.86,51.24.42,52.53c-.11.33-.28.64-.42,1v1.17c.39.69,1.17.56,1.74.87,1.11.58,2.32.29,3.47.58s2.21.24,3.28.48a22.57,22.57,0,0,0,4.1.19,40.72,40.72,0,0,0,5.05.17c1.62-.13,3.23-.1,4.84-.19a10.5,10.5,0,0,0,2.13-.45,29.51,29.51,0,0,1,3.61-.83,7.8,7.8,0,0,0,1.69-.61c.35-.13.68-.32,1-.44A1.21,1.21,0,0,0,31.61,53ZM18.09,20.56c1.17-.73,2.34-1.5,3.56-2.14a14.41,14.41,0,0,1,2.43-.9,4.18,4.18,0,0,1,2.22,0,1.25,1.25,0,0,1,.78,1c.05.22.07.45.11.67l.08,0a20,20,0,0,1-.69,2.32,2.92,2.92,0,0,1-2.8,1.26c-1-.22-2-.44-3-.58a5.84,5.84,0,0,0-1.13.2,1.09,1.09,0,0,1-.76-.14A8.22,8.22,0,0,1,18,20.91.37.37,0,0,1,18.09,20.56ZM11.18,7.26,12,9.93,14,10.2c.31.05.48,0,.49-.42s-.17-.94.3-1.39v1.83l1.37.3,0,.22-1.37-.1c0,.51-.09,1.1-.14,1.7h-.15l-.13-1.77-2.12-.29c.22.76.41,1.42.61,2.07a14.31,14.31,0,0,1-1.79-5Zm-2.1-.63C9,7.09,8.9,7.55,8.8,8s-.22.92-.34,1.41a11.31,11.31,0,0,1,3,.58l0,.2-3-.6c-.24.93-.47,1.84-.71,2.75l-.17,0c.31-1.94.86-3.82,1.32-5.73ZM4.62,8.46l3.15.73-.06.23-3.15-.7Zm0,12.16a3.13,3.13,0,0,1,2.59-3.41,3.92,3.92,0,0,1,2.89.55c.66.33,1.35.62,2,.95,1.09.56,2.16,1.14,3.37,1.78-1,.76-1.84,1.63-3.15,1.54a17.54,17.54,0,0,0-3.53.35,5.65,5.65,0,0,1-3.2-.15A1.59,1.59,0,0,1,4.57,20.62Zm2.9,7a1.25,1.25,0,0,1,.19-1.47Zm.14.41v1.58A1.62,1.62,0,0,1,7.48,28ZM7.5,25.83l-.19,0c0-.43.09-.86.13-1.29H7.7C7.64,25,7.57,25.4,7.5,25.83Zm-.21-2.39c0-.08.1-.16.16-.24.06.1.18.21.18.32a3.26,3.26,0,0,1-.14.6l-.15,0C7.32,23.91,7.29,23.67,7.29,23.44ZM5.8,53l.84-2H4.28l0-.13a6,6,0,0,1,1.46-.32c.84,0,1.46-.06,1.66-1a4.23,4.23,0,0,1,.52-1.07,6.15,6.15,0,0,1,.37-.52L8.4,48Q7.22,50.57,6,53.12Zm1.65-2.14c.13-.28.63-.33,2.24-.23C9.48,51,8.39,51.08,7.45,50.87Zm2.69,2.56H10V48.62h.23A20.36,20.36,0,0,1,10.14,53.43ZM13.44,51c-1-.23-2,.23-3,0v-.23l2.95-.22c-.09-1-.18-2-.26-2.93l.22,0c.23,1.82.47,3.64.7,5.51C13.67,52.86,13.67,52.86,13.44,51Zm.55-.18c.23-.43,1.32-.6,2.72-.44A6,6,0,0,1,14,50.82Zm4.37-16.3A14.3,14.3,0,0,1,18,36.67a7.26,7.26,0,0,1-.45,1.09c-.11-.38-.21-.62-.26-.87a1.53,1.53,0,0,0-.91-1.09,1.6,1.6,0,0,1-.74-.82c-.29-.55-.6-1.1-.94-1.62a2.25,2.25,0,0,1-.18-2.11A21.49,21.49,0,0,0,15,29a1.58,1.58,0,0,1,1.58-1.23c.42,0,.66.27.63.56A6,6,0,0,0,18,31,7.51,7.51,0,0,1,18.36,34.52Zm.78-5.82c0-.59.08-1.18.07-1.77a.61.61,0,0,0-.25-.44c-.54-.31-1.1-.57-1.64-.87-.07,0-.09-.16-.16-.29.92-.09,1.49.51,2.19.91.21-.47-.14-1.17.59-1.47-.2,1.34-.4,2.65-.59,3.95Zm3.38,1.17-.13,0c-.11-.7-.22-1.4-.32-2.06-.81-.33-1.7-.38-2.21-1.16a2.65,2.65,0,0,1,2.15.94c-.08-.78-.15-1.45-.22-2.11l.24,0c.15.85.29,1.7.44,2.52a3.75,3.75,0,0,1,2.17.68l-.05.17-2.07-.63Zm5,.67L25.2,29.49,24.43,31c0-.9,1.08-3.23,1.45-3.28q-.3.69-.57,1.38c.79.42,1.84.4,2.33,1.31Z"/></g></g></svg>