<svg xmlns="http://www.w3.org/2000/svg" viewBox="0 0 60.72 32.95"><defs><style>.cls-1{fill:#1d1d1b;}</style></defs><g id="Layer_2" data-name="Layer 2"><g id="Layer_1-2" data-name="Layer 1"><path class="cls-1" d="M60.72,16.48c0-4.41-3.13-8.48-8.84-11.55h0l-.73-.37L51,4.48l-.12-.06-1.18-.53c-.32-.14-.62-.29-.94-.42s-.9-.34-1.35-.51l-1-.36L45,2.17c-.34-.1-.67-.22-1-.31l-1.53-.37c-.35-.08-.68-.17-1-.24-.53-.11-1.08-.2-1.62-.3l-1-.19C38.19.67,37.6.61,37,.54L36,.41c-.65-.06-1.3-.1-2-.14L33.22.2C32.28.15,31.33.13,30.37.13v0c-1,0-1.91,0-2.86.07l-.84.07c-.66,0-1.32.08-2,.14l-1,.13c-.59.07-1.18.13-1.76.22l-1,.19c-.54.1-1.09.19-1.62.3-.36.07-.71.17-1.06.25-.51.12-1,.23-1.5.36s-.71.21-1.06.32-.94.27-1.4.42-.69.26-1,.39-.87.31-1.29.48-.68.3-1,.46-.75.32-1.1.49l-.12.06-.17.09-.72.35h0C3.13,8,0,12.07,0,16.48s3.35,8.7,9.23,11.75h0l.93.46A47.79,47.79,0,0,0,30.3,32.82h.06v0h0c1.85,0,3.69-.09,5.49-.27A44.58,44.58,0,0,0,50.58,28.7l.93-.46h0C57.37,25.18,60.72,20.94,60.72,16.48Zm-49-11.83,1-.41,1.19-.44c.35-.13.69-.25,1.05-.36s.83-.26,1.26-.39l1.09-.31,1.34-.32,1.12-.25,1.42-.26L22,1.77a19.22,19.22,0,0,0-6.84,4.71,35.72,35.72,0,0,1-4.06-1.54ZM22,16H12.18a13.71,13.71,0,0,1,3.33-8.35A51.32,51.32,0,0,0,29.45,9.69C28.54,14,26.69,15.29,22,16Zm7.51,7.7a52,52,0,0,0-13.73,2A13.79,13.79,0,0,1,12.18,17H22C26.84,17.69,28.66,19.07,29.53,23.68ZM10,5.48A35.78,35.78,0,0,0,14.47,7.3,14.64,14.64,0,0,0,11.18,16H1C1.28,12,4.49,8.25,10,5.48ZM1,17H11.18a14.73,14.73,0,0,0,3.58,9,36.2,36.2,0,0,0-4.38,1.7C4.65,24.91,1.28,21,1,17ZM21.48,31.09,20,30.84,19,30.61c-.45-.1-.91-.2-1.35-.32l-1-.28-1.28-.37-1-.33-1.21-.44-.94-.38-.6-.26a38.23,38.23,0,0,1,3.9-1.43A19.15,19.15,0,0,0,22,31.18Zm8.38.72a19.69,19.69,0,0,1-13.29-5.33,51.21,51.21,0,0,1,13.13-1.8c.06.4.11.82.16,1.26Zm0-24.8c-.06.6-.14,1.16-.23,1.69A51.29,51.29,0,0,1,16.24,6.8,19.62,19.62,0,0,1,29.86,1.15ZM50.77,5.48C56.23,8.25,59.44,12,59.69,16H49.54A14.64,14.64,0,0,0,46.25,7.3,37,37,0,0,0,50.77,5.48ZM38.7,17h9.84a13.79,13.79,0,0,1-3.62,8.68,52,52,0,0,0-13.73-2C32.06,19.07,33.88,17.69,38.7,17ZM31.28,9.69A51.31,51.31,0,0,0,45.21,7.63,13.71,13.71,0,0,1,48.54,16H38.71C34,15.29,32.18,14,31.28,9.69Zm8.21-7.78L41,2.17,42,2.42c.46.1.92.21,1.37.33s.71.19,1.06.3.87.25,1.3.39l1,.35L48,4.25l1,.4.63.28a35.29,35.29,0,0,1-4.06,1.55,19.09,19.09,0,0,0-6.84-4.71Zm-8.63-.76A19.6,19.6,0,0,1,44.48,6.8,51.29,51.29,0,0,1,31.09,8.7C31,8.17,30.93,7.61,30.86,7Zm0,30.66V25.94c.05-.45.11-.86.17-1.26a51.19,51.19,0,0,1,13.12,1.8A19.67,19.67,0,0,1,30.86,31.81ZM48.53,28.5l-.92.37c-.4.15-.81.3-1.23.44l-1,.32c-.43.14-.86.26-1.3.39l-1,.27c-.45.12-.91.22-1.37.32l-1,.23-1.45.25-.52.09a19.15,19.15,0,0,0,6.52-4.38,38.87,38.87,0,0,1,3.9,1.43Zm1.81-.81A36.57,36.57,0,0,0,46,26a14.67,14.67,0,0,0,3.58-9H59.69C59.44,21,56.07,24.91,50.34,27.69Z"/></g></g></svg>