<svg xmlns="http://www.w3.org/2000/svg" viewBox="0 0 58.96 58.2"><defs><style>.cls-1{fill:#1d1d1b;}</style></defs><g id="Layer_2" data-name="Layer 2"><g id="Layer_1-2" data-name="Layer 1"><path class="cls-1" d="M45.86,33.92c0,7.43,0,7.47-7.47,7.47,7.43,0,7.47,0,7.47,7.48,0-7.44,0-7.48,7.47-7.48C45.9,41.39,45.86,41.35,45.86,33.92ZM30.73,19.27c2.13-.07,4.66-.08,7.66-.08-3,0-5.55,0-7.69-.08-.82-4.28-.83-10.38-.83-19.11,0,8.68,0,14.75-.82,19-9.78-.64-9.86-3.76-9.86-19,0,19.1-.09,19.19-19.19,19.19,14.94,0,18.25.06,19,9.24-4.22.66-10.08.67-18.21.67,8.19,0,14.07,0,18.3.68.12,2.33.12,5.15.12,8.61,0-3.44,0-6.25.12-8.56C29.78,31.59,29.87,37.6,29.87,58.2c0-29,.14-29.1,29.09-29.1C38.85,29.1,32.65,29,30.73,19.27ZM19.41,28.35c.55-6.74,2.53-8.52,9.58-9C27.86,25,25.28,27.34,19.41,28.35Z"/></g></g></svg>