<svg xmlns="http://www.w3.org/2000/svg" viewBox="0 0 54.99 54.99"><g id="Layer_2" data-name="Layer 2"><g id="Layer_1-2" data-name="Layer 1"><path d="M22.6,11.48c.34,1.48,10.67-5.54,1.67,3.11-5.57,5.35,5.62,8.61,3.22,12.9,3.54-5.57,1.61-6.08-.75-11.93-2.29-6.55,6.76-.11,6.76-.11-3.57-3.49-1.63-3.81.56-6.14s.14-5,.14-5,2.16,4.62-3.05,5.2c-4.1.45-6.6-1.13-11-3.84S5.57,10.54,5.57,10.54C18.27,1.74,21.48,6.49,22.6,11.48Zm-4.08,8.11c-6.25-3,4.71-4.86,4.71-4.86-5,.06-3.86-1.54-3.95-4.73s-3.46-3.66-3.46-3.66,4.8,1.75,1.53,5.84C14.76,15.4,11.88,16,6.86,17.23S0,31,0,31C2.76,15.8,8.39,16.89,12.71,19.63c1.28.81,3.63-11.46,3.38,1-.16,7.72,10.06,2.11,11.4,6.84C26.05,21.06,24.33,22.06,18.52,19.59Zm25,3c-1.48.34,5.54,10.67-3.11,1.67-5.35-5.57-8.61,5.62-12.91,3.22,5.58,3.54,6.09,1.61,11.94-.75,6.55-2.29.1,6.76.1,6.76,3.5-3.57,3.82-1.63,6.14.56s5,.14,5,.14-4.62,2.16-5.2-3.05c-.45-4.1,1.13-6.6,3.84-11S44.45,5.57,44.45,5.57C53.25,18.27,48.5,21.48,43.51,22.6Zm-8.15-9.89c-.81,1.28,11.46,3.63-1,3.38-7.72-.16-2.12,10.06-6.85,11.4,6.44-1.44,5.44-3.16,7.91-9,3-6.25,4.86,4.71,4.86,4.71-.06-5,1.54-3.86,4.73-3.95s3.65-3.46,3.65-3.46-1.74,4.8-5.83,1.53C39.59,14.76,39,11.88,37.75,6.86S24,0,24,0C39.19,2.76,38.1,8.39,35.36,12.71Zm-3,30.8c-.33-1.48-10.66,5.54-1.66-3.11,5.57-5.35-5.62-8.61-3.23-12.91-3.53,5.58-1.6,6.09.76,11.94,2.28,6.55-6.76.1-6.76.1,3.57,3.5,1.63,3.82-.56,6.14s-.14,5-.14,5-2.16-4.62,3.05-5.2c4.1-.45,6.6,1.13,11,3.84s14.59-4.89,14.59-4.89C36.71,53.25,33.5,48.5,32.38,43.51ZM11.48,32.38c1.48-.33-5.54-10.66,3.11-1.66,5.35,5.57,8.61-5.62,12.9-3.23-5.57-3.53-6.08-1.6-11.93.76-6.55,2.28-.11-6.76-.11-6.76-3.49,3.57-3.81,1.63-6.14-.56s-5-.14-5-.14,4.62-2.16,5.2,3.05c.45,4.1-1.13,6.6-3.84,11s4.89,14.59,4.89,14.59C1.74,36.71,6.49,33.5,11.48,32.38Zm30.8,3c-1.29-.81-3.63,11.46-3.38-1,.15-7.72-10.07-2.12-11.41-6.85,1.45,6.44,3.17,5.44,9,7.9,6.24,3-4.71,4.87-4.71,4.87,5-.06,3.85,1.54,3.95,4.73s3.45,3.65,3.45,3.65-4.79-1.74-1.52-5.83c2.58-3.22,5.47-3.86,10.48-5.06S55,24,55,24C52.22,39.19,46.6,38.1,42.28,35.36ZM19.63,42.28c.81-1.29-11.46-3.63,1-3.38,7.72.15,2.11-10.07,6.84-11.41-6.43,1.45-5.43,3.17-7.9,9-3,6.24-4.86-4.71-4.86-4.71.06,5-1.54,3.85-4.73,3.95s-3.66,3.45-3.66,3.45,1.75-4.79,5.84-1.52c3.22,2.58,3.86,5.47,5.05,10.48S31,55,31,55C15.8,52.22,16.89,46.6,19.63,42.28Z"/></g></g></svg>