<svg xmlns="http://www.w3.org/2000/svg" viewBox="0 0 45.54 45.73"><g id="Layer_2" data-name="Layer 2"><g id="Layer_1-2" data-name="Layer 1"><path d="M2.88,24.26a.34.34,0,0,0-.07.38,1,1,0,0,0,.09.21c.28.62.57,1.24.86,1.86l.71,1.53c0,.08.08.14.17.13l0,0,2-2.37a.46.46,0,0,0,.07-.54c-.06-.14-.13-.27-.19-.41L5.05,22s0-.06-.08-.13l-.32.37ZM7.27,15,4.52,17a.43.43,0,0,0-.2.56c.24,1,.47,2,.71,2.92,0,.09,0,.19.08.28s.09.17.21.08l0,0,2.81-2.39a.53.53,0,0,0,.19-.62c-.2-.7-.38-1.4-.58-2.11l-.24-.84C7.4,14.83,7.34,14.91,7.27,15Zm4.67-2.57c-.15.07-.29.15-.43.23L8.24,14.35a.36.36,0,0,0-.21.47l.57,2c.08.28.15.55.23.82s.13.17.26.09l.29-.18c.66-.44,1.32-.88,2-1.31l1.38-.91A.53.53,0,0,0,13,15a.61.61,0,0,0,0-.11c-.24-.77-.48-1.55-.73-2.32C12.2,12.35,12.1,12.31,11.94,12.39Zm-.08-3.13c-.08-.08-.16,0-.24,0L8.07,10.76a.46.46,0,0,0-.31.53c0,.35,0,.71,0,1.06s0,1,.05,1.43a.52.52,0,0,0,.06.19l.25-.13,2.34-1.24,1.27-.69a.42.42,0,0,0,.26-.44L12,10.78ZM6.92,31.76c.19.26.37.52.57.78s.22.16.34,0l1.94-2.43a.26.26,0,0,0,.06-.25.72.72,0,0,0-.1-.24l-.38-.51L7.29,26.35c-.11-.14-.16-.14-.28,0L5,28.73a1.09,1.09,0,0,0-.1.19,1.26,1.26,0,0,0,.13.26ZM17.39,10.32l-.21.06L14,11.56l-1,.37a.32.32,0,0,0-.22.43l.36,1.14c.12.37.25.74.36,1.11,0,.09.08.15.17.14a.39.39,0,0,0,.18,0l.76-.4L18,12.58l.16-.1a.28.28,0,0,0,.12-.33l-.6-1.65C17.6,10.37,17.54,10.33,17.39,10.32Zm7,28.22,3,.64.6.13a.4.4,0,0,0,.33-.22l1.24-2.61c.14-.29.27-.58.41-.86s0-.24-.14-.28h-.05l-3.23-.76a.43.43,0,0,0-.56.23l-1.44,2.56-.48.86c-.08.15,0,.23.12.27ZM23.59,38l1.24-2.2c.23-.41.46-.82.68-1.24a.23.23,0,0,0-.11-.37L25.05,34l-3-1.32-.15-.05a.39.39,0,0,0-.36.19L20.37,34.6c-.36.54-.72,1.08-1.07,1.62-.08.12-.08.18,0,.27a.3.3,0,0,0,.13.09l.92.39,2.77,1.18A.32.32,0,0,0,23.59,38ZM17,40l3,1.25.83.34a.3.3,0,0,0,.42-.12L23,38.88c.1-.14.08-.19-.07-.26l-.06,0L19.17,37,19,37a.31.31,0,0,0-.29.16l-.41.55c-.49.66-1,1.31-1.46,2a.17.17,0,0,0,.05.27ZM8.24,33.38,9,34.1l1.7,1.59.65.62c.07.06.14.14.24.13s.11,0,.17-.08l.21-.27,1.73-2.26a.24.24,0,0,0,0-.3.34.34,0,0,0-.09-.12l-.85-.79-1.95-1.83-.34-.31c-.15-.13-.22-.12-.34,0l-.55.68L8.18,33a.26.26,0,0,0,0,.37Zm4,3.67,2.6,1.69,1,.64a.38.38,0,0,0,.28.09c.08,0,.13,0,.18-.1l.43-.58c.48-.66,1-1.33,1.45-2a.21.21,0,0,0-.06-.33l-.07,0-3.48-2.27a.56.56,0,0,0-.17-.09.22.22,0,0,0-.31.08l-.1.14-1.85,2.39a.17.17,0,0,0,0,.24A.34.34,0,0,0,12.29,37.05ZM23.77,4.66q-.09.24-.18.51c.11.14.26.12.39.14l2.25.4,2.16.38a.37.37,0,0,0,.15,0c.1,0,.11-.09.05-.17a.42.42,0,0,0-.27-.16L25,4.75l-.91-.27A.25.25,0,0,0,23.77,4.66Zm5.63,1c.09.15.24.17.37.24s.27.14.41.21l.38.18c-.29-.22-.59-.42-.89-.62A.35.35,0,0,0,29.4,5.62Zm-.16-1-1.95-1.1-1.41-.79a.41.41,0,0,0-.37,0,2.26,2.26,0,0,0-.54.37l.15.06,2.66,1.14,1.3.55a.35.35,0,0,0,.33,0C29.4,4.72,29.32,4.69,29.24,4.65Zm.86.58a.41.41,0,0,0-.29-.06,5.31,5.31,0,0,0,1,.68l-.67-.56S30.13,5.24,30.1,5.23ZM24.49,3.52c-.13.15-.25.31-.39.49l.18.07,2.32.7,2,.6c.11,0,.22.07.33,0s-.09-.17-.19-.21L25.84,3.9l-1-.41C24.73,3.44,24.59,3.41,24.49,3.52Zm5.84,1.34c.34.3.66.55,1,.8L30.7,5A.44.44,0,0,0,30.33,4.86Zm-7.24-.6-.38,0-.94-.11-1.53-.19-1.3-.17a.37.37,0,0,0-.4.23l-.39.9a2.07,2.07,0,0,0-.08.2l.33,0,2.65,0h1c.26,0,.51,0,.76,0A.26.26,0,0,0,23.09,5c.07-.17.13-.35.2-.53a.13.13,0,0,0-.06-.16ZM19.18,9.31l2.48-.57,1.18-.28a.26.26,0,0,0,.23-.34c0-.22-.09-.44-.13-.66a.31.31,0,0,0-.35-.26l-1.18.12-1.27.12-1.75.17-.36,0c-.21,0-.31.13-.28.34l.18,1.35c0,.16.07.2.25.2l.11,0ZM17.89,5.75c-.05.38-.1.75-.14,1.13s0,.33.31.3L19.61,7l1.24-.12,1.37-.14.47-.06a.2.2,0,0,0,.18-.18c0-.22,0-.45,0-.67a.2.2,0,0,0-.19-.22l-.43,0-1.8,0-2.07,0h-.26A.27.27,0,0,0,17.89,5.75Zm5,3.21-1.39.32-2.47.58-.69.16a.25.25,0,0,0-.17.35l.54,1.49c.05.15.11.2.3.2l.14,0,1.49-.59,2.85-1.12c.21-.09.25-.19.17-.39l-.3-.72A.34.34,0,0,0,22.91,9Zm.55-3.09c0,.21,0,.42,0,.63a.12.12,0,0,0,.08.14.61.61,0,0,0,.18.05l.56,0,1.52.07,1,0,1.38.06h.22c.15,0,.2-.15.1-.25a.53.53,0,0,0-.23-.13l-1.9-.34-2.47-.44a.42.42,0,0,0-.33,0A.13.13,0,0,0,23.46,5.87Zm8.85,33.56a.43.43,0,0,0,.48-.31c.18-.46.37-.91.55-1.37l.79-2c.07-.17,0-.22-.15-.22l-.79,0-1.14,0-1.12,0h-.08a.59.59,0,0,0-.44.4c-.29.63-.6,1.25-.89,1.88l-.75,1.55a.23.23,0,0,0,.23.09Zm8.87-28.5a.55.55,0,0,0-.28-.32L38.65,9.55,38.5,9.5a.5.5,0,0,0,.25.37l2.53,1.65.12.07a.56.56,0,0,0,0-.1Zm.87,11.24a.35.35,0,0,0,.13-.41.69.69,0,0,0,0-.13c-.5-1.26-1-2.51-1.51-3.77a.44.44,0,0,0-.08-.15c-.07-.09-.11-.1-.22,0l-.37.24a.32.32,0,0,0-.17.44c.08.27.15.54.23.81.32,1.16.65,2.32,1,3.48l.09.24a.68.68,0,0,0,.14-.09Zm.54-.54.13-.18.5-.7a.45.45,0,0,0,0-.54L42,17.72l-.48-.93c0-.07-.06-.14-.17-.15s-.2.27-.31.39a.42.42,0,0,0-.07.49l1.31,3.3Zm-2.43-8.16c-.19-.2-.38-.41-.58-.61s-.63-.64-.94-1a.15.15,0,0,0-.19-.05.37.37,0,0,0,.1.31c.89,1.15,1.79,2.3,2.68,3.46l.06.09a4.8,4.8,0,0,0,.21-.49.4.4,0,0,0-.1-.47C41,14.32,40.57,13.9,40.16,13.47Zm-1,15.5a.65.65,0,0,0,0,.14.43.43,0,0,0,0,.14l.11,0L41,28.45a.34.34,0,0,0,.21-.37c-.05-.53-.11-1.06-.17-1.59s-.13-1.2-.2-1.8l-.09-.77a.23.23,0,0,0-.14-.21l-1.23.47a.39.39,0,0,0-.3.43c0,.53,0,1.07,0,1.6C39.14,27.13,39.14,28.05,39.15,29Zm0-5.26,1.31-.49s.09-.07.11-.12a.42.42,0,0,0,0-.36l-1-3.52c-.06-.23-.12-.45-.19-.68a.22.22,0,0,0-.32-.18l-.58.17a.22.22,0,0,0-.17.21.61.61,0,0,0,0,.19c.09.62.19,1.24.29,1.85L39,23.49A.24.24,0,0,0,39.14,23.71Zm1-14.55-1.21-.33-.76-.21a.57.57,0,0,0,.32.4l2.25,1.07.12,0-.44-.78A.4.4,0,0,0,40.12,9.16Zm-4.37,4.29s0,.07,0,.1c.09.62.19,1.25.28,1.87.13.83.25,1.65.38,2.47a.31.31,0,0,0,.37.31l.62,0a.14.14,0,0,0,.14-.09.29.29,0,0,0,0-.24c-.32-1.05-.64-2.1-1-3.16l-.34-1.12a.43.43,0,0,0-.21-.28.3.3,0,0,0-.21,0C35.74,13.29,35.74,13.37,35.75,13.45Zm2.16-3.52-.27-.1-.49-.19v0l1,.57,0,0A.45.45,0,0,0,37.91,9.93ZM31.35,4.84A.48.48,0,0,0,31,4.69a10.44,10.44,0,0,0,.8.82c-.13-.21-.26-.4-.4-.6Zm10.39,9.07a.53.53,0,0,0-.21-.48L38.84,11.2l-.16-.11a.33.33,0,0,0,.11.36c.44.47.9.94,1.35,1.4l1.26,1.32.29.28C41.71,14.24,41.72,14.07,41.74,13.91ZM41.35,12l-2.58-1.67-.1,0a.52.52,0,0,0,.22.4c.84.69,1.67,1.39,2.5,2.09.1.08.2.15.32.26,0-.22-.06-.4-.08-.58A.57.57,0,0,0,41.35,12Zm-5.56-.74h0l0,.12c.16.32.31.64.46,1a.32.32,0,0,0,.29.22.23.23,0,0,0,0-.24l-.66-1Zm2,7.69a.32.32,0,0,0-.33-.29,4.91,4.91,0,0,1-.53,0,1.79,1.79,0,0,0-.23,0c-.15,0-.2.09-.21.24v.29h0l0,.45c0,.86,0,1.72.05,2.59,0,.49,0,1,0,1.46,0,.23.1.29.29.26L37.5,24l.8-.09a.24.24,0,0,0,.23-.32c-.07-.52-.15-1-.23-1.54-.14-.85-.27-1.7-.4-2.55C37.87,19.31,37.85,19.15,37.82,19Zm1-1.14c.12,0,.15-.08.15-.24s0-.07,0-.12l-.15-.34c-.38-.82-.76-1.64-1.13-2.46L37.1,13.4a.42.42,0,0,0-.24-.25.14.14,0,0,0-.2.14.35.35,0,0,0,0,.11l.27.91c.36,1.15.71,2.3,1.07,3.45a.47.47,0,0,0,.06.15.2.2,0,0,0,.26.1Zm-3.16,17,2-.39a.4.4,0,0,0,.36-.37l.18-1.19.33-2.26c0-.18.05-.36.08-.55s-.06-.16-.18-.14l-.22,0-1.91.3a.38.38,0,0,0-.28.17,1,1,0,0,0-.13.3c-.21.86-.41,1.72-.61,2.58-.12.48-.23,1-.35,1.46,0,.17,0,.2.16.16Zm3.79-17.41a.09.09,0,0,0,.15,0l.45-.29a.19.19,0,0,0,.08-.21,1.6,1.6,0,0,0-.1-.23l-1.91-3.12L37.78,13c-.07-.11-.15-.2-.31-.16a.3.3,0,0,0,0,.3c.2.43.39.86.59,1.3l1.32,2.86A.42.42,0,0,0,39.49,17.47Zm-.81,9.46h0V24.72c0-.22-.09-.3-.3-.28l-.73.08-.76.09a.27.27,0,0,0-.23.18.65.65,0,0,0,0,.2l-.09.78-.18,1.82c-.05.53-.11,1.05-.16,1.58a3.57,3.57,0,0,0,0,.46c0,.13,0,.17.16.16h.1l2-.31a.34.34,0,0,0,.34-.39ZM38,10.63l-.69-.38-.08,0a4.74,4.74,0,0,0,1,.67A.55.55,0,0,0,38,10.63Zm2.59,6.12.36-.44a.21.21,0,0,0,0-.22,1.38,1.38,0,0,0-.14-.27L39,13.36c-.21-.28-.43-.55-.64-.82-.07-.08-.14-.16-.27-.12a.4.4,0,0,0,.07.32q1.18,1.93,2.36,3.87Zm-4.27-5.54s0,0,0,0l.66,1a.22.22,0,0,0,.2.13.26.26,0,0,0-.07-.26l-.63-.73Zm.4-.22.83,1a.63.63,0,0,0,.12.07.29.29,0,0,0-.11-.29,1.22,1.22,0,0,0-.17-.15L36.73,11Zm1.32.51-.13-.23a.15.15,0,0,0-.06,0l-.75-.54A3,3,0,0,0,38.05,11.5Zm-3.6,23.25c.26-1.07.51-2.13.76-3.2l.21-.91a.2.2,0,0,0-.1-.25.57.57,0,0,0-.18,0l-1.07-.07c-.42,0-.84,0-1.25-.08a.48.48,0,0,0-.51.35c-.34,1-.69,2-1,3.05-.12.36-.24.73-.37,1.09-.07.17,0,.29.18.28l.69,0,1,0,1.19,0H34A.36.36,0,0,0,34.45,34.75ZM31,8.9,30.35,9a2.53,2.53,0,0,0-.38.07c-.1,0-.12.09,0,.16a.34.34,0,0,0,.37.13l.9-.34C31.16,8.86,31.07,8.88,31,8.9ZM19.84,15.74,18,17.05l-2,1.43a.31.31,0,0,0-.08.46l1.78,2.22a.3.3,0,0,0,.51,0L19,20.4,20.43,19l1.22-1.15a.35.35,0,0,0,.12-.28.32.32,0,0,0-.09-.24c-.43-.51-.86-1-1.28-1.54A.36.36,0,0,0,19.84,15.74Zm5.26-3.16c-.1,0-.18.05-.26.1L22,14.39l-1,.63c-.21.13-.23.27-.09.45L22.11,17a.3.3,0,0,0,.46,0l1.33-1.16L26.05,14a.3.3,0,0,0,0-.47c-.22-.26-.45-.52-.67-.79A.36.36,0,0,0,25.1,12.58Zm5.9-1a.34.34,0,0,0,.07-.19.39.39,0,0,0-.42-.35.64.64,0,0,0-.16.07l-.34.27-2.79,2.25c-.15.13-.16.25,0,.39l.28.25.5.45a.28.28,0,0,0,.44,0c.12-.17.26-.33.39-.5Zm1-.43a.14.14,0,0,0,0,.16.29.29,0,0,0,.21.18c.1,0,.13,0,.17-.08l.36-.88-.16-.11Zm-16.9,8a.93.93,0,0,0-.2.1c-.47.37-.93.75-1.39,1.13L11.43,22.1a.31.31,0,0,0,0,.49l.62.81,1.54,2a.27.27,0,0,0,.44,0l.55-.57,1.55-1.59c.37-.38.74-.77,1.13-1.14a.42.42,0,0,0,0-.55L15.4,19.26A.31.31,0,0,0,15.15,19.13Zm14.49-8.91-.86.43L26,12.06c-.19.09-.21.21-.08.37l.6.7a.47.47,0,0,0,.31.18l.22-.13,1.68-1.34,1.4-1.13a.25.25,0,0,0,.07-.36A.4.4,0,0,0,29.64,10.22Zm.91,12.3c.08-.24.15-.47.22-.71l1.14-3.74a.69.69,0,0,0,0-.13.37.37,0,0,0-.22-.35l-.93-.45c-.23-.12-.37-.07-.49.16s-.31.62-.47.93L28.2,21.39a.29.29,0,0,0,.14.44l1.82.87A.26.26,0,0,0,30.55,22.52Zm-5.21,4.66.17.07L28,28.39a.24.24,0,0,0,.17,0,.33.33,0,0,0,.26-.22l1.09-2.88c.21-.55.42-1.09.62-1.63a.35.35,0,0,0-.17-.45l-1.88-.89a.34.34,0,0,0-.51.17l-1.21,2.17-1.12,2a1.59,1.59,0,0,0-.09.2C25.19,27,25.22,27.13,25.34,27.18ZM21.2,24.1c.12-.14.22-.28.33-.42l2.68-3.45a.36.36,0,0,0,0-.49l-1.62-1.45a.31.31,0,0,0-.26-.11.28.28,0,0,0-.24.1L20.2,20c-.27.25-.54.5-.8.76l-.89.84a.31.31,0,0,0,0,.48l.47.41,1.75,1.61A.29.29,0,0,0,21.2,24.1Zm-5.67,3.26,1.56,1.44c.19.18.34.17.5,0l2.84-3.67a.35.35,0,0,0,0-.5l-1.07-1L18.1,22.5a.78.78,0,0,0-.22-.12.34.34,0,0,0-.25.13l-.71.72-2.5,2.54-.08.09a.3.3,0,0,0,0,.44Zm6.24-2.44,2.5,1.66a.3.3,0,0,0,.45-.11l.35-.62c.67-1.2,1.34-2.41,2-3.61a1.72,1.72,0,0,0,.07-.21.39.39,0,0,0-.17-.31l-1.83-1.21a.33.33,0,0,0-.49.09c-.3.37-.59.75-.88,1.13l-2.1,2.7A.3.3,0,0,0,21.77,24.92Zm3.77-4.86,1.72,1.15a.26.26,0,0,0,.43-.11l1-2,1.06-2a1.16,1.16,0,0,0,.06-.16.38.38,0,0,0-.17-.36l-.91-.61a.46.46,0,0,0-.14-.07.32.32,0,0,0-.35.12L27.45,17l-2,2.55A.29.29,0,0,0,25.54,20.06Zm6.52-7.86a.43.43,0,0,0-.26-.4.32.32,0,0,0-.38.14L29,15a.27.27,0,0,0,.07.44L30,16c.19.13.3.09.39-.11L32,12.32A.41.41,0,0,0,32.06,12.2Zm1.56.88c-.3,1.34-.59,2.67-.88,4a.33.33,0,0,0,.22.42l.89.28a.16.16,0,0,0,.24-.17c0-.13,0-.25,0-.38,0-.4,0-.79,0-1.19,0-.84,0-1.68.07-2.53v-.26A.4.4,0,0,0,34,12.9.22.22,0,0,0,33.62,13.08Zm11,3.67c.16.46.36.92.54,1.38a.67.67,0,0,0,.06.12,1.37,1.37,0,0,0,0-.29,4.35,4.35,0,0,0-.25-1c-.09-.18-.16-.36-.24-.54l-.24-.54h0a1.38,1.38,0,0,0,0,.2A4,4,0,0,0,44.58,16.75ZM33.93,23.53a.3.3,0,0,0,.26.35L35,24c.27,0,.55.05.82.09s.33-.06.33-.28,0-.32,0-.48h0c0-.23,0-.45,0-.68,0-.64,0-1.28,0-1.91,0-.33,0-.66,0-1s0-.44,0-.66a.35.35,0,0,0-.32-.34l-.82-.11c-.22,0-.3,0-.33.26s-.07.45-.09.68c-.11.79-.21,1.59-.31,2.38Zm10.61-6h0c0,.08,0,.15,0,.23s0,.46,0,.68a1,1,0,0,0,0,.39l.84,2.46a.61.61,0,0,0,.05.12c0-.46,0-.9.07-1.35a1.11,1.11,0,0,0-.08-.44c-.22-.54-.43-1.08-.64-1.62C44.67,17.85,44.6,17.69,44.54,17.54ZM34.11,12.4c.09,0,.06-.13,0-.2,0-.35-.07-.7-.11-1l-.13-.06,0,.15c0,.25,0,.5-.09.75a.33.33,0,0,0,.11.32C34,12.37,34,12.43,34.11,12.4Zm.38-6.63c.06-.21-.06-.35-.29-.33,0,.18,0,.37,0,.56a.2.2,0,0,0,.15.21C34.4,6.06,34.45,5.91,34.49,5.77ZM29.37,7l.51.1.65.13v0L29.3,6.8a.21.21,0,0,0-.23,0A.35.35,0,0,0,29.37,7Zm0-.69,1,.36.1,0c-.36-.2-.72-.38-1.09-.55a.57.57,0,0,0-.24,0A.24.24,0,0,0,29.36,6.35Zm-17,2.93c0,.47.07.94.11,1.41l.06.65c0,.14.08.18.21.14L13,11.4l3.1-1.15,1.06-.4a.33.33,0,0,0,.25-.38c-.07-.48-.13-1-.2-1.45a.19.19,0,0,0-.26-.18l-.27.06-3.27.81-.74.18a.33.33,0,0,0-.28.35Zm3.48-1.66,1-.26A.38.38,0,0,0,17.21,7a1.86,1.86,0,0,1,0-.33c0-.29.07-.58.11-.87,0-.14,0-.2-.18-.2h-.1l-.58.09-1.09.16-1.5.22-.86.14a.33.33,0,0,0-.31.3c-.09.52-.19,1-.28,1.56,0,.12,0,.23-.06.39l.16,0Zm12,8a.85.85,0,0,0,.1-.19.41.41,0,0,0-.16-.29L27,14.38a.34.34,0,0,0-.49,0c-.62.53-1.22,1.07-1.83,1.6L23,17.42c-.2.16-.21.31,0,.48l1.53,1.37a.31.31,0,0,0,.48,0l.85-1.08ZM14.9,33.75l1.53,1L18.36,36l.18.09a.34.34,0,0,0,.29-.18c.61-.93,1.23-1.86,1.84-2.8l.39-.59a.26.26,0,0,0,0-.33.88.88,0,0,0-.15-.12l-1.24-.81L17.76,30a.32.32,0,0,0-.49.08l-1.5,1.94c-.33.42-.66.84-1,1.27a.23.23,0,0,0,0,.32A.35.35,0,0,0,14.9,33.75Zm6.79-2.22.15-.25c.75-1.24,1.49-2.48,2.24-3.71a.33.33,0,0,0-.11-.5l-2.56-1.69a.88.88,0,0,0-.22-.1.4.4,0,0,0-.3.17l-1.24,1.61c-.54.69-1.08,1.39-1.63,2.08a.29.29,0,0,0,0,.33.41.41,0,0,0,.15.14l2.19,1.44.87.58A.32.32,0,0,0,21.69,31.53ZM10,29.22l.07.09a.23.23,0,0,0,.35,0L12,27.56c.38-.42.75-.85,1.14-1.27a.32.32,0,0,0,.09-.24.33.33,0,0,0-.09-.26l-.36-.47-1.87-2.43a.21.21,0,0,0-.36,0L8.9,24.46,7.74,25.57a.34.34,0,0,0,0,.52ZM8.49,18.84,8.35,19,5.58,21.28a.38.38,0,0,0-.11.49l1.62,3.32a.24.24,0,0,0,.21.16L7.61,25,9,23.63l1.18-1.14a.46.46,0,0,0,.12-.64L9.34,20,8.77,18.9C8.69,18.75,8.62,18.74,8.49,18.84Zm13.83,13.4.13.06,3.14,1.37a.32.32,0,0,0,.46-.17l1.07-2.33c.28-.6.56-1.2.83-1.81a.53.53,0,0,0,0-.17.29.29,0,0,0-.22-.28L25.11,27.7l-.18-.06a.4.4,0,0,0-.36.23l-2,3.26c-.13.23-.26.46-.41.68A.27.27,0,0,0,22.32,32.24Zm-9.78-.53L13.92,33a.64.64,0,0,0,.2.11.26.26,0,0,0,.23-.13l2.46-3.2a.33.33,0,0,0,0-.51L15.62,28.2,14,26.67a.27.27,0,0,0-.42,0l-.71.8-2,2.19a.31.31,0,0,0,0,.49ZM33.77,18.34l-1-.31-.08,0a.28.28,0,0,0-.28.23c-.22.7-.44,1.41-.65,2.12s-.47,1.55-.7,2.33a.3.3,0,0,0,.23.44l1.72.51c.21.06.34,0,.37-.25.1-.74.19-1.48.29-2.22s.21-1.63.31-2.44A.37.37,0,0,0,33.77,18.34ZM29.91,34.81c.3.07.4,0,.5-.28.23-.69.46-1.38.7-2.06l.69-2c.07-.23,0-.35-.2-.41L29,29.33l-.13,0-.14,0c-.13,0-.18.16-.24.28-.23.5-.46,1-.7,1.52l-1.18,2.56c-.09.19,0,.3.17.34Zm2.92-22.38c-.16,0-.26,0-.36.23s-.32.71-.49,1.06c-.38.83-.76,1.65-1.15,2.48a.31.31,0,0,0,.15.43l.91.44.1,0a.19.19,0,0,0,.21-.18l.39-1.73c.17-.77.35-1.55.52-2.32A.38.38,0,0,0,32.83,12.43Zm0,17.23.65.06,1.68.1a.38.38,0,0,0,.34-.07.51.51,0,0,0,.09-.26c0-.36.07-.72.11-1.08.05-.53.1-1.06.16-1.59L36.06,25a.66.66,0,0,0,0-.14.27.27,0,0,0-.23-.25l-.93-.1-.84-.09a.28.28,0,0,0-.2,0,.47.47,0,0,0-.16.28c-.31,1.38-.63,2.76-1,4.14,0,.17-.08.33-.11.5S32.68,29.64,32.85,29.66Zm-.78-.28a.76.76,0,0,0,.08-.21c.34-1.45.67-2.91,1-4.37,0-.09,0-.19.06-.26a.32.32,0,0,0-.23-.33l-1.88-.55a.33.33,0,0,0-.36.11,1,1,0,0,0-.09.18c-.47,1.25-.94,2.49-1.42,3.74l-.27.72a.26.26,0,0,0,.2.39l2.58.69A.31.31,0,0,0,32.07,29.38ZM13,15.79l-1,.64-2,1.3-.72.48a.33.33,0,0,0-.12.44L10,20.1c.26.5.51,1,.77,1.49.09.17.21.19.36.07L12,21l2.67-2.18a.46.46,0,0,0,.16-.33,1.67,1.67,0,0,0-.08-.2l-1.28-2.35A.25.25,0,0,0,13,15.79ZM30.73,8.3h-.31l-.81,0a.19.19,0,0,0-.18.1.44.44,0,0,0,.46.2l.68-.1.28-.05C30.8,8.31,30.8,8.31,30.73,8.3Zm-1.36-.79a.17.17,0,0,0-.21.08.38.38,0,0,0,.28.18l.41,0,.72,0a.07.07,0,0,0,.06,0v0s0,0-.06,0Zm1.19,2.3c-.1,0-.12.11,0,.19a.32.32,0,0,0,.44.07l.61-.44.11-.06-.13-.14Zm7.22-.57-.86-.18A5.89,5.89,0,0,0,38,9.49.41.41,0,0,0,37.78,9.24Zm-5.72.7-.81.58s-.05.05-.05.08.07.18.19.23.17,0,.24-.05l.33-.42c.08-.09.15-.19.23-.29Zm-4.33-.33-2.87.79c-.17,0-.26.19-.14.36s.29.45.43.67a.36.36,0,0,0,.54.15l1.61-.8,2-1,.11,0a.2.2,0,0,0,.07-.23.43.43,0,0,0-.39-.26l-.15,0ZM28.6,8.3l-.75.07-.76.07-1.5.16-1.18.12-.31,0a.21.21,0,0,0-.19.31l.27.65a.37.37,0,0,0,.2.21.56.56,0,0,0,.36,0L27,9.29l1.85-.51c.16,0,.2-.14.12-.29A.34.34,0,0,0,28.6,8.3ZM18.4,13l-.17.07-2.88,1.48-1.27.66a.3.3,0,0,0-.14.47c.17.32.35.64.53,1s.48.89.73,1.33a.24.24,0,0,0,.14.14.29.29,0,0,0,.3-.07L18,16.37l1.58-1.11a.34.34,0,0,0,.11-.51,4.05,4.05,0,0,1-.21-.35l-.73-1.25A.36.36,0,0,0,18.4,13Zm2.84-1.2-1.85.74c-.21.08-.27.23-.16.41l.91,1.55a.31.31,0,0,0,.28.17,2.18,2.18,0,0,0,.23-.09l4-2.37a.27.27,0,0,0,.1-.43L24.22,11a.38.38,0,0,0-.53-.17Zm7-4.4L26.72,7.3l-1.55-.07-1,0-.43,0a.21.21,0,0,0-.24.27c0,.19.08.39.11.59a.27.27,0,0,0,.24.23h.21l1.21-.11.68-.07,1.5-.17,1-.1a.16.16,0,0,0,.11-.28A.44.44,0,0,0,28.24,7.37Zm3.51-2.7.66.92,0,0c-.13-.25-.24-.5-.38-.74A.34.34,0,0,0,31.75,4.67ZM19,.69l1.34.09c.27,0,.54,0,.81.06a.9.9,0,0,0,.4,0c.14,0,.27-.08.4-.12l.5-.16v0l-.9-.11L20.39.25a1.89,1.89,0,0,0-.53,0c-.4.1-.8.23-1.2.35l-.1,0v0ZM15.1,1.91a1.24,1.24,0,0,0,.42-.15l.6-.34.42-.25v0c-.57.12-1.13.25-1.7.36a3,3,0,0,0-1,.38L13,2.37l-.1.06a4.83,4.83,0,0,0,.66-.14Zm1-.09h.1l1.63,0c.56,0,1.11,0,1.66,0a.51.51,0,0,0,.25-.05l1-.61v0l-.63,0-.84-.05L17.87,1a.89.89,0,0,0-.5.13l-1.12.64Zm10.66-.16a.92.92,0,0,0,.28.05c.18,0,.36,0,.53-.06l.14,0-.15-.09L25.72.58a1,1,0,0,0-.61-.13l-1,.08v0l.07,0ZM23.31.26c.24,0,.49,0,.73-.05v0c-.23,0-.46-.08-.7-.1a7,7,0,0,0-.8-.08,6.12,6.12,0,0,0-.74,0s-.06,0-.1,0l.93.11A5.26,5.26,0,0,0,23.31.26Zm15.92,6.9a1.66,1.66,0,0,0,.58.44l0,0c-.3-.32-.59-.64-.89-1a.33.33,0,0,0-.28-.09l.06.07C38.9,6.8,39.08,7,39.23,7.16ZM28.34,1.53l.17.05.77.07-.05-.06L27.8.7a.84.84,0,0,0-.36-.11,4.52,4.52,0,0,0-.53-.06L26.36.48a.08.08,0,0,0,.05.06ZM3.64,13.21a.66.66,0,0,0,.16-.28c.14-.49.26-1,.38-1.47s.19-.73.29-1.13l-.07.05c-.5.55-1,1.09-1.52,1.64a1.45,1.45,0,0,0-.34.59c-.21.8-.43,1.59-.65,2.38a.57.57,0,0,0,0,.16,2.29,2.29,0,0,0,.22-.24C2.6,14.35,3.13,13.78,3.64,13.21Zm6.68-8.67h0l3.12-.9a.5.5,0,0,0,.22-.13L14.2,3l.63-.65v0l-.15,0L12.13,3a.87.87,0,0,0-.48.26l-.34.34c-.25.23-.49.47-.73.71ZM5.39,9.12,5.54,9,8,7.52a.52.52,0,0,0,.19-.2l1-1.77a.28.28,0,0,0,0-.11l-.06,0c-.77.45-1.54.9-2.3,1.36a.9.9,0,0,0-.28.3c-.29.47-.57,1-.85,1.44l-.31.53ZM9.23,5a2.45,2.45,0,0,0,.38-.24c.38-.35.74-.72,1.11-1.08v0l-.07,0-1.56.89a1.94,1.94,0,0,0-.29.21L7.68,5.86l0,.06a.07.07,0,0,0,.08,0ZM29.8,1.55a3.59,3.59,0,0,0,1.13.38l-.05-.07-.77-.6a.44.44,0,0,0-.2-.11L28.71.83v0l.09.07C29.13,1.13,29.48,1.32,29.8,1.55Zm6.59,4.88a.2.2,0,0,0,.25,0l.31-.1.75-.27a.46.46,0,0,0-.05-.1l-.82-.7a.69.69,0,0,0-.13,0L36,6.09A4.15,4.15,0,0,1,36.39,6.43Zm-.77-.65L36.31,5a4,4,0,0,0-1.08-.77c0,.13,0,.25,0,.38l-.09.77a.19.19,0,0,0,0,.13Zm.11-1.69.76.53s.07.07.11,0a10.59,10.59,0,0,0-1.44-1l.18.17Zm2.33,1.84a.29.29,0,0,0,.23.1l0,0-.78-.68L37.08,5s-.07-.09-.14,0l.56.49ZM1.21,16a3.29,3.29,0,0,0,.17-.39l.42-1.51s0,0,0-.05,0,0,0-.06a9.61,9.61,0,0,0-.94,2.73.31.31,0,0,0,.05-.1ZM37.87,6.52l-.14.05-.85.31c.11.13.2.24.3.34a.44.44,0,0,0,.19.07c.24,0,.49,0,.74,0l.63,0H39l-.06-.09-.59-.65A.31.31,0,0,0,37.87,6.52ZM32,2.23c.19.08.38.14.57.21l.15.05a1.64,1.64,0,0,0-.78-.61.29.29,0,0,1-.1,0l-.75-.3,0,0,.59.44A1.68,1.68,0,0,0,32,2.23Zm.14.42v0l1,1.72a.46.46,0,0,0,.24.19l.25.08a.89.89,0,0,1,0-.11c-.12-.43-.24-.85-.34-1.28A.44.44,0,0,0,33,3l-.72-.28A.2.2,0,0,0,32.13,2.65ZM35,6.57l.06,0,.27-.35a.09.09,0,0,0,0-.09.27.27,0,0,0-.24-.19s-.09,0-.09,0a4.58,4.58,0,0,0-.15.49C34.8,6.49,34.88,6.57,35,6.57ZM33.74,3l.23.11.61.32a.33.33,0,0,0-.2-.26l-.75-.4-.37-.2A1.05,1.05,0,0,0,33.74,3Zm.09.4-.12,0a.57.57,0,0,1,0,.12l.38,1.34a.31.31,0,0,0,.17.2l.37.18c0-.38.09-.75.15-1.11a.22.22,0,0,0-.1-.22.57.57,0,0,0-.13-.08ZM4.6,9.67A5,5,0,0,0,5,9.05l.61-1,0,0-.07.07c-.24.24-.47.49-.7.74a4.1,4.1,0,0,0-.65.84c-.22.39-.46.76-.68,1.14l-.06.12a2.67,2.67,0,0,0,.34-.33C4.05,10.27,4.34,10,4.6,9.67ZM41.43,35.88,40.23,37a2.11,2.11,0,0,0-.19.23l-.66,1-.31.51,0,0,.31-.29c.26-.25.51-.52.78-.76a3.6,3.6,0,0,0,.63-.77c.09-.17.2-.32.3-.49l.47-.75,0,0Zm-5.72,5.63c-.22.12-.44.23-.65.36a4.25,4.25,0,0,0-.47.37l-.74.62,0,0,.1-.05,1.32-.74a6.81,6.81,0,0,0,.63-.41c.2-.15.37-.31.56-.47l.3-.25a.33.33,0,0,0-.15,0Zm3.74-3.94a.16.16,0,0,0-.1,0c-.72.39-1.43.78-2.16,1.16a1.1,1.1,0,0,0-.46.42c-.4.65-.83,1.28-1.24,1.93l-.12.2,0,0,.1-.05L37.81,40a1,1,0,0,0,.34-.32c.31-.5.63-1,1-1.5ZM26.07,45.11l-1.85,0a1,1,0,0,0-.3.05c-.21.08-.41.18-.61.27l-.5.22v0l.36,0,1.05,0,1.65-.05a1.5,1.5,0,0,0,.42-.09l1-.38.15-.07a1.45,1.45,0,0,0-.29,0Zm4.11-2,0,0-.37,0c-.66,0-1.32,0-2,0H26.46a.54.54,0,0,0-.38.15L24.55,44.7a.59.59,0,0,0-.09.11l1.08,0,1.26,0,1.37,0a.62.62,0,0,0,.36-.14l1.21-1.08Zm3.87-.87-.13,0c-1,.25-2,.49-2.93.75a.51.51,0,0,0-.24.13c-.51.43-1,.88-1.51,1.32l-.08.1.15,0,2.86-.76a1.15,1.15,0,0,0,.42-.23l1-.9.42-.37ZM45.24,22.13l-.81-2.4c0-.13-.09-.26-.15-.42l-.06.14c-.08.27-.16.54-.26.8a1,1,0,0,0,0,.63c.28,1,.55,2,.83,3a1.26,1.26,0,0,0,0,.16c0-.09,0-.13.05-.17.13-.43.25-.85.38-1.27A.81.81,0,0,0,45.24,22.13Zm.24,2.27c0-.33,0-.65,0-1h0l0,.11-.27.93a1.91,1.91,0,0,0-.1.67c0,.63,0,1.26,0,1.88,0,.14,0,.28,0,.42a.25.25,0,0,0,.07-.12c.11-.42.23-.84.34-1.25a1.5,1.5,0,0,0,.07-.51Zm-1.65,6.36a2.89,2.89,0,0,0-.39.9c-.14.55-.3,1.1-.46,1.65l0,.21a.37.37,0,0,0,.07-.1q.43-.72.84-1.44a1.4,1.4,0,0,0,.13-.34c.15-.55.3-1.11.44-1.66,0-.08,0-.16,0-.23a.41.41,0,0,0-.11.12C44.18,30.17,44,30.47,43.83,30.76Zm.83-5.36-.06.07-.85,1.34a.51.51,0,0,0-.07.24c0,.58,0,1.15,0,1.73l0,1.33v.31l.06-.07c.32-.54.65-1.07,1-1.61a.65.65,0,0,0,.09-.23q0-.3,0-.6c0-.79,0-1.59,0-2.38A.66.66,0,0,0,44.66,25.4Zm-1.61,6.32-.08.05L41.43,33.2a.84.84,0,0,0-.15.26.42.42,0,0,0,0,.15l-.69,2.23c-.06.18-.11.36-.17.54h0l.55-.53,1.13-1.08a.82.82,0,0,0,.24-.41c.23-.84.47-1.68.7-2.52C43.05,31.81,43,31.78,43.05,31.72ZM6.14,36c-.18.4-.36.78-.52,1.17a.17.17,0,0,0,0,.14.57.57,0,0,0,.13.14l1.45,1.38L8.45,40a.83.83,0,0,0,.37.26l.76-1Zm-.39,2.24.76.73,1.64,1.57.31.28.14-.21-3-2.86C5.58,38,5.6,38.08,5.75,38.22Zm-.87-1.29L3.43,34.87l-.38-.52a.93.93,0,0,0,.21.5c.56.79,1.11,1.58,1.67,2.36.07.09.14.18.22.3a.54.54,0,0,0-.1-.37Zm.84-1.44-.09-.11L3.54,32.47l-.4-.56c-.12.43-.2.82-.32,1.19a.54.54,0,0,0,.1.52c.73,1,1.45,2.05,2.19,3.07a.92.92,0,0,0,.14.15c.17-.4.33-.78.5-1.16A.19.19,0,0,0,5.72,35.49ZM.28,24.34l-.12-.56h0c0,.38-.08.76-.11,1.15a2.06,2.06,0,0,0,0,.43c.19.93.39,1.87.58,2.8,0,0,0,.08,0,.12.08-.37.13-.73.18-1.1a1.53,1.53,0,0,0,0-.37C.64,26,.46,25.16.28,24.34Zm1,3.75-.18-.38,0,0,0,.09L.91,29A.76.76,0,0,0,1,29.5l1.41,3.18.08.14a.36.36,0,0,0,0-.11c.08-.31.14-.62.23-.92a.89.89,0,0,0-.06-.71C2.21,30.09,1.77,29.09,1.32,28.09ZM23,45c-1.14-.21-2.28-.41-3.42-.64-.43-.08-.34-.06-.66.12s-.61.34-.94.53a.51.51,0,0,0,.14,0l1,.18,2.44.45a1,1,0,0,0,.64-.08c.19-.1.39-.18.58-.26l.59-.27ZM.36,21.72c.26-.54.52-1.08.8-1.61a1,1,0,0,0,.11-.48c0-.63,0-1.25,0-1.88v-1.1l0,.05L.53,18.21a1.72,1.72,0,0,0-.21.7l0,1.45,0,1.26a1.7,1.7,0,0,0,0,.22h0ZM18.53,44,17,43.41l-2.42-1a.21.21,0,0,0-.23,0l-.27.22-.68.57.23.11,2.06.83,1.44.57a.42.42,0,0,0,.38,0l1.18-.68Zm-5.37-.53a.43.43,0,0,0-.37,0s0,0,.05,0L16,44.79a.67.67,0,0,0,.42,0l-.78-.31ZM8.82,41.09l.61.39,2.49,1.61a.51.51,0,0,0,.55,0L9,40.88ZM13,42.92c.22-.2.45-.39.68-.58l.25-.22-4-2.57-.79,1,.2.17.91.59,2.37,1.52a.91.91,0,0,0,.17.09A.17.17,0,0,0,13,42.92ZM36.37,7.12l-.47.28a.17.17,0,0,0,.18.11l.66-.14a.44.44,0,0,0-.1-.16C36.57,7.14,36.48,7.07,36.37,7.12Zm-19-4.91H15.78a.53.53,0,0,0-.4.14l-1,1-.15.17h.15l1.2-.09,1-.07L18,3.31a.68.68,0,0,0,.51-.23c.21-.25.43-.48.64-.72l.09-.13H17.35Zm3.86-.82a1.37,1.37,0,0,0-.2.13L20.3,2l.15.05,1.84.41,1.93.42a.41.41,0,0,0,.34-.05l.54-.36-.16-.07-2.27-.72-1-.3A.53.53,0,0,0,21.21,1.39ZM19.68,2.47c-.05.07-.11.13-.17.2l-.58.66,1,.12,1,.12,1.26.15c.33,0,.66.06,1,.12a.5.5,0,0,0,.61-.24L24,3.36a.53.53,0,0,0,.06-.1c-.07-.09-.16-.09-.25-.11l-1.33-.29-2.34-.53A.43.43,0,0,0,19.68,2.47ZM23.53.72a.61.61,0,0,0-.44,0l-.9.28L22.05,1l.17.06,3.17,1a.44.44,0,0,0,.3,0l.64-.23-.08,0ZM28.14,2c-.22,0-.43,0-.65.07v0l.15.11L29.7,3.66l.71.51a.4.4,0,0,0,.41.08l-.18-.18L29.3,2.85l-.81-.74A.48.48,0,0,0,28.14,2Zm-1.44.23-.6.2.16.1,1.91,1.07,1.51.84a.42.42,0,0,0,.4,0L29.9,4.3,28.23,3.11,27.1,2.3A.45.45,0,0,0,26.7,2.21Zm-13,2.07c-.13.3-.29.59-.44.88L13,5.78l.22,0,2.07-.31,2-.3a.45.45,0,0,0,.36-.28c.11-.26.23-.53.35-.79,0-.1.09-.2.15-.33a.42.42,0,0,0-.18,0l-.77,0-.79.05-1.31.09L14.22,4A.5.5,0,0,0,13.73,4.28ZM4.16,13.84c0,.88,0,1.76,0,2.64,0,.06,0,.12,0,.2l.11-.07,1.81-1.36,1.07-.81A.5.5,0,0,0,7.4,14c0-.42,0-.84-.05-1.26s0-.71,0-1.07c0-.14,0-.29,0-.47l-.18.11-1,.63L4.38,13.13a.46.46,0,0,0-.23.44C4.15,13.66,4.16,13.75,4.16,13.84ZM5.3,9.61a.81.81,0,0,0-.39.54c-.14.59-.3,1.17-.46,1.76-.06.25-.12.5-.19.75l0,0,.1-.06,2.74-1.86a.62.62,0,0,0,.24-.37l.51-2.23s0-.09,0-.15l-.15.08Zm6.61-5.12L10.09,5a.61.61,0,0,0-.4.32l-1,1.73s0,.07-.06.13l.19-.06L12.19,6a.52.52,0,0,0,.31-.27l.58-1.12.25-.49-.15,0ZM8.34,8c-.15.69-.31,1.39-.46,2.08l-.06.26.11,0,2.23-1,1.36-.58a.65.65,0,0,0,.42-.52c.06-.43.15-.86.23-1.29,0-.18.06-.36.1-.58L12,6.47,8.69,7.64A.48.48,0,0,0,8.34,8ZM31.67,2.66a.66.66,0,0,0-.41-.31l-.57-.13-.15,0s0,0,0,0c.53.64,1.06,1.28,1.6,1.91a.51.51,0,0,0,.45.19l-.1-.18C32.23,3.67,31.94,3.17,31.67,2.66Zm4,3.91a3.92,3.92,0,0,1-.25.32c.11.14.14.15.26.09l.3-.17c.13-.08.13-.17,0-.27S35.74,6.44,35.63,6.57Zm-.4,4.77,0,0c.12.38.23.77.35,1.14a.36.36,0,0,0,.26.22.16.16,0,0,0,0-.21c-.18-.37-.35-.74-.53-1.1C35.29,11.38,35.25,11.36,35.23,11.34ZM37,7.81c-.1,0-.19,0-.29.06L36.31,8c.18.14.34.08.49.09a3.65,3.65,0,0,0,.47,0A.28.28,0,0,0,37,7.81Zm.49.7h-.73v0c.33.09.67.16,1,.23A.39.39,0,0,0,37.44,8.51ZM29.49,2h0L29,2a.51.51,0,0,0,.14.18l1,.94,1.11,1a.58.58,0,0,0,.42.14l-.11-.14c-.46-.55-.93-1.1-1.38-1.67A.79.79,0,0,0,29.49,2ZM35,13.17c-.16,0-.24,0-.25.18,0,.36,0,.71,0,1.06l-.06,3.19h0v0a.36.36,0,0,0,.34.4l.71.1c.18,0,.27-.06.24-.24-.09-.63-.19-1.25-.28-1.88s-.19-1.32-.29-2l-.09-.56A.36.36,0,0,0,35,13.17Zm-.26-1.78c0-.06,0-.11-.12-.1a.22.22,0,0,0,0,.08c0,.31.06.63.1.94a.4.4,0,0,0,.3.34.16.16,0,0,0,0-.21C34.92,12.09,34.82,11.74,34.71,11.39ZM32.56,4.8c.16.32.29.63.47.93l0,0C33,5.47,33,5.23,32.88,5A.33.33,0,0,0,32.56,4.8ZM3.77,17.69,2.58,19c-.25.27-.49.55-.74.83a.46.46,0,0,0-.11.45c.09.38.17.76.25,1.14.18.77.35,1.54.52,2.3,0,.05,0,.12.09.14l.06-.06,1.94-2.26A.53.53,0,0,0,4.7,21c-.16-.65-.32-1.29-.47-1.93L3.86,17.6ZM33.57,5.1a.16.16,0,0,0-.2,0l.21.72a1.1,1.1,0,0,0,.09.14l0,0c0-.2,0-.4,0-.6S33.62,5.16,33.57,5.1Zm-.64,6.5a.29.29,0,0,0,.13.38c.13.08.2,0,.22-.11s.08-.59.12-.88c0-.12,0-.12-.15-.18C33.14,11.08,33,11.34,32.93,11.6ZM3.74,13.88v-.16c-.09.08-.18.14-.25.21L1.86,15.72a.66.66,0,0,0-.19.46l0,3.06v.16h0l.07-.09,1.83-2.07a.63.63,0,0,0,.18-.45c0-.17,0-.34,0-.52ZM43.59,26.3l.1-.15.76-1.2a.61.61,0,0,0,.08-.54c-.25-.88-.48-1.76-.73-2.64-.06-.24-.13-.48-.2-.72l-.05,0-.67,1a.47.47,0,0,0-.07.35l.3,1.47.33,1.72C43.48,25.81,43.53,26,43.59,26.3Zm.29-7.85c-.63-1-1.25-2-1.87-2.94a.75.75,0,0,0-.09-.09l-.22.6a.38.38,0,0,0,0,.33l.06.12,1.72,3.35a.89.89,0,0,0,.09.16.93.93,0,0,0,0-.1c.1-.3.19-.6.3-.9A.62.62,0,0,0,43.88,18.45ZM43,31.2a.59.59,0,0,0,.2-.45c0-.66,0-1.32,0-2l0-1.09v-.35s0,0,0,0c-.47.4-.94.79-1.4,1.2a.46.46,0,0,0-.13.27c-.06.58-.1,1.16-.14,1.74s-.09,1.12-.14,1.68c0,.13,0,.27,0,.43l.2-.17ZM41.6,27.36c0,.22,0,.45.08.68l.06,0,1.34-1.13a.39.39,0,0,0,.12-.41c-.1-.5-.19-1-.29-1.5-.15-.75-.3-1.5-.44-2.25,0-.07,0-.14-.1-.18l-.15.1c-.27.21-.53.42-.81.62a.47.47,0,0,0-.2.46l.15,1.46ZM41,32.8c0-.13,0-.26,0-.38l.15-2c0-.45.07-.9.1-1.34a1.48,1.48,0,0,0,0-.19L41.1,29c-.55.24-1.09.49-1.64.72a.57.57,0,0,0-.38.5l-.51,3.39c0,.21-.06.42-.1.64h.07l2.22-1.1A.38.38,0,0,0,41,32.8Zm.69-21.61c.09.26.16.48.24.7a.77.77,0,0,0,.14.21l.78.88.73.81,0,0c-.14-.36-.26-.73-.41-1.1a.94.94,0,0,0-.21-.28l-1.17-1.1ZM41,9.69a2,2,0,0,0,.13.29,2.15,2.15,0,0,0,.55.75c.32.28.62.58,1,.89a.3.3,0,0,0,0-.09c-.17-.31-.34-.64-.52-.95a.74.74,0,0,0-.2-.23c-.26-.21-.52-.4-.78-.6Zm-.55-.92a.69.69,0,0,0,.16.18l.62.48.12.08s0-.06,0-.07c-.19-.27-.39-.52-.57-.8A2,2,0,0,0,40,8.13a.14.14,0,0,0,0,.07Zm1.6,3.91c0,.24.06.47.1.7a.52.52,0,0,0,.1.23l1.24,1.63.55.73,0,0c0-.29-.11-.58-.15-.88a1.21,1.21,0,0,0-.34-.73c-.49-.53-1-1.07-1.45-1.61ZM39.58,37a.63.63,0,0,0,.32-.38c.3-1,.6-1.95.89-2.92l0-.13-.08,0-2.21,1.09a.5.5,0,0,0-.25.3c0,.05,0,.11-.05.16l-1.06,3a1,1,0,0,0,0,.12l.08,0Zm4.54-19.15c0-.29,0-.57,0-.85a.79.79,0,0,0-.19-.57l-1.38-1.82c-.14-.18-.27-.36-.41-.53h0c0,.22,0,.43-.06.65a.65.65,0,0,0,.08.27.86.86,0,0,0,.1.16c.53.83,1,1.67,1.57,2.5l.25.37C44.1,18,44.12,17.93,44.12,17.88ZM10.5,39.43l2.61,1.68.91.59c.21.12.28.11.43-.06l.7-.83.75-.87-.21-.16-2-1.27-1.78-1.15c-.16-.1-.21-.09-.33.06l-1.25,1.63c-.1.13-.09.21,0,.31ZM39.11,7.77l-1.31,0h-.19c.16.32.22.37.51.45l.33.09L40,8.7l0,0-.55-.75A.39.39,0,0,0,39.11,7.77ZM6.59,35.88l1.78,1.68,1.15,1.09a1.18,1.18,0,0,0,.22.17.12.12,0,0,0,.18,0l.21-.27,1.09-1.44c.08-.11.08-.17,0-.26l-.06-.07-.39-.36L8.93,34.65l-1-1a1,1,0,0,0-.16-.12.24.24,0,0,0-.07.09l-1.2,1.77a.25.25,0,0,0,0,.37ZM3.51,31.79l.74,1L5.83,35a1,1,0,0,0,.18.18L6.13,35l1.1-1.66a.32.32,0,0,0,0-.45L5,29.89c-.13-.19-.27-.38-.42-.58l0,.05L3.4,31.29a.31.31,0,0,0,0,.32Zm-.59-1A1.63,1.63,0,0,0,3,31a.12.12,0,0,0,.05-.05c.37-.63.75-1.26,1.12-1.9a.36.36,0,0,0,0-.36l-.07-.14L2.51,25a.75.75,0,0,0-.07-.12L2.37,25c-.33.61-.65,1.22-1,1.83a.51.51,0,0,0,0,.48ZM1.38,20.54l-.09.16C1,21.27.72,21.84.43,22.4a1,1,0,0,0-.08.68c.22,1,.42,2,.63,3,0,.14.07.28.1.45,0-.09.09-.14.12-.19.28-.54.56-1.09.85-1.62a.9.9,0,0,0,.11-.7c-.23-.92-.42-1.86-.63-2.79C1.48,21,1.43,20.78,1.38,20.54ZM15,42.2l2.67,1.08,1.1.44a.36.36,0,0,0,.47-.09c.14-.16.29-.31.43-.46l1-1.08.07-.09-.17-.07-1.71-.71-2.31-.95c-.18-.07-.25-.05-.38.1l-.8.9-.64.75C14.82,42.13,14.91,42.16,15,42.2Zm12.37.49,2.88,0h.06a.56.56,0,0,0,.47-.27c.47-.74,1-1.48,1.45-2.22l.18-.29H28.76a.5.5,0,0,0-.42.21.83.83,0,0,0-.08.12l-1.55,2.26-.14.23.2,0Zm7-1a.61.61,0,0,0,.4-.3l.86-1.34c.21-.33.42-.67.66-1l-1.3.3-1.77.42a.61.61,0,0,0-.43.28c-.52.78-1,1.56-1.55,2.35a1.05,1.05,0,0,0-.08.13l.19,0ZM21.64,44.36c.63.12,1.27.25,1.91.36a.56.56,0,0,0,.54-.16c.43-.43.87-.84,1.31-1.26.09-.08.16-.16.25-.25l-.1,0-2-.39-1.95-.39a.47.47,0,0,0-.48.14l-1.45,1.49s0,.06-.08.11l.29.07Zm15-6.1,1-2.93c0-.11.08-.23.13-.37h-.16l-2,.4c-.2,0-.39.09-.59.12a.63.63,0,0,0-.53.45c-.4,1-.81,2-1.21,3-.05.13-.11.27-.17.44h.11l.52-.12,2.43-.56A.51.51,0,0,0,36.69,38.26ZM26.16,42.45,27.83,40a.83.83,0,0,0,.09-.16.34.34,0,0,0-.12,0l-1-.22L24,38.94a.45.45,0,0,0-.48.19l-1.74,2.46-.09.14a.22.22,0,0,0,.19.12l.54.11,2.92.58a4.5,4.5,0,0,0,.51.08A.33.33,0,0,0,26.16,42.45Z"/></g></g></svg>