<svg xmlns="http://www.w3.org/2000/svg" viewBox="0 0 47.72 35.01"><defs><style>.cls-1{fill:#1d1d1b;}</style></defs><g id="Layer_2" data-name="Layer 2"><g id="Layer_1-2" data-name="Layer 1"><path class="cls-1" d="M46.92,9.31a12.81,12.81,0,0,0-2.68-4.57A11.19,11.19,0,0,0,40,1.8,11.61,11.61,0,0,0,36.15,1L34.67.55h-.05c-.19-.06-.39-.1-.58-.15s-.3-.09-.45-.12h0c-.21,0-.43-.08-.65-.11L32.47.07h0c-.25,0-.51,0-.77,0L31.3,0h0c-.39,0-.79,0-1.2.05s-.68.08-1,.14h0L28.7.27l-.64.14h0l-.37.11-.61.19h0l-.43.17c-.17.07-.35.13-.52.21h-.06l-.51.24-.31.16-.15.08-.1,0L24.44,2l-.15.1-.07,0-.08,0-.24.15-.36.25-.16.12-.08.05-.12.09L23,3a15.25,15.25,0,0,0-1.53-.25l-.88-.36-.25-.09-.25-.09-.25-.09L19.55,2,19.33,2l-.16-.05-.3-.06a4.07,4.07,0,0,0-.5-.13c-.13,0-.27,0-.4-.06l-.27-.06-.23,0-.33-.05c-.21,0-.43,0-.65,0s-.22,0-.33,0h-.29q-.64,0-1.32.06a10.37,10.37,0,0,0-1.1.15l-.24.05-.39.08-.45.1-.54.16-.35.11-.18.05c-.35.12-.69.25-1,.39l-.06,0-.07,0-.49.22L9,3.2l-.16.08-.05,0-.07,0-.32.18-.58.36-.29.19-.07,0-.1.07-.46.33c-.15.11-.3.22-.44.34L6.34,5l-.08.07-.2.16-.39.35-.38.36a.47.47,0,0,0-.1.1l-.06.06-.22.21-.36.39c-.12.12-.23.26-.35.39l-.07.09,0,0,0,0-.21.26c-.12.14-.22.28-.33.42s-.21.28-.31.43a.18.18,0,0,0,0,.07l-.05.06-.22.33c-.11.15-.21.31-.31.47l-.28.47h0L2,10.24c-.11.2-.21.4-.31.6l-.11.23-.06.13a2.56,2.56,0,0,1-.11.24c-.09.2-.17.41-.26.62L1,12.54l0,.05v0s0,0,0,.06c-.09.26-.16.52-.24.79s-.14.44-.2.66c0,0,0,0,0,0-.07.27-.12.56-.17.84s-.1.43-.14.65v0c-.05.32-.08.64-.11,1S0,17,0,17.23H0c0,.52,0,1,0,1.57a14.88,14.88,0,0,0,.41,3,14.18,14.18,0,0,0,.94,2.66,12.64,12.64,0,0,0,1.4,2.29,12.29,12.29,0,0,0,1.78,1.89l.75.64a13.12,13.12,0,0,0,2.62,2.89,12.69,12.69,0,0,0,5,2.49,13.16,13.16,0,0,0,3.2.38,14.56,14.56,0,0,0,2.69-.25,15.93,15.93,0,0,0,2.23-.59,18.35,18.35,0,0,0,2.1-.89,17.44,17.44,0,0,0,1.94-1.16,16.76,16.76,0,0,0,1.52-1.18,11.82,11.82,0,0,0,1.48.61A10.6,10.6,0,0,0,30,32a11.1,11.1,0,0,0,1.73.13H32a12.24,12.24,0,0,0,2.08-.22,14.68,14.68,0,0,0,5.24-2.11A17.65,17.65,0,0,0,43.58,26a18.9,18.9,0,0,0,2.9-5.07A18.11,18.11,0,0,0,47.71,15,15.8,15.8,0,0,0,46.92,9.31Zm-22.37,22a15.69,15.69,0,0,1-1.84,1.1,16.12,16.12,0,0,1-2,.83,13.9,13.9,0,0,1-2.08.56,12.89,12.89,0,0,1-5.47-.12,11.68,11.68,0,0,1-4.65-2.3,12.22,12.22,0,0,1-3.33-4.22,14.23,14.23,0,0,1-1.39-5.81,16.63,16.63,0,0,1,1-6.32A17.89,17.89,0,0,1,8,9.5a17.23,17.23,0,0,1,4.78-4,14.85,14.85,0,0,1,5.75-1.84,12.38,12.38,0,0,1,2.19,0A11.77,11.77,0,0,1,22.8,4c.28.07.56.15.83.24A12.55,12.55,0,0,1,25,5.47c.09.09.16.21.25.31a17.57,17.57,0,0,0-1.57,1.77,19.11,19.11,0,0,0-3.41,7.27,18.08,18.08,0,0,0-.46,4.07,16.09,16.09,0,0,0,.5,3.9,13.72,13.72,0,0,0,1.34,3.35,12,12,0,0,0,2.06,2.7,10.78,10.78,0,0,0,2,1.58C25.33,30.73,24.94,31,24.55,31.29Zm2.25-9.37,0,.09q-.37.76-.81,1.5l0,0A15.76,15.76,0,0,1,25,25l-.07.09-.33.42a1.83,1.83,0,0,1-.13.16l-.31.36a3.73,3.73,0,0,1-.32.36l-.34.36-.13.13a10.45,10.45,0,0,1-.81-1.23,12.89,12.89,0,0,1-1.25-3.11,15.08,15.08,0,0,1-.46-3.65A17.34,17.34,0,0,1,21.23,15a18.24,18.24,0,0,1,1.26-3.64,18.57,18.57,0,0,1,2-3.25,17.45,17.45,0,0,1,1.39-1.58,11.93,11.93,0,0,1,1,1.6A13.49,13.49,0,0,1,28,11.36a14.8,14.8,0,0,1,.39,3.57,15.79,15.79,0,0,1-.11,1.68c0,.17,0,.34-.07.51-.06.39-.13.77-.21,1.16,0,.18-.08.36-.13.54-.1.39-.21.78-.34,1.16,0,.14-.09.29-.14.43C27.24,20.92,27,21.42,26.8,21.92Zm18.75-1.4a18.36,18.36,0,0,1-2.75,4.81,16.45,16.45,0,0,1-4,3.62,13.75,13.75,0,0,1-4.88,2,11.48,11.48,0,0,1-1.92.2A10.22,10.22,0,0,1,30.17,31a9.37,9.37,0,0,1-1.74-.41c-.34-.11-.67-.24-1-.38a19.51,19.51,0,0,0,2-2.31,19.06,19.06,0,0,0,2-3.27A18.6,18.6,0,0,0,32.74,21a17.87,17.87,0,0,0,.49-3.9,16.71,16.71,0,0,0-.38-3.83,14.3,14.3,0,0,0-1.23-3.43,13.77,13.77,0,0,0-2-2.92A13.39,13.39,0,0,0,27.54,5a15,15,0,0,1,1.22-.87,14,14,0,0,1,1.87-1,13.16,13.16,0,0,1,2-.71,13,13,0,0,1,2-.37,10.65,10.65,0,0,1,5,.65,10.38,10.38,0,0,1,3.89,2.68A12,12,0,0,1,46,9.63,15,15,0,0,1,46.71,15,17.52,17.52,0,0,1,45.55,20.52Z"/></g></g></svg>