<svg xmlns="http://www.w3.org/2000/svg" viewBox="0 0 56.93 56.93"><g id="Layer_2" data-name="Layer 2"><g id="Layer_1-2" data-name="Layer 1"><path d="M45.55,19.37c-.62,7.55-1.13,8.47-9.33,9-6.1-.57-7.09-1.46-7.58-8.42.52-7.45,1.62-7.95,8.93-8.54C29.42,10.73,29,10.19,28.47,0c-.53,10.19-1,10.73-9.1,11.39,7.3.59,8.4,1.09,8.93,8.54-.5,7-1.49,7.85-7.59,8.42-8.2-.51-8.71-1.43-9.32-9-.66,8.14-1.2,8.57-11.39,9.1,10.19.52,10.73,1,11.39,9.1.61-7.56,1.12-8.47,9.32-9,6.1.57,7.09,1.46,7.59,8.43-.53,7.45-1.63,7.94-8.93,8.54,8.14.66,8.57,1.19,9.1,11.38.52-10.19,1-10.72,9.1-11.38-7.31-.6-8.41-1.09-8.93-8.54.49-7,1.48-7.86,7.58-8.43,8.2.52,8.71,1.43,9.33,9,.66-8.15,1.19-8.58,11.38-9.1C46.74,27.94,46.21,27.51,45.55,19.37Z"/></g></g></svg>